<svg xmlns="http://www.w3.org/2000/svg" width="1441" height="1637" fill="none" xmlns:v="https://vecta.io/nano"><path d="M124.304 233.441l-16.019-.449-13.568 12.572-5.203 15.611-3.333 10.699-3.273 16.313-.909 9.256-.085 3.02 2.086 2.864 3.192 9.803 2.004-9.658 3.945-1.616 5.558-12.795c1.005-4.937 3.149-14.978 3.688-15.654s2.698-.932 3.711-.975l-1.266 29.751.948 20.317 1.876 2.642 1.707 8.682 1.323-8.597 2.406-.796 3.507-9.183 3.603-12.635 1.501-30.392 3.415 1.822 2.807 15.836 3.967 13.061 4.282 1.847 4.274 9.833.32-11.431 2.045-3.396-3.724-37.231-3.889-15.865-10.896-13.256z" fill="#72c176"/><path d="M198.649 602.332l-15.993-1.042-14.024 12.06-5.778 15.408-3.726 10.569-3.875 16.18-1.251 9.216-.197 3.014 1.979 2.94 2.827 9.914 2.36-9.576 4.002-1.469 6.028-12.581c1.187-4.896 3.702-14.851 4.265-15.506s2.731-.832 3.744-.838l-2.367 29.685.195 20.337 1.777 2.711 1.384 8.739 1.641-8.542 2.434-.707 3.844-9.047 4.069-12.492 2.625-30.316 3.346 1.947 2.218 15.929 3.481 13.2 4.21 2.004 3.908 9.984.743-11.411 2.169-3.318-2.343-37.343-3.299-15.999-10.396-13.65z" fill="#726242"/><path d="M93.497 731.813l-15.629 3.547-10.018 15.549-1.16 16.415-.569 11.191.884 16.615 1.42 9.191.669 2.946 2.733 2.256 5.528 8.702-.459-9.852 3.42-2.546 2.203-13.775c-.254-5.032-.672-15.291-.318-16.08s2.382-1.573 3.352-1.866l6.168 29.132 5.967 19.444 2.474 2.093 3.811 7.985-.854-8.656 2.132-1.369 1.115-9.766.35-13.134-6.099-29.812 3.761.917 6.654 14.641 7.089 11.666 4.606.725 6.584 8.462-2.531-11.152 1.137-3.798-12.86-35.137-7.71-14.401-13.848-10.133z" fill="#32999f"/><path d="M187.518 854.654l-15.726 3.091-10.465 15.251-1.638 16.374-.894 11.171.4 16.633 1.152 9.229.583 2.964 2.666 2.334 5.273 8.859-.173-9.861 3.492-2.446 2.603-13.705c-.107-5.036-.227-15.304.15-16.082s2.427-1.503 3.404-1.768l5.318 29.3 5.4 19.608 2.412 2.165 3.577 8.092-.602-8.677 2.171-1.306 1.398-9.731.732-13.117-5.23-29.977 3.733 1.025 6.225 14.829 6.747 11.867 4.583.858 6.336 8.65-2.206-11.22 1.247-3.764-11.833-35.495-7.288-14.62-13.547-10.531z" fill="#2e7d32"/><path d="M241.494 1029.08l-11.071 11.59.235 18.49 8.097 14.33 5.707 9.64 9.912 13.37 6.259 6.87 2.184 2.09 3.525.37 9.414 4.2-5.824-7.96 1.445-4.01-5.77-12.7c-2.99-4.05-9.005-12.37-9.145-13.23-.14-.85 1.117-2.62 1.763-3.4l21.23 20.88 15.713 12.91 3.218.38 7.587 4.55-5.492-6.74 1.021-2.32-4.464-8.76-6.961-11.14-21.549-21.49 3.642-1.31 13.633 8.53 12.353 5.81 4.24-1.94 10.162 3.42-8.269-7.9-1.149-3.79-30.126-22.19-14.38-7.75-17.14-.8z" fill="#726242"/><path d="M193.122 106.576l-15.48 4.148-9.41 15.924-.526 16.447-.136 11.206 1.524 16.568 1.774 9.13.782 2.917 2.818 2.149 5.86 8.482-.84-9.827 3.319-2.676 1.67-13.85c-.448-5.018-1.262-15.254-.939-16.055s2.319-1.664 3.277-1.995l7.288 28.873 6.714 19.198 2.553 1.997 4.116 7.832-1.188-8.617 2.078-1.45.737-9.803-.157-13.137-7.247-29.554 3.794.77 7.215 14.374 7.534 11.383 4.631.547 6.905 8.201-2.959-11.046.989-3.839-14.207-34.614-8.261-14.093-14.228-9.59z" fill="#96cbce"/><path d="M492.623 1234.68l-4.847 15.28 8.343 16.51 13.572 9.3 9.366 6.15 14.778 7.65 8.647 3.42 2.879.92 3.329-1.22 10.302-.36-8.73-4.59-.466-4.24-10.768-8.87c-4.468-2.33-13.529-7.16-14.03-7.86-.501-.71-.152-2.85.085-3.84l28.25 9.42 19.79 4.69 3.058-1.07 8.816.75-7.899-3.64-.102-2.53-7.861-5.91-11.151-6.94-28.801-9.83 2.693-2.78 15.996 1.67 13.65-.21 2.955-3.61 10.63-1.39-10.9-3.46-2.701-2.91-36.814-6.68-16.323-.64-15.746 6.82z" fill="#32999f"/><path d="M691.737 1318.14l-10.975 11.68.387 18.49 8.215 14.26 5.785 9.6 10.022 13.28 6.316 6.83 2.201 2.07 3.527.34 9.449 4.12-5.889-7.91 1.411-4.02-5.874-12.65c-3.023-4.03-9.106-12.31-9.253-13.16s1.095-2.63 1.735-3.42l21.401 20.71 15.818 12.78 3.222.35 7.624 4.49-5.548-6.7 1.003-2.32-4.537-8.72-7.052-11.09-21.724-21.31 3.63-1.34 13.703 8.42 12.4 5.71 4.224-1.98 10.19 3.34-8.333-7.83-1.181-3.79-30.307-21.94-14.444-7.63-17.146-.66z" fill="#726242"/><path d="M642.572 1177.3l-5.765 14.96 7.326 16.98 12.983 10.11 8.975 6.71 14.288 8.53 8.423 3.94 2.818 1.09 3.396-1.01 10.306.26-8.436-5.11-.208-4.26-10.21-9.51c-4.318-2.59-13.07-7.96-13.527-8.7-.457-.73.021-2.85.318-3.82l27.626 11.12 19.469 5.88 3.117-.89 8.754 1.29-7.663-4.12.052-2.53-7.488-6.37-10.71-7.61-28.152-11.55 2.857-2.61 15.865 2.63 13.638.62 3.168-3.42 10.696-.75-10.67-4.12-2.52-3.06-36.341-8.9-16.255-1.63-16.13 5.85z" fill="#96cbce"/><path d="M262.052 1178.53l-7.142 14.35 5.701 17.59 11.977 11.29 8.306 7.52 13.425 9.83 8.015 4.72 2.705 1.34 3.476-.69 10.236 1.23-7.92-5.88.192-4.26-9.272-10.42c-4.057-2.99-12.266-9.16-12.652-9.93s.289-2.84.675-3.77l26.462 13.65 18.831 7.69 3.187-.6 8.594 2.11-7.243-4.82.289-2.52-6.857-7.04-9.948-8.58-26.945-14.14 3.089-2.33 15.548 4.11 13.52 1.89 3.475-3.11 10.719.26-10.237-5.1-2.222-3.28-35.345-12.28-16.03-3.14-16.609 4.31z" fill="#72c176"/><path d="M410.487 1131.66l-3.338 15.67 9.909 15.62 14.413 7.94 9.92 5.21 15.452 6.17 8.939 2.57 2.954.63 3.195-1.53 10.218-1.37-9.135-3.72-.877-4.17-11.579-7.78c-4.673-1.88-14.161-5.81-14.728-6.46s-.429-2.82-.288-3.82l29.032 6.62 20.152 2.74 2.939-1.36 8.847-.11-8.216-2.86-.348-2.51-8.397-5.11-11.774-5.83-29.62-6.97 2.41-3.03 16.082.1 13.564-1.54 2.59-3.87 10.444-2.43-11.184-2.38-2.971-2.63-37.29-3.07-16.307.96-15.008 8.32z" fill="#2e7d32"/><path d="M115.772 994.747l-13.759 8.213-4.703 17.89 3.986 15.97 2.929 10.82 5.992 15.52 4.2 8.3 1.549 2.59 3.298 1.3 7.953 6.56-3.491-9.23 2.462-3.48-2.177-13.78c-1.801-4.7-5.38-14.33-5.288-15.19s1.777-2.23 2.608-2.81l14.897 25.78 11.702 16.64 3.001 1.22 6.099 6.41-3.496-7.96 1.602-1.97-1.968-9.63-3.739-12.59-15.043-26.45 3.86-.3 10.866 11.86 10.357 8.89 4.603-.74 8.884 6.01-5.864-9.82-.097-3.97-23.121-29.41-11.796-11.3-16.306-5.343z" fill="#96cbce"/><path d="M93.122 21.576l-15.48 4.148-9.41 15.924-.526 16.447-.136 11.205 1.525 16.568 1.774 9.13.782 2.918 2.818 2.148 5.86 8.482-.839-9.827 3.319-2.676 1.67-13.85c-.448-5.018-1.262-15.253-.939-16.055s2.319-1.664 3.277-1.995l7.288 28.873 6.714 19.198 2.553 1.997 4.116 7.832-1.188-8.617 2.078-1.45.737-9.803-.157-13.137-7.247-29.554 3.794.77 7.215 14.373 7.534 11.384 4.631.546 6.906 8.201-2.96-11.046.989-3.839-14.207-34.614-8.261-14.093-14.228-9.59z" fill="#2e7d32"/></svg>