<svg width="62" height="102" viewBox="0 0 62 102" fill="none" xmlns="http://www.w3.org/2000/svg">
<g filter="url(#filter0_i_422_119)">
<path d="M40.7172 101.776L24.6532 101.776L11.4112 88.7999L6.63538 73.0119L3.59623 62.1982L0.77417 45.7614L0.122925 36.4616L0.122925 33.4338L2.29374 30.6222L5.76705 20.8899L7.50371 30.6222L11.4112 32.3524L16.6211 45.3288C17.4895 50.3031 19.3564 60.4248 19.8774 61.1168C20.3984 61.8089 22.5547 62.1261 23.5678 62.1982L23.1336 32.3524L24.6532 12.0226L26.6069 9.42733L28.5606 0.776367L29.6461 9.42733L32.034 10.2924L35.2902 19.5922L38.5464 32.3524L39.1977 62.847L42.671 61.1168L45.9272 45.3288L50.2688 32.3524L54.6105 30.6222L59.1692 20.8899L59.1692 32.3524L61.1229 35.8128L56.3471 73.0119L52.0055 88.7999L40.7172 101.776Z" fill="#72C176"/>
</g>
<defs>
<filter id="filter0_i_422_119" x="0.122925" y="0.776367" width="61" height="105" filterUnits="userSpaceOnUse" color-interpolation-filters="sRGB">
<feFlood flood-opacity="0" result="BackgroundImageFix"/>
<feBlend mode="normal" in="SourceGraphic" in2="BackgroundImageFix" result="shape"/>
<feColorMatrix in="SourceAlpha" type="matrix" values="0 0 0 0 0 0 0 0 0 0 0 0 0 0 0 0 0 0 127 0" result="hardAlpha"/>
<feOffset dy="4"/>
<feGaussianBlur stdDeviation="2"/>
<feComposite in2="hardAlpha" operator="arithmetic" k2="-1" k3="1"/>
<feColorMatrix type="matrix" values="0 0 0 0 0 0 0 0 0 0 0 0 0 0 0 0 0 0 0.25 0"/>
<feBlend mode="normal" in2="shape" result="effect1_innerShadow_422_119"/>
</filter>
</defs>
</svg>
