<svg width="62" height="102" viewBox="0 0 62 102" fill="none" xmlns="http://www.w3.org/2000/svg">
<g filter="url(#filter0_i_422_116)">
<path d="M41.4796 101.115L25.4155 101.115L12.1735 88.1388L7.39771 72.3508L4.35856 61.5371L1.5365 45.1002L0.885254 35.8005L0.885254 32.7726L3.05607 29.9611L6.52938 20.2287L8.26604 29.9611L12.1735 31.6912L17.3835 44.6677C18.2518 49.642 20.1187 59.7636 20.6397 60.4557C21.1607 61.1478 23.317 61.465 24.3301 61.5371L23.8959 31.6912L25.4155 11.3615L27.3692 8.7662L29.323 0.115234L30.4084 8.7662L32.7963 9.63129L36.0525 18.9311L39.3087 31.6912L39.96 62.1859L43.4333 60.4557L46.6895 44.6677L51.0312 31.6912L55.3728 29.9611L59.9315 20.2287L59.9315 31.6912L61.8853 35.1516L57.1095 72.3508L52.7678 88.1388L41.4796 101.115Z" fill="#726242"/>
</g>
<defs>
<filter id="filter0_i_422_116" x="0.885254" y="0.115234" width="61" height="105" filterUnits="userSpaceOnUse" color-interpolation-filters="sRGB">
<feFlood flood-opacity="0" result="BackgroundImageFix"/>
<feBlend mode="normal" in="SourceGraphic" in2="BackgroundImageFix" result="shape"/>
<feColorMatrix in="SourceAlpha" type="matrix" values="0 0 0 0 0 0 0 0 0 0 0 0 0 0 0 0 0 0 127 0" result="hardAlpha"/>
<feOffset dy="4"/>
<feGaussianBlur stdDeviation="2"/>
<feComposite in2="hardAlpha" operator="arithmetic" k2="-1" k3="1"/>
<feColorMatrix type="matrix" values="0 0 0 0 0 0 0 0 0 0 0 0 0 0 0 0 0 0 0.25 0"/>
<feBlend mode="normal" in2="shape" result="effect1_innerShadow_422_116"/>
</filter>
</defs>
</svg>
