<svg width="62" height="102" viewBox="0 0 62 102" fill="none" xmlns="http://www.w3.org/2000/svg">
<g filter="url(#filter0_i_422_120)">
<path d="M41.424 101.086L25.3599 101.086L12.118 88.11L7.34215 72.322L4.30301 61.5083L1.48095 45.0714L0.829706 35.7716L0.829706 32.7438L3.00052 29.9322L6.47384 20.1999L8.21049 29.9322L12.118 31.6624L17.3279 44.6389C18.1962 49.6132 20.0632 59.7348 20.5841 60.4269C21.1051 61.119 23.2615 61.4362 24.2745 61.5083L23.8404 31.6624L25.36 11.3327L27.3137 8.73739L29.2674 0.0864308L30.3528 8.73739L32.7407 9.60249L35.997 18.9023L39.2532 31.6624L39.9044 62.1571L43.3777 60.4269L46.634 44.6389L50.9756 31.6624L55.3172 29.9323L59.876 20.1999L59.876 31.6624L61.8297 35.1228L57.0539 72.322L52.7123 88.11L41.424 101.086Z" fill="#0688B8"/>
</g>
<defs>
<filter id="filter0_i_422_120" x="0.829712" y="0.0864258" width="61" height="105" filterUnits="userSpaceOnUse" color-interpolation-filters="sRGB">
<feFlood flood-opacity="0" result="BackgroundImageFix"/>
<feBlend mode="normal" in="SourceGraphic" in2="BackgroundImageFix" result="shape"/>
<feColorMatrix in="SourceAlpha" type="matrix" values="0 0 0 0 0 0 0 0 0 0 0 0 0 0 0 0 0 0 127 0" result="hardAlpha"/>
<feOffset dy="4"/>
<feGaussianBlur stdDeviation="2"/>
<feComposite in2="hardAlpha" operator="arithmetic" k2="-1" k3="1"/>
<feColorMatrix type="matrix" values="0 0 0 0 0 0 0 0 0 0 0 0 0 0 0 0 0 0 0.25 0"/>
<feBlend mode="normal" in2="shape" result="effect1_innerShadow_422_120"/>
</filter>
</defs>
</svg>
