<svg xmlns="http://www.w3.org/2000/svg" width="1418" height="1490" fill="none" xmlns:v="https://vecta.io/nano"><path d="M1337.61 389.667l15.45 4.262 9.29 15.993.41 16.45.05 11.206-1.65 16.557-1.84 9.116-.8 2.912-2.83 2.128-5.93 8.439.92-9.821-3.3-2.701-1.57-13.861c.48-5.015 1.37-15.244 1.06-16.048-.32-.804-2.31-1.681-3.27-2.019l-7.5 28.819-6.85 19.148-2.57 1.978-4.17 7.801 1.25-8.608-2.07-1.465-.66-9.808.25-13.136 7.46-29.5-3.8.743-7.32 14.32-7.61 11.327-4.64.513-6.96 8.15 3.04-11.024-.96-3.846 14.46-34.508 8.36-14.032 14.3-9.485z" fill="#72c176"/><path d="M1227.45 899.037l14.29 7.268 5.9 17.529-2.9 16.199-2.19 10.99-4.93 15.891-3.62 8.564-1.37 2.692-3.21 1.518-7.49 7.082 2.86-9.439-2.69-3.307 1.24-13.895c1.48-4.816 4.4-14.66 4.25-15.511s-1.93-2.109-2.8-2.631l-13.11 26.734-10.55 17.389-2.91 1.423-5.65 6.808 2.94-8.183-1.73-1.849 1.31-9.743 2.88-12.819 13.22-27.409-3.87-.033-10.04 12.565-9.73 9.574-4.64-.426-8.46 6.591 5.19-10.192-.18-3.961 21.08-30.915 11-12.073 15.91-6.431z" fill="#2e7d32"/><path d="M1024.01 1086.87l8.25 13.74-4.31 17.99-11.06 12.19-7.69 8.15-12.615 10.84-7.623 5.33-2.59 1.56-3.52-.42-10.108 2.02 7.435-6.48-.525-4.23 8.429-11.11c3.811-3.3 11.512-10.09 11.837-10.89.33-.8-.51-2.81-.968-3.71l-25.313 15.68-18.173 9.14-3.223-.34-8.404 2.76 6.845-5.36-.485-2.49 6.285-7.56 9.247-9.33 25.756-16.21-3.263-2.08-15.178 5.31-13.33 2.95-3.708-2.83-10.666 1.1 9.807-5.89 1.958-3.44 34.277-15.01 15.736-4.38 16.89 3z" fill="#726242"/><path d="M388.08 1139.39l8.764 13.41-3.615 18.14-10.582 12.61-7.374 8.44-12.189 11.32-7.413 5.62-2.529 1.65-3.532-.28-10.024 2.41 7.181-6.76-.686-4.21 7.996-11.43c3.681-3.44 11.117-10.52 11.411-11.33.294-.82-.618-2.79-1.11-3.68l-24.693 16.65-17.809 9.82-3.234-.22-8.292 3.09 6.634-5.62-.58-2.47 5.991-7.79 8.882-9.69 25.116-17.18-3.34-1.95-14.964 5.89-13.207 3.45-3.814-2.68-10.616 1.5 9.574-6.25 1.825-3.52 33.676-16.31 15.556-4.98 16.997 2.35z" fill="#96cbce"/><path d="M232.915 1312.59l12.82 9.62 2.799 18.28-5.641 15.46-4.049 10.45-7.588 14.81-5.048 7.81-1.813 2.41-3.415.95-8.599 5.69 4.441-8.81-2.083-3.72 3.611-13.48c2.285-4.49 6.855-13.68 6.854-14.55-.002-.86-1.533-2.4-2.298-3.07l-17.522 24.08-13.383 15.31-3.113.91-6.739 5.73 4.313-7.55-1.387-2.12 2.969-9.37 5.04-12.14 17.737-24.72-3.807-.7-12.051 10.65-11.234 7.76-4.5-1.22-9.465 5.03 6.863-9.14.512-3.93 26.082-26.83 12.917-10 16.777-3.6zM1057.6 927.092l7 14.415-5.87 17.54-12.08 11.169-8.38 7.441-13.52 9.699-8.06 4.638-2.72 1.32-3.47-.722-10.25 1.127 7.98-5.802-.15-4.26 9.37-10.333c4.09-2.948 12.36-9.036 12.75-9.805s-.26-2.843-.64-3.783l-26.59 13.402-18.906 7.499-3.181-.621-8.615 2.018 7.29-4.746-.265-2.52 6.926-6.976 10.03-8.485 27.081-13.879-3.07-2.363-15.58 3.962-13.541 1.761-3.446-3.142-10.72.153 10.285-4.998 2.254-3.261 35.458-11.933 16.06-2.987 16.57 4.472z" fill="#32999f"/><path d="M403.697 984.979l9.176 13.139-3.05 18.242-10.185 12.93-7.109 8.66-11.831 11.7-7.235 5.84-2.476 1.73-3.54-.17-9.944 2.72 6.968-6.98-.817-4.18 7.638-11.68c3.572-3.55 10.784-10.86 11.053-11.68s-.704-2.77-1.224-3.64l-24.163 17.41-17.496 10.37-3.239-.12-8.192 3.35 6.456-5.83-.657-2.45 5.747-7.98 8.577-9.95 24.57-17.95-3.399-1.85-14.774 6.35-13.094 3.86-3.895-2.56-10.564 1.83 9.375-6.55 1.715-3.57 33.154-17.344 15.393-5.468 17.062 1.821z" fill="#72c176"/><path d="M205.647 1153.46l12.228 10.36 1.711 18.42-6.546 15.09-4.66 10.2-8.452 14.33-5.501 7.5-1.953 2.3-3.465.74-8.92 5.17 4.954-8.53-1.859-3.84 4.403-13.23c2.547-4.35 7.653-13.26 7.703-14.12s-1.388-2.5-2.112-3.2l-18.917 22.99-14.267 14.5-3.161.71-7.066 5.33 4.753-7.28-1.26-2.2 3.519-9.18 5.75-11.82 19.17-23.63-3.76-.92-12.66 9.92-11.673 7.08-4.421-1.49-9.746 4.47 7.392-8.72.745-3.9 27.624-25.23 13.486-9.22 16.961-2.6z" fill="#2e7d32"/><path d="M54.218 1381.13l15.02 5.59 7.867 16.74-1.027 16.43-.92 11.16-3.08 16.35-2.626 8.93-1.053 2.83-3.008 1.87-6.634 7.89 1.762-9.7-3.052-2.98-.357-13.94c.919-4.96 2.695-15.07 2.448-15.9s-2.152-1.87-3.074-2.29l-9.978 28.05-8.494 18.48-2.73 1.75-4.836 7.41 1.995-8.47-1.932-1.64.191-9.83 1.395-13.06 10-28.74-3.85.41-8.537 13.63-8.574 10.62-4.661.11-7.648 7.51 3.988-10.71-.623-3.92 17.407-33.12 9.552-13.25 15.069-8.21z" fill="#726242"/><path d="M1378.88 143.942l15.48 4.147 9.41 15.924.52 16.448.14 11.205-1.53 16.568-1.77 9.13-.78 2.918-2.82 2.148-5.86 8.482.84-9.827-3.32-2.676-1.67-13.85c.45-5.018 1.26-15.253.94-16.055s-2.32-1.664-3.28-1.995l-7.29 28.873-6.71 19.198-2.55 1.997-4.12 7.832 1.19-8.617-2.08-1.45-.74-9.803.16-13.137 7.25-29.554-3.8.771-7.21 14.373-7.53 11.384-4.64.546-6.9 8.201 2.96-11.046-.99-3.839 14.21-34.613 8.26-14.093 14.23-9.59z" fill="#96cbce"/><path d="M1329.99 5.269l15.48 4.148 9.41 15.924.53 16.447.13 11.205-1.52 16.568-1.78 9.13-.78 2.918-2.82 2.149-5.86 8.482.84-9.827-3.31-2.676-1.67-13.85c.44-5.018 1.26-15.253.93-16.055-.32-.801-2.32-1.664-3.27-1.995l-7.29 28.873-6.71 19.198-2.56 1.996-4.11 7.832 1.18-8.616-2.07-1.45-.74-9.802.16-13.137 7.24-29.554-3.79.77-7.22 14.373-7.53 11.384-4.63.546-6.91 8.201 2.96-11.046-.99-3.839 14.21-34.614 8.26-14.093 14.23-9.59z" fill="#2e7d32"/></svg>