<svg width="62" height="102" viewBox="0 0 62 102" fill="none" xmlns="http://www.w3.org/2000/svg">
<g filter="url(#filter0_i_422_115)">
<path d="M41.3951 101.427L25.331 101.427L12.089 88.4508L7.31322 72.6628L4.27408 61.8491L1.45202 45.4123L0.800775 36.1125L0.800776 33.0846L2.97159 30.2731L6.44491 20.5407L8.18156 30.2731L12.089 32.0033L17.299 44.9797C18.1673 49.954 20.0342 60.0756 20.5552 60.7677C21.0762 61.4598 23.2326 61.777 24.2456 61.8491L23.8115 32.0033L25.331 11.6735L27.2848 9.07821L29.2385 0.427251L30.3239 9.07821L32.7118 9.94331L35.968 19.2431L39.2243 32.0033L39.8755 62.4979L43.3488 60.7677L46.605 44.9797L50.9467 32.0033L55.2883 30.2731L59.847 20.5407L59.847 32.0033L61.8008 35.4637L57.025 72.6628L52.6833 88.4508L41.3951 101.427Z" fill="#32999F"/>
</g>
<defs>
<filter id="filter0_i_422_115" x="0.800781" y="0.427246" width="61" height="105" filterUnits="userSpaceOnUse" color-interpolation-filters="sRGB">
<feFlood flood-opacity="0" result="BackgroundImageFix"/>
<feBlend mode="normal" in="SourceGraphic" in2="BackgroundImageFix" result="shape"/>
<feColorMatrix in="SourceAlpha" type="matrix" values="0 0 0 0 0 0 0 0 0 0 0 0 0 0 0 0 0 0 127 0" result="hardAlpha"/>
<feOffset dy="4"/>
<feGaussianBlur stdDeviation="2"/>
<feComposite in2="hardAlpha" operator="arithmetic" k2="-1" k3="1"/>
<feColorMatrix type="matrix" values="0 0 0 0 0 0 0 0 0 0 0 0 0 0 0 0 0 0 0.25 0"/>
<feBlend mode="normal" in2="shape" result="effect1_innerShadow_422_115"/>
</filter>
</defs>
</svg>
