<svg width="295" height="104" viewBox="0 0 295 104" fill="none" xmlns="http://www.w3.org/2000/svg">
<path d="M44.5648 51.5578L76.7215 66.7089L80.9075 67.2228M44.5648 51.5578L29.4334 56.3618H9.75024L2 51.5578L3.47624 40.8411C9.75024 35.5034 22.6427 24.5568 24.0205 23.4728L29.4334 11.6476L30.0485 21.0093L44.5648 22.3642L61.0494 15.5894L54.6524 23.4728H56.9898M44.5648 51.5578C44.5648 50.7695 48.3374 48.3551 50.2237 47.2465H61.0494L52.192 40.8411M132.893 61.6585L126.982 74.4692M99.8007 69.542V74.4692L92.4664 95.4262M99.8007 69.542L106.706 71.5129M99.8007 69.542L80.9075 67.2228M110.011 63.999L106.706 71.5129M106.706 71.5129L102.261 83.3381L92.4664 95.4262M177.303 63.999C177.303 63.999 175.089 63.8758 171.89 66.7089C168.692 69.542 148.412 74.4692 148.412 74.4692H126.982M177.303 63.999L173.12 57.7168M177.303 63.999L184.069 75.8242L175.219 93.2226M56.9898 23.4728C56.9898 23.4728 101.031 0.930975 137.076 2.03959C173.12 3.14821 195.51 17.437 195.51 17.437L223.215 34.5587L268.745 52.6285V46.2167L276.58 43.9624L283.999 46.2167L293 55.8213V66.7089L285.702 69.542L276.58 66.7089L274.158 61.6585H268.745L226.864 51.5578L196.986 47.2465L206.459 74.7156L196.986 100.46L170.66 102.185L175.219 93.2226M56.9898 23.4728L74.4586 26.306M126.982 74.4692L123.622 81.7532L117.175 95.4262L116.697 98.6124L116.162 102.185H85.2843L89.8846 98.6124L92.4664 95.4262M92.4664 95.4262L68.5925 96.8715L78.1708 81.7532L80.9075 67.2228M165.677 69.542L170.66 75.8242L161.64 93.2226H175.219" stroke="#171A1C" stroke-width="3"/>
<path d="M86.2511 18.6895C88.1941 18.1248 89.9829 17.9679 91.2759 18.1191C91.9256 18.195 92.3746 18.3405 92.6442 18.4882C92.7938 18.5702 92.8538 18.6328 92.8754 18.661C92.8724 18.6961 92.8558 18.7818 92.7731 18.9318C92.6246 19.2009 92.3231 19.5636 91.8155 19.9758C90.8049 20.7965 89.2107 21.6227 87.2676 22.1874C85.3245 22.752 83.5357 22.909 82.2428 22.7578C81.5933 22.6818 81.1442 22.5372 80.8747 22.3896C80.7243 22.3071 80.6645 22.2438 80.6432 22.2158C80.6463 22.1805 80.6635 22.0954 80.7458 21.946C80.8942 21.6769 81.1954 21.3133 81.7032 20.901C82.7137 20.0804 84.308 19.2542 86.2511 18.6895Z" stroke="#171A1C" stroke-width="3"/>
<path d="M104.489 27.1965C106.43 26.8442 108.179 26.8723 109.414 27.1481C110.035 27.2867 110.452 27.472 110.694 27.6392C110.81 27.7194 110.862 27.7779 110.884 27.8083C110.874 27.8443 110.847 27.9178 110.766 28.0341C110.598 28.2758 110.272 28.595 109.74 28.9429C108.68 29.6353 107.053 30.2763 105.112 30.6287C103.171 30.9811 101.421 30.9532 100.186 30.6774C99.5657 30.5389 99.1491 30.3542 98.9069 30.187C98.7899 30.1062 98.7369 30.0476 98.7153 30.0173C98.7249 29.9814 98.7542 29.9087 98.8352 29.7921C99.0031 29.5505 99.3278 29.2304 99.8601 28.8825C100.92 28.1901 102.548 27.549 104.489 27.1965Z" stroke="#171A1C" stroke-width="3"/>
<path d="M127.602 40.3568C129.611 40.1169 131.402 40.254 132.653 40.6142C133.281 40.7952 133.701 41.012 133.942 41.2017C134.077 41.3069 134.126 41.3785 134.142 41.4099C134.134 41.444 134.103 41.5258 133.997 41.6603C133.807 41.9016 133.45 42.2103 132.882 42.5341C131.751 43.1788 130.043 43.7337 128.034 43.9737C126.025 44.2137 124.235 44.0766 122.984 43.7164C122.355 43.5354 121.936 43.3195 121.694 43.1298C121.559 43.0239 121.51 42.9517 121.494 42.9206C121.503 42.8863 121.534 42.8052 121.639 42.6712C121.83 42.4299 122.186 42.1204 122.754 41.7964C123.885 41.1518 125.593 40.5968 127.602 40.3568Z" stroke="#171A1C" stroke-width="3"/>
<mask id="path-5-inside-1_817_133" fill="white">
<ellipse cx="94.074" cy="52.7329" rx="6.65577" ry="2.8079" transform="rotate(-14.4415 94.074 52.7329)"/>
</mask>
<path d="M100.519 51.073L97.6143 51.8212C97.4537 51.1977 97.678 50.7775 97.7042 50.7333C97.722 50.7032 97.6387 50.844 97.3082 51.096C96.6576 51.5919 95.5143 52.1636 94.0261 52.5468L94.7743 55.452L95.5225 58.3573C97.594 57.8238 99.5167 56.9568 100.945 55.8678C101.655 55.3273 102.364 54.6392 102.867 53.7904C103.378 52.9276 103.779 51.6991 103.425 50.3248L100.519 51.073ZM94.7743 55.452L94.0261 52.5468C92.538 52.9301 91.2607 52.9817 90.4515 52.8618C90.0404 52.8008 89.8994 52.7177 89.9296 52.7355C89.9738 52.7615 90.3732 53.0211 90.5338 53.6446L87.6286 54.3928L84.7234 55.1409C85.0773 56.5153 86.0216 57.3973 86.8857 57.906C87.7358 58.4064 88.6896 58.6662 89.5716 58.7969C91.3487 59.0603 93.4509 58.8907 95.5225 58.3573L94.7743 55.452ZM87.6286 54.3928L90.5338 53.6446C90.6943 54.268 90.47 54.6883 90.4439 54.7325C90.426 54.7626 90.5093 54.6217 90.8398 54.3698C91.4905 53.8739 92.6338 53.3021 94.1219 52.9189L93.3738 50.0137L92.6256 47.1085C90.554 47.642 88.6314 48.5089 87.2026 49.5979C86.4935 50.1384 85.7837 50.8266 85.2811 51.6753C84.7702 52.5381 84.3694 53.7666 84.7234 55.1409L87.6286 54.3928ZM93.3738 50.0137L94.1219 52.9189C95.6101 52.5357 96.8874 52.484 97.6966 52.604C98.1077 52.6649 98.2486 52.748 98.2185 52.7303C98.1742 52.7042 97.7748 52.4446 97.6143 51.8212L100.519 51.073L103.425 50.3248C103.071 48.9505 102.126 48.0684 101.262 47.5597C100.412 47.0593 99.4585 46.7996 98.5764 46.6688C96.7994 46.4054 94.6972 46.575 92.6256 47.1085L93.3738 50.0137Z" fill="#171A1C" mask="url(#path-5-inside-1_817_133)"/>
<path d="M77.8858 36.8965C79.8288 36.3319 81.6176 36.175 82.9106 36.3261C83.5603 36.4021 84.0094 36.5475 84.2789 36.6952C84.4285 36.7772 84.4886 36.8398 84.5102 36.8681C84.5071 36.9032 84.4905 36.9888 84.4078 37.1388C84.2594 37.4079 83.9578 37.7707 83.4502 38.1829C82.4396 39.0035 80.8454 39.8297 78.9023 40.3944C76.9592 40.959 75.1704 41.116 73.8775 40.9648C73.228 40.8888 72.7789 40.7443 72.5094 40.5966C72.359 40.5142 72.2992 40.4508 72.2779 40.4229C72.281 40.3876 72.2982 40.3024 72.3805 40.153C72.5289 39.8839 72.8302 39.5203 73.3379 39.108C74.3484 38.2874 75.9427 37.4612 77.8858 36.8965Z" stroke="#171A1C" stroke-width="3"/>
<path d="M113.055 10.474C115.105 10.1182 116.952 10.1572 118.259 10.4536C118.916 10.6025 119.362 10.7995 119.624 10.9809C119.771 11.0832 119.826 11.1559 119.845 11.1873C119.838 11.2229 119.811 11.3095 119.706 11.4562C119.521 11.7154 119.168 12.0518 118.6 12.4135C117.469 13.1332 115.743 13.7926 113.693 14.1485C111.643 14.5045 109.796 14.4655 108.488 14.1691C107.831 14.0201 107.386 13.8224 107.124 13.6408C106.975 13.5377 106.92 13.4656 106.902 13.4346C106.909 13.3989 106.936 13.3121 107.041 13.1655C107.227 12.9064 107.58 12.5708 108.148 12.2092C109.279 11.4895 111.005 10.83 113.055 10.474Z" stroke="#171A1C" stroke-width="3"/>
<mask id="path-9-inside-2_817_133" fill="white">
<ellipse cx="132.236" cy="22.6893" rx="7.13" ry="2.99609" transform="rotate(-1.71892 132.236 22.6893)"/>
</mask>
<path d="M139.363 22.4754L136.365 22.5654C136.346 21.9436 136.649 21.6069 136.661 21.5941C136.662 21.5928 136.516 21.7341 136.095 21.926C135.265 22.3044 133.905 22.6353 132.236 22.6854L132.326 25.6841L132.416 28.6827C134.684 28.6146 136.867 28.1683 138.584 27.3853C139.436 26.9966 140.314 26.4613 141.015 25.7218C141.727 24.9707 142.405 23.8343 142.362 22.3855L139.363 22.4754ZM132.326 25.6841L132.236 22.6854C130.568 22.7355 129.19 22.4867 128.339 22.1588C127.908 21.9924 127.753 21.8601 127.754 21.8614C127.767 21.8734 128.09 22.1914 128.108 22.8132L125.11 22.9032L122.111 22.9932C122.154 24.442 122.899 25.5358 123.655 26.2428C124.399 26.9389 125.308 27.4206 126.182 27.7575C127.943 28.4361 130.148 28.7508 132.416 28.6827L132.326 25.6841ZM125.11 22.9032L128.108 22.8132C128.127 23.435 127.824 23.7717 127.812 23.7846C127.811 23.7858 127.957 23.6445 128.378 23.4526C129.208 23.0742 130.568 22.7433 132.237 22.6932L132.147 19.6946L132.057 16.6959C129.789 16.764 127.606 17.2104 125.889 17.9933C125.036 18.382 124.158 18.9173 123.457 19.6568C122.745 20.4079 122.067 21.5444 122.111 22.9932L125.11 22.9032ZM132.147 19.6946L132.237 22.6932C133.905 22.6432 135.283 22.8919 136.134 23.2198C136.565 23.3862 136.72 23.5185 136.719 23.5173C136.706 23.5052 136.383 23.1873 136.365 22.5654L139.363 22.4754L142.362 22.3855C142.318 20.9366 141.573 19.8429 140.818 19.1359C140.074 18.4397 139.165 17.958 138.291 17.6211C136.53 16.9425 134.324 16.6279 132.057 16.6959L132.147 19.6946Z" fill="#171A1C" mask="url(#path-9-inside-2_817_133)"/>
<mask id="path-11-inside-3_817_133" fill="white">
<ellipse cx="160.823" cy="40.9241" rx="6.70497" ry="2.82866" transform="rotate(1.37846 160.823 40.9241)"/>
</mask>
<path d="M167.526 41.0854L164.527 41.0132C164.543 40.3725 164.872 40.032 164.906 39.999C164.929 39.9773 164.807 40.0923 164.416 40.2464C163.646 40.5497 162.377 40.7901 160.828 40.7528L160.755 43.7519L160.683 46.751C162.835 46.8028 164.934 46.4909 166.614 45.8291C167.449 45.5006 168.323 45.0298 169.04 44.3478C169.769 43.6545 170.491 42.5792 170.526 41.1575L167.526 41.0854ZM160.755 43.7519L160.828 40.7528C159.278 40.7155 158.023 40.4144 157.268 40.0744C156.885 39.9017 156.768 39.7809 156.79 39.8037C156.823 39.8383 157.135 40.1942 157.12 40.8349L154.12 40.7628L151.121 40.6906C151.087 42.1122 151.756 43.2211 152.452 43.9487C153.135 44.6644 153.986 45.1766 154.803 45.5448C156.45 46.2867 158.531 46.6993 160.683 46.751L160.755 43.7519ZM154.12 40.7628L157.12 40.8349C157.104 41.4757 156.775 41.8162 156.741 41.8491C156.718 41.8708 156.84 41.7558 157.231 41.6018C158.001 41.2985 159.269 41.0581 160.819 41.0954L160.891 38.0962L160.964 35.0971C158.812 35.0453 156.713 35.3573 155.033 36.0191C154.198 36.3476 153.324 36.8183 152.607 37.5003C151.877 38.1936 151.155 39.269 151.121 40.6906L154.12 40.7628ZM160.891 38.0962L160.819 41.0954C162.369 41.1327 163.624 41.4338 164.379 41.7738C164.762 41.9465 164.879 42.0672 164.857 42.0444C164.824 42.0098 164.512 41.654 164.527 41.0132L167.526 41.0854L170.526 41.1575C170.56 39.7359 169.89 38.6271 169.195 37.8995C168.511 37.1838 167.661 36.6716 166.844 36.3033C165.197 35.5614 163.116 35.1489 160.964 35.0971L160.891 38.0962Z" fill="#171A1C" mask="url(#path-11-inside-3_817_133)"/>
<path d="M141.624 7.65251C143.637 7.86488 145.352 8.39636 146.492 9.02542C147.064 9.34155 147.425 9.64608 147.619 9.88478C147.726 10.0172 147.758 10.0979 147.767 10.1322C147.751 10.1636 147.703 10.2366 147.57 10.3441C147.331 10.5371 146.915 10.7588 146.289 10.9483C145.043 11.3257 143.255 11.4873 141.242 11.275C139.23 11.0626 137.515 10.5311 136.375 9.90206C135.803 9.58602 135.442 9.28232 135.248 9.04367C135.14 8.91045 135.108 8.8292 135.099 8.79526C135.116 8.76377 135.164 8.69147 135.296 8.58431C135.536 8.39131 135.952 8.16874 136.578 7.97914C137.824 7.60183 139.612 7.44016 141.624 7.65251Z" stroke="#171A1C" stroke-width="3"/>
<path d="M162.632 22.6546C164.438 22.9616 165.95 23.5397 166.933 24.1662C167.427 24.4811 167.723 24.7677 167.873 24.9777C167.913 25.0347 167.937 25.0784 167.951 25.109C167.928 25.1331 167.891 25.1671 167.834 25.2078C167.623 25.3566 167.249 25.5292 166.678 25.6632C165.544 25.9299 163.926 25.9758 162.12 25.669C160.314 25.362 158.801 24.7838 157.818 24.1572C157.324 23.8422 157.028 23.5557 156.878 23.3457C156.837 23.288 156.814 23.244 156.799 23.2133C156.823 23.1892 156.86 23.1562 156.918 23.1156C157.128 22.9667 157.502 22.7942 158.073 22.6601C159.207 22.3935 160.826 22.3476 162.632 22.6546Z" stroke="#171A1C" stroke-width="3"/>
<mask id="path-15-inside-4_817_133" fill="white">
<ellipse cx="169.43" cy="13.8808" rx="6.54546" ry="2.53552" transform="rotate(18.5688 169.43 13.8808)"/>
</mask>
<path d="M175.634 15.9652L172.791 15.0099C173.038 14.2728 173.566 14.017 173.616 13.9945C173.665 13.9731 173.527 14.0384 173.11 14.0573C172.297 14.0944 171.031 13.9288 169.578 13.4405L168.622 16.2844L167.667 19.1282C169.64 19.791 171.658 20.1296 173.383 20.0511C174.235 20.0124 175.179 19.8649 176.049 19.4794C176.921 19.0927 178.008 18.3213 178.478 16.9205L175.634 15.9652ZM168.622 16.2844L169.578 13.4405C168.124 12.9522 167.015 12.3202 166.389 11.7998C166.069 11.5329 165.998 11.3977 166.024 11.4439C166.05 11.4924 166.316 12.0147 166.069 12.7518L163.225 11.7965L160.381 10.8411C159.911 12.242 160.312 13.5132 160.773 14.3478C161.233 15.18 161.898 15.868 162.553 16.4132C163.881 17.5171 165.694 18.4653 167.667 19.1282L168.622 16.2844ZM163.225 11.7965L166.069 12.7518C165.821 13.4889 165.294 13.7447 165.243 13.7671C165.195 13.7885 165.333 13.7233 165.75 13.7043C166.563 13.6673 167.828 13.8328 169.282 14.3211L170.237 11.4773L171.192 8.63348C169.219 7.97062 167.202 7.63201 165.477 7.71052C164.625 7.7493 163.68 7.89673 162.811 8.28229C161.939 8.66892 160.852 9.44032 160.381 10.8411L163.225 11.7965ZM170.237 11.4773L169.282 14.3211C170.735 14.8094 171.844 15.4414 172.47 15.9619C172.791 16.2287 172.861 16.364 172.836 16.3178C172.809 16.2693 172.543 15.747 172.791 15.0099L175.634 15.9652L178.478 16.9205C178.949 15.5197 178.548 14.2484 178.086 13.4139C177.626 12.5816 176.962 11.8937 176.306 11.3484C174.979 10.2446 173.166 9.29634 171.192 8.63348L170.237 11.4773Z" fill="#171A1C" mask="url(#path-15-inside-4_817_133)"/>
<mask id="path-17-inside-5_817_133" fill="white">
<ellipse cx="190.117" cy="32.3637" rx="6.76849" ry="2.85546" transform="rotate(15.0772 190.117 32.3637)"/>
</mask>
<path d="M196.653 34.1244L193.756 33.344C193.922 32.7287 194.319 32.4787 194.357 32.4572C194.38 32.4438 194.229 32.5281 193.806 32.586C192.974 32.7 191.669 32.632 190.155 32.2242L189.375 35.1209L188.594 38.0176C190.69 38.5822 192.819 38.7773 194.62 38.5306C195.515 38.4081 196.481 38.1562 197.343 37.6612C198.22 37.1581 199.179 36.2814 199.549 34.9047L196.653 34.1244ZM189.375 35.1209L190.155 32.2242C188.641 31.8163 187.478 31.2195 186.816 30.7028C186.479 30.4404 186.391 30.2915 186.404 30.3148C186.426 30.3523 186.644 30.7682 186.479 31.3835L183.582 30.6031L180.685 29.8227C180.314 31.1994 180.703 32.4391 181.208 33.3145C181.705 34.1758 182.414 34.8788 183.126 35.434C184.56 36.5524 186.499 37.4531 188.594 38.0176L189.375 35.1209ZM183.582 30.6031L186.479 31.3835C186.313 31.9988 185.915 32.2487 185.878 32.2703C185.854 32.2837 186.005 32.1993 186.428 32.1414C187.261 32.0275 188.566 32.0955 190.08 32.5033L190.86 29.6066L191.64 26.7098C189.545 26.1453 187.416 25.9502 185.614 26.1969C184.72 26.3194 183.754 26.5713 182.891 27.0662C182.015 27.5693 181.056 28.4461 180.685 29.8227L183.582 30.6031ZM190.86 29.6066L190.08 32.5033C191.594 32.9111 192.756 33.508 193.419 34.0247C193.755 34.2871 193.844 34.436 193.83 34.4126C193.808 34.3751 193.59 33.9593 193.756 33.344L196.653 34.1244L199.549 34.9047C199.92 33.5281 199.532 32.2884 199.026 31.4129C198.529 30.5517 197.821 29.8486 197.109 29.2935C195.675 28.1751 193.736 27.2744 191.64 26.7098L190.86 29.6066Z" fill="#171A1C" mask="url(#path-17-inside-5_817_133)"/>
<mask id="path-19-inside-6_817_133" fill="white">
<ellipse cx="194.371" cy="22.4499" rx="5.50024" ry="2.32041" transform="rotate(12.5629 194.371 22.4499)"/>
</mask>
<path d="M199.74 23.6462L196.811 22.9937C196.966 22.2996 197.402 21.9715 197.515 21.8998C197.615 21.8369 197.571 21.8917 197.273 21.9458C196.692 22.0516 195.707 22.0514 194.519 21.7866L193.866 24.7147L193.214 27.6429C194.99 28.0388 196.803 28.1298 198.347 27.8489C199.113 27.7096 199.964 27.4516 200.727 26.9678C201.504 26.4753 202.374 25.6183 202.668 24.2988L199.74 23.6462ZM193.866 24.7147L194.519 21.7866C193.33 21.5217 192.439 21.1039 191.957 20.7611C191.711 20.586 191.695 20.5176 191.758 20.6167C191.83 20.7297 192.085 21.212 191.931 21.906L189.003 21.2535L186.074 20.601C185.78 21.9205 186.204 23.0655 186.698 23.8415C187.184 24.6037 187.845 25.1985 188.479 25.6497C189.757 26.5597 191.437 27.247 193.214 27.6429L193.866 24.7147ZM189.003 21.2535L191.931 21.906C191.776 22.6001 191.34 22.9282 191.227 23C191.127 23.0629 191.172 23.008 191.469 22.954C192.05 22.8482 193.035 22.8483 194.223 23.1132L194.876 20.185L195.528 17.2568C193.752 16.861 191.939 16.7699 190.395 17.0509C189.629 17.1902 188.778 17.4481 188.015 17.9319C187.238 18.4245 186.368 19.2815 186.074 20.601L189.003 21.2535ZM194.876 20.185L194.223 23.1132C195.412 23.378 196.303 23.7959 196.785 24.1386C197.031 24.3138 197.048 24.3822 196.984 24.283C196.912 24.1701 196.657 23.6878 196.811 22.9937L199.74 23.6462L202.668 24.2988C202.962 22.9793 202.539 21.8342 202.044 21.0583C201.558 20.2961 200.898 19.7013 200.264 19.2501C198.985 18.3401 197.305 17.6527 195.528 17.2568L194.876 20.185Z" fill="#171A1C" mask="url(#path-19-inside-6_817_133)"/>
</svg>
