<svg xmlns="http://www.w3.org/2000/svg" width="295" height="104" fill="none" xmlns:v="https://vecta.io/nano"><g stroke="#fff" stroke-width="3"><path d="M44.565 51.558l32.157 15.151 4.186.514M44.565 51.558l-15.131 4.804H9.75L2 51.558l1.476-10.717L24.02 23.473l5.413-11.825.615 9.362 14.516 1.355 16.485-6.775-6.397 7.883h2.337M44.565 51.558c0-.788 3.773-3.203 5.659-4.311H61.05l-8.857-6.405m80.701 20.817l-5.911 12.811m-27.181-4.927v4.927l-7.334 20.957m7.334-25.884l6.905 1.971m-6.905-1.971l-18.893-2.319M110.012 64l-3.305 7.514m0 0l-4.445 11.825-9.795 12.088M177.304 64s-2.214-.123-5.413 2.71-23.478 7.76-23.478 7.76h-21.43M177.304 64l-4.183-6.282M177.304 64l6.766 11.825-8.85 17.398M56.99 23.473S101.031.931 137.076 2.04s58.434 15.397 58.434 15.397l27.705 17.122 45.53 18.07v-6.412l7.835-2.254 7.419 2.254L293 55.821v10.888l-7.298 2.833-9.122-2.833-2.422-5.05h-5.413l-41.881-10.101-29.878-4.311 9.473 27.469-9.473 25.744-26.326 1.725 4.559-8.962M56.99 23.473l17.469 2.833m52.523 48.163l-3.36 7.284-6.447 13.673-.478 3.186-.535 3.573H85.284l4.6-3.573 2.582-3.186m0 0l-23.874 1.445 9.578-15.118 2.737-14.53m84.77 2.319l4.983 6.282-9.02 17.398h13.579M86.251 18.69c1.943-.565 3.732-.722 5.025-.57.65.076 1.099.221 1.368.369a.72.72 0 0 1 .231.173.74.74 0 0 1-.102.271c-.148.269-.45.632-.958 1.044-1.011.821-2.605 1.647-4.548 2.212s-3.732.722-5.025.57c-.65-.076-1.099-.221-1.368-.368-.15-.083-.21-.146-.232-.174a.73.73 0 0 1 .103-.27c.148-.269.45-.633.957-1.045 1.011-.821 2.605-1.647 4.548-2.212z"/><path d="M104.489 27.197c1.941-.352 3.69-.324 4.925-.048.621.139 1.038.324 1.28.491a.78.78 0 0 1 .19.169c-.01.036-.037.11-.118.226-.168.242-.494.561-1.026.909-1.06.692-2.687 1.333-4.628 1.686s-3.691.325-4.926.049c-.62-.138-1.037-.323-1.279-.49a.78.78 0 0 1-.192-.17.79.79 0 0 1 .12-.225c.168-.242.492-.562 1.025-.91 1.06-.692 2.688-1.334 4.629-1.686zm23.113 13.16c2.009-.24 3.8-.103 5.051.257.628.181 1.048.398 1.289.588.135.105.184.177.2.208-.008.034-.039.116-.145.25-.19.241-.547.55-1.115.874-1.131.645-2.839 1.2-4.848 1.44s-3.799.103-5.05-.257c-.629-.181-1.048-.397-1.29-.587a.72.72 0 0 1-.2-.209c.009-.034.04-.115.145-.249.191-.241.547-.551 1.115-.875 1.131-.645 2.839-1.2 4.848-1.44z"/></g><mask id="A" fill="#fff"><ellipse cx="94.074" cy="52.733" rx="6.656" ry="2.808" transform="rotate(345.559 94.074 52.733)"/></mask><path d="M100.52 51.073l-2.906.748c-.16-.623.064-1.044.09-1.088.018-.03-.065.111-.396.363-.651.496-1.794 1.068-3.282 1.451l.748 2.905.748 2.905c2.072-.534 3.994-1.401 5.422-2.489.71-.541 1.419-1.229 1.922-2.077.511-.863.912-2.091.558-3.466l-2.905.748zm-5.746 4.379l-.748-2.905c-1.488.383-2.766.435-3.575.315-.411-.061-.552-.144-.522-.126.044.026.444.286.604.909l-2.905.748-2.905.748c.354 1.374 1.298 2.256 2.162 2.765.85.5 1.804.76 2.686.891 1.777.263 3.879.094 5.951-.44l-.748-2.905zm-7.146-1.059l2.905-.748c.161.623-.064 1.044-.09 1.088-.018.03.066-.111.396-.363.651-.496 1.794-1.068 3.282-1.451l-.748-2.905-.748-2.905c-2.072.534-3.994 1.4-5.423 2.489-.709.54-1.419 1.229-1.921 2.077-.511.863-.912 2.091-.558 3.466l2.905-.748zm5.745-4.379l.748 2.905c1.488-.383 2.765-.435 3.575-.315.411.061.552.144.522.126-.044-.026-.444-.286-.604-.909l2.906-.748 2.905-.748c-.354-1.374-1.298-2.256-2.163-2.765-.85-.5-1.803-.76-2.686-.891-1.777-.263-3.879-.094-5.951.44l.748 2.905z" fill="#fff" mask="url(#A)"/><path d="M77.886 36.897c1.943-.565 3.732-.722 5.025-.57.65.076 1.099.221 1.368.369a.72.72 0 0 1 .231.173.74.74 0 0 1-.102.271c-.148.269-.45.632-.958 1.044-1.011.821-2.605 1.647-4.548 2.212s-3.732.722-5.025.57c-.649-.076-1.099-.22-1.368-.368a.73.73 0 0 1-.231-.174.73.73 0 0 1 .103-.27c.148-.269.45-.633.957-1.045 1.011-.821 2.605-1.647 4.548-2.211zm35.169-26.423c2.05-.356 3.897-.317 5.204-.02.657.149 1.103.346 1.365.527.147.102.202.175.221.206-.007.036-.034.122-.139.269-.185.259-.538.596-1.106.957-1.131.72-2.857 1.379-4.907 1.735s-3.897.317-5.205.021c-.657-.149-1.102-.347-1.364-.528-.149-.103-.204-.175-.222-.206.007-.036.035-.123.139-.269.186-.259.539-.595 1.107-.956 1.131-.72 2.857-1.379 4.907-1.735z" stroke="#fff" stroke-width="3"/><mask id="B" fill="#fff"><ellipse cx="132.236" cy="22.689" rx="7.13" ry="2.996" transform="rotate(358.281 132.236 22.689)"/></mask><path d="M139.363 22.475l-2.998.09c-.019-.622.284-.959.296-.971.001-.001-.145.14-.566.332-.83.378-2.19.709-3.859.759l.09 2.999.09 2.999c2.268-.068 4.451-.514 6.168-1.297.852-.389 1.73-.924 2.431-1.663.712-.751 1.39-1.888 1.347-3.336l-2.999.09zm-7.037 3.209l-.09-2.999c-1.668.05-3.046-.199-3.897-.527-.431-.166-.586-.299-.585-.297.013.012.336.33.354.952l-2.998.09-2.999.09c.043 1.449.788 2.543 1.544 3.25.744.696 1.653 1.178 2.527 1.515 1.761.679 3.967.993 6.234.925l-.09-2.999zm-7.216-2.781l2.998-.09c.019.622-.284.959-.296.971-.001.001.145-.14.566-.332.83-.378 2.19-.709 3.859-.759l-.09-2.999-.09-2.999c-2.268.068-4.451.514-6.168 1.297-.853.389-1.731.924-2.432 1.663-.711.751-1.389 1.888-1.346 3.336l2.999-.09zm7.037-3.209l.09 2.999c1.668-.05 3.046.199 3.897.527.431.166.586.299.585.297-.013-.012-.336-.33-.354-.952l2.998-.09 2.999-.09c-.044-1.449-.789-2.543-1.544-3.25-.744-.696-1.653-1.178-2.527-1.515-1.761-.679-3.967-.993-6.234-.925l.09 2.999z" fill="#fff" mask="url(#B)"/><mask id="C" fill="#fff"><ellipse cx="160.823" cy="40.924" rx="6.705" ry="2.829" transform="rotate(1.378 160.823 40.924)"/></mask><path d="M167.526 41.085l-2.999-.072c.016-.641.345-.981.379-1.014.023-.022-.099.093-.49.247-.77.303-2.039.544-3.588.506l-.073 2.999-.072 2.999c2.152.052 4.251-.26 5.931-.922.835-.328 1.709-.799 2.426-1.481.729-.693 1.451-1.769 1.486-3.19l-3-.072zm-6.771 2.666l.073-2.999c-1.55-.037-2.805-.338-3.56-.678-.383-.173-.5-.293-.478-.271.033.035.345.391.33 1.031l-3-.072-2.999-.072c-.034 1.422.635 2.53 1.331 3.258.683.716 1.534 1.228 2.351 1.596 1.647.742 3.728 1.154 5.88 1.206l.072-2.999zm-6.635-2.989l3 .072c-.016.641-.345.981-.379 1.014-.023.022.099-.093.49-.247.77-.303 2.038-.544 3.588-.506l.073-2.999.072-2.999c-2.152-.052-4.251.26-5.931.922-.835.328-1.709.799-2.426 1.481-.73.693-1.451 1.769-1.486 3.19l2.999.072zm6.772-2.667l-.073 2.999c1.55.037 2.805.338 3.56.678.383.173.5.293.478.271-.033-.035-.345-.39-.33-1.031l2.999.072 3 .072c.034-1.422-.636-2.53-1.331-3.258-.684-.716-1.534-1.228-2.351-1.596-1.647-.742-3.728-1.154-5.88-1.206l-.072 2.999z" fill="#fff" mask="url(#C)"/><path d="M141.625 7.653c2.012.212 3.727.744 4.867 1.373.572.316.933.621 1.127.859.107.132.139.213.148.247a.73.73 0 0 1-.197.212c-.239.193-.655.415-1.281.604-1.246.377-3.034.539-5.047.327s-3.727-.744-4.867-1.373c-.572-.316-.933-.62-1.127-.858-.108-.133-.139-.214-.149-.248a.76.76 0 0 1 .197-.211c.24-.193.656-.416 1.282-.605 1.246-.377 3.034-.539 5.047-.327zm21.007 15.002c1.806.307 3.318.885 4.301 1.512.494.315.79.602.94.811a.85.85 0 0 1 .078.131.88.88 0 0 1-.117.099c-.211.149-.585.321-1.156.455-1.134.267-2.752.313-4.558.006s-3.319-.885-4.302-1.512c-.494-.315-.79-.601-.94-.811a.82.82 0 0 1-.079-.132.87.87 0 0 1 .119-.098c.21-.149.584-.321 1.155-.456 1.134-.267 2.753-.312 4.559-.006z" stroke="#fff" stroke-width="3"/><mask id="D" fill="#fff"><ellipse cx="169.43" cy="13.881" rx="6.545" ry="2.536" transform="rotate(18.569 169.43 13.881)"/></mask><path d="M175.634 15.965l-2.843-.955c.247-.737.775-.993.825-1.015s-.089.044-.506.063c-.813.037-2.079-.128-3.532-.617l-.956 2.844-.955 2.844c1.973.663 3.991 1.001 5.716.923.852-.039 1.796-.186 2.666-.572s1.959-1.158 2.429-2.559l-2.844-.955zm-7.012.319l.956-2.844c-1.454-.488-2.563-1.12-3.188-1.641-.321-.267-.392-.402-.366-.356s.292.571.045 1.308l-2.844-.955-2.844-.955c-.47 1.401-.069 2.672.392 3.507s1.125 1.52 1.78 2.065c1.328 1.104 3.141 2.052 5.114 2.715l.955-2.844zm-5.397-4.488l2.844.955c-.248.737-.775.993-.826 1.015s.09-.044.507-.063c.813-.037 2.078.129 3.532.617l.955-2.844.956-2.844c-1.974-.663-3.991-1.001-5.716-.923-.852.039-1.797.186-2.666.572s-1.959 1.158-2.43 2.559l2.844.955zm7.012-.319l-.955 2.844c1.453.488 2.562 1.12 3.188 1.641.321.267.391.402.366.356s-.293-.571-.045-1.308l2.843.955 2.844.955c.471-1.401.07-2.672-.392-3.507s-1.124-1.52-1.78-2.065c-1.327-1.104-3.14-2.052-5.113-2.715l-.956 2.844z" fill="#fff" mask="url(#D)"/><mask id="E" fill="#fff"><ellipse cx="190.117" cy="32.364" rx="6.768" ry="2.855" transform="rotate(15.077 190.117 32.364)"/></mask><path d="M196.653 34.124l-2.897-.78c.166-.615.563-.865.601-.887.023-.013-.128.071-.551.129-.832.114-2.137.046-3.651-.362l-.78 2.897-.781 2.897c2.096.565 4.225.76 6.026.513.895-.123 1.861-.374 2.723-.869.877-.503 1.836-1.38 2.207-2.757l-2.897-.78zm-7.278.996l.78-2.897c-1.514-.408-2.677-1.005-3.339-1.521-.337-.262-.425-.411-.412-.388.022.037.24.453.075 1.069l-2.897-.78-2.897-.78c-.371 1.377.018 2.616.523 3.492.497.861 1.206 1.564 1.918 2.119 1.434 1.118 3.373 2.019 5.468 2.584l.781-2.897zm-5.793-4.518l2.897.78c-.166.615-.564.865-.601.887-.024.013.128-.071.55-.129.833-.114 2.138-.046 3.652.362l.78-2.897.78-2.897c-2.095-.565-4.224-.76-6.026-.513-.894.123-1.86.374-2.723.869-.876.503-1.835 1.38-2.206 2.757l2.897.78zm7.278-.997l-.78 2.897c1.514.408 2.676 1.005 3.339 1.521.336.262.425.411.411.388-.021-.037-.24-.453-.074-1.069l2.897.78 2.897.78c.37-1.377-.018-2.616-.524-3.492-.497-.861-1.205-1.564-1.917-2.119-1.434-1.118-3.373-2.019-5.469-2.584l-.78 2.897z" fill="#fff" mask="url(#E)"/><mask id="F" fill="#fff"><ellipse cx="194.371" cy="22.45" rx="5.5" ry="2.32" transform="rotate(12.563 194.371 22.45)"/></mask><path d="M199.74 23.646l-2.928-.652c.154-.694.59-1.022.704-1.094.099-.063.055-.008-.243.046-.581.106-1.566.106-2.754-.159l-.653 2.928-.652 2.928c1.776.396 3.589.487 5.133.206.766-.139 1.617-.397 2.38-.881.777-.492 1.647-1.349 1.941-2.669l-2.928-.653zm-5.874 1.069l.653-2.928c-1.188-.265-2.08-.683-2.561-1.026-.247-.175-.263-.243-.2-.144.072.113.327.595.173 1.289l-2.928-.652-2.929-.652c-.294 1.32.13 2.465.624 3.241.486.762 1.147 1.357 1.781 1.808 1.278.91 2.958 1.597 4.735 1.993l.652-2.928zm-4.863-3.461l2.928.652c-.155.694-.591 1.022-.704 1.094-.1.063-.055.008.242-.046.581-.106 1.566-.106 2.754.159l.653-2.928.652-2.928c-1.776-.396-3.589-.487-5.133-.206-.766.139-1.616.397-2.38.881-.777.493-1.647 1.35-1.941 2.669l2.929.652zm5.873-1.069l-.653 2.928c1.189.265 2.08.683 2.562 1.025.246.175.263.244.199.144-.072-.113-.327-.595-.172-1.289l2.928.652 2.928.653c.294-1.32-.129-2.465-.624-3.241-.486-.762-1.146-1.357-1.78-1.808-1.279-.91-2.959-1.597-4.736-1.993l-.652 2.928z" fill="#fff" mask="url(#F)"/></svg>