<svg xmlns="http://www.w3.org/2000/svg" width="733" height="667" fill="none" xmlns:v="https://vecta.io/nano"><g filter="url(#A)"><path d="M729 659c-130.859 0-223.139-43.099-296.508-72.391V659h-65.891v-32.818L299.92 560.15h-98.045V659h-65.891V557.58C57.871 541.863 4.17 446.901 4.203 298.494V163.366c0-58.882 29.585-94.533 64.507-113.348v-.593C68.71 22.142 90.849 0 118.128 0c21.678 0 39.864 14.037 46.552 33.444l2.866-.494c18.186 0 32.945 14.762 32.945 32.95s-14.759 32.95-32.945 32.95h-32.682c-15.188.231-64.77 5.602-64.77 64.516v102.178c-1.384 96.906 75.939 96.642 89.545 96.906h107.435c72.578 0 137.184 33.708 179.321 86.23.297.363.659.626.955.989C570.467 609.575 729 626.05 729 626.05V659z" fill="#2e7d32"/></g><g opacity=".4" filter="url(#B)"><path d="M233.929 494.287h-32.266v65.885h98.085l-65.819-65.885zm198.444 32.942v59.396C505.772 615.911 598.089 659 729 659c0 0-172.11-20.128-296.627-131.771zM10.371 382.446C26.884 481.9 73.751 545.15 135.746 557.603v-65.425C48.043 476.86 19.007 413.841 10.371 382.446z" fill="#fff"/></g><defs><filter id="A" x=".203" y="0" width="732.797" height="667" filterUnits="userSpaceOnUse" color-interpolation-filters="sRGB"><feFlood flood-opacity="0" result="A"/><feColorMatrix in="SourceAlpha" values="0 0 0 0 0 0 0 0 0 0 0 0 0 0 0 0 0 0 127 0" result="B"/><feOffset dy="4"/><feGaussianBlur stdDeviation="2"/><feComposite in2="B" operator="out"/><feColorMatrix values="0 0 0 0 0 0 0 0 0 0 0 0 0 0 0 0 0 0 0.25 0"/><feBlend in2="A"/><feBlend in="SourceGraphic"/></filter><filter id="B" x="6.371" y="382.446" width="726.629" height="284.554" filterUnits="userSpaceOnUse" color-interpolation-filters="sRGB"><feFlood flood-opacity="0" result="A"/><feColorMatrix in="SourceAlpha" values="0 0 0 0 0 0 0 0 0 0 0 0 0 0 0 0 0 0 127 0" result="B"/><feOffset dy="4"/><feGaussianBlur stdDeviation="2"/><feComposite in2="B" operator="out"/><feColorMatrix values="0 0 0 0 0 0 0 0 0 0 0 0 0 0 0 0 0 0 0.25 0"/><feBlend in2="A"/><feBlend in="SourceGraphic"/></filter></defs></svg>