<svg xmlns="http://www.w3.org/2000/svg" width="319" height="94" fill="none" xmlns:v="https://vecta.io/nano"><g stroke="#171a1c" stroke-width="3"><path d="M181.254 19.838c1.044 0 11.312 1.885 27.41 0l16.969-3.481 17.403-4.351m-8.267 15.663l-20.449 6.961-5.656 1.305-13.052 2.175-7.397.87"/><path d="M242.166 12.254l7.396-4.273 9.572-4.273L270.881 2l16.098.855 14.358 3.418 5.221 2.564 6.091 5.127L317 22.082v5.127l-1.74 6.409-4.786 5.127-6.091 2.564-19.579 2.991-9.572.855-13.488.854h-7.396-5.656l-9.137 1.282L230.418 49l-6.526 2.136-4.351 2.564s-1.51 1.713-2.175 2.991l-.435 1.709v1.282l.435 1.709.87 2.564 4.786 2.564 7.396 2.136 10.878 1.282 11.747.373 9.572-.373s15.228-2.999 12.182-1.803-5.221 2.175-5.221 2.175l-6.091 2.191-6.744.855h-12.4l-10.007-.855-8.701-1.709-6.092-2.136-4.191-2.991-.95-3.205-.95-3.205 1.306-5.554 2.61-2.564 4.786-2.991 8.266-2.991 13.923-2.564 12.4-1.111h5.439l6.091-.427 6.091-.427 6.961-.427 10.007-1.453 8.267-1.503 5.656-2.175 4.351-4.351.87-3.507v-3.02l-.87-2.108-3.916-5.724-6.962-4.103-8.701-2.136-14.793-.855-5.656 1.709-4.351 1.282-6.091 3.233-4.786 2.61-6.961 4.411-12.618 5.161M50.294 12.442l3.481-2.61v2.61"/><use href="#B"/><use href="#B" x="14.793" y="2.61"/><use href="#B" x="27.846" y="1.74"/><use href="#B" x="44.379"/><path d="M121.213 13.312l3.48-2.61v2.611m11.313-.001l3.48-2.61v2.611"/><use href="#B" x="88.757" y="-1.741"/><use href="#B" x="105.29" y="1.74"/><path d="M183.865 20.274l3.48-2.61v2.61m26.105-1.306l3.481-3.046v2.611m11.312-3.045l3.481-3.046v2.611m10.007-2.611l3.045-4.351.87 2.611m-46.118 10.007l3.48-2.175v2.61m-91.385 39.3l-9.554-12.185s-4.434-9.263-6.961-11.452-33.501-6.526-33.501-6.526L25.823 19.908l-15.745 8.267s-5.005 1.118-6.852-1.605-1.409-4.717 0-6.662S16.349 7.656 18.098 7.656h6.961l54.479 10.442 26.012-2.858 19.405-1.994h25.27l31.926 6.662m-70.528 40.536s2.382 5.106 3.305 9.531c.682 3.272.356 15.206.139 19.421m-3.444-28.952l-6.073 26.398v2.554h9.517m-3.444-28.952l-.852-7.539v-2.61m12.617-6.802l4.929 9.726v4.472 5.221m0 0s2.19 29.408-.143 28.922-13.246 0-13.246 0l.139-2.438m13.25-26.484s25.649 4.944 28.808 3.825 7.161-2.955 7.161-2.955-6.141 22.087-5.849 23.059 10.883 0 11.757 0m-4.603-50.034l-3.85 14.078 2.467 8.072 3.123 7.78s3.105 24.027 4.563 25.097 12.149 0 13.072 0-5.682-32.877-5.682-32.877 4.505-16.714 9.802-20.41"/></g><defs ><path id="B" d="M62.041 15.053l3.481-2.61v2.611"/></defs></svg>