<svg width="323" height="99" viewBox="0 0 323 99" fill="none" xmlns="http://www.w3.org/2000/svg">
<path d="M133.64 53.581V60.4548M133.64 60.4548C133.64 60.4548 135.259 94.3764 133.64 94.3764C132.02 94.3764 121.466 95.9412 120.461 94.9912C119.455 94.0411 122.918 44.2484 122.918 44.2484L122.734 46.9308C122.734 46.9308 116.607 37.0952 113.703 34.5804C110.799 32.0657 69.4182 23.236 69.4182 23.236L29.3773 15.5798L11.2835 25.0801C11.2835 25.0801 5.53149 26.3655 3.40938 23.236C1.28727 20.1065 1.78988 17.8152 3.40938 15.5798C5.02888 13.3445 18.3758 2 20.3863 2C22.3967 2 26.0825 2 26.0825 2L91.5887 10.215H107.393L143.301 7.92372H172.341L209.031 15.5798C209.031 15.5798 289.838 13.2886 293.133 13.5121C296.428 13.7357 303.744 14.071 308.211 15.5798C312.679 17.0887 314.41 16.1387 319.995 22.23L321 28.0979C320.832 30.3332 322.005 35.5863 316.085 40.0012C310.166 44.416 295.441 49.9195 289.057 50.9545C282.672 51.9895 271.94 54.4379 268.171 53.8605C264.401 53.2831 251.529 51.178 251.529 51.178L239.578 48.1603C239.578 48.1603 230.028 46.2043 227.18 45.1425C224.332 44.0807 241.477 44.3043 244.046 45.1425C246.614 45.9808 248.681 46.7073 251.976 47.7132C254.881 48.6003 265.62 50.5074 271.242 50.5074C271.242 50.5074 303.464 46.6514 310.222 39.0512C316.979 31.4509 315.694 31.898 316.085 28.8244C316.477 25.7507 316.085 25.4154 310.222 23.236C304.358 21.0565 294.083 20.9447 286.767 20.3859C279.451 19.827 247.396 22.1183 241.197 23.236C234.998 24.3536 223.327 30.3332 217.24 34.5804C211.153 38.8276 205.736 60.4548 205.736 60.4548C205.736 60.4548 213.442 96.9471 212.381 96.9471C211.32 96.9471 199.034 98.1765 197.359 96.9471C195.684 95.7176 193.555 74.7611 193.555 74.7611M133.64 60.4548L154.023 68.1109M154.023 68.1109L149.444 53.581M154.023 68.1109C154.023 68.1109 156.76 73.9787 157.821 79.0642C158.882 84.1496 155.81 96.9471 155.81 96.9471C155.81 96.9471 165.36 96.3883 168.041 96.9471C170.721 97.5059 168.041 69.3962 168.041 69.3962M168.041 54.8664V69.3962M168.041 69.3962C168.041 69.3962 176.641 70.6816 180.271 69.3962C183.9 68.1109 185.576 67.4962 185.576 67.4962M191.495 62.746L197.359 45.1425M191.495 62.746L185.576 67.4962M191.495 62.746L193.555 74.7611M185.576 67.4962C185.576 67.4962 181.443 87.4468 181.778 88.5645C182.113 89.6822 190.49 88.5645 191.495 88.5645C192.501 88.5645 193.555 74.7611 193.555 74.7611" stroke="white" stroke-width="3"/>
</svg>
