<svg width="304" height="133" viewBox="0 0 304 133" fill="none" xmlns="http://www.w3.org/2000/svg">
<path d="M54.8285 33.9273L49.2195 42.4646M49.2195 42.4646L47.7379 44.7197L22.5985 54.2234L8.2561 49.5521L6 39.7262L13.0906 30.2225L13.7352 26.8398L13.0906 25.5512M49.2195 42.4646L78.0342 59.2169H80.4514L81.5795 51.0018L80.7737 59.7001L83.3521 68.2373L64.8199 82.7345L68.6875 97.0706H72.7162V88.2112L79.4845 81.768L90.1205 79.5129L95.9219 73.0697L96.8888 67.3514M97.8557 61.6331L96.8888 67.3514M96.8888 67.3514L118.966 73.0697M118.966 73.0697L128.797 46.8137M118.966 73.0697V92.0772L122.028 111.568L117.194 122.038L105.752 131.381L134.92 130.575L137.66 124.776L136.532 115.112V99.4868L142.931 84.8286M164.572 54.2234L150.679 73.0697M142.931 84.8286L144.267 81.768L150.679 73.0697M142.931 84.8286L164.572 106.252L148.94 127.837H169.406L184.232 103.836L155.386 71.1368M155.386 71.1368L150.679 73.0697M155.386 71.1368L162.155 69.6871L216.623 78.2243L287.691 92.0772H303L255.3 75.1638L214.528 51.0018L171.179 27.8063L153.936 20.8799L100.918 23.4571H93.9881L74.0054 20.8799L60.9522 15.5642L56.2789 13.6313M56.2789 13.6313L61.9192 3L51.9278 10.2486M56.2789 13.6313L51.9278 10.2486M51.9278 10.2486L49.2195 11.6274M51.9278 10.2486L48.2961 7.99348M51.9278 10.2486L54.0228 4.28864C52.3039 5.52358 48.752 7.99348 48.2961 7.99348M13.7352 20.8799L22.115 7.99348L36.4574 3.64432H41.2919L48.2961 7.99348M13.7352 20.8799L6 19.108L10.1899 22.9739M13.7352 20.8799L7.6115 24.7458L13.0906 25.5512M17.2805 24.5847L13.0906 25.5512M17.2805 24.5847L19.0532 20.8799L23.373 24.0113L23.0507 14.9908L27.8852 21.1118L27.433 14.849L34.3625 19.2691L33.3955 15.5642L37.7779 17.4263M17.2805 24.5847C18.4408 24.0692 22.7821 24.6556 23.8564 24.0113L28.6909 21.1118L35.3294 19.2691L37.7779 17.4263M17.2805 24.5847L13.7352 21.0409L13.0906 25.5512M37.7779 17.4263L36.3275 11.6274L41.8066 14.849M37.7779 17.4263L41.8066 14.849M41.8066 14.849L41.3232 8.56691L46.6411 13.7215M41.8066 14.849L45.6742 13.947M46.6411 13.7215L47.1246 8.56691L49.2195 11.6274M46.6411 13.7215L45.6742 13.947M49.2195 11.6274L45.6742 13.947" stroke="white" stroke-width="3"/>
</svg>
