<svg xmlns="http://www.w3.org/2000/svg" width="272" height="119" fill="none" xmlns:v="https://vecta.io/nano"><path d="M49.568 30.463l-5.005 7.581m0 0l-1.322 2.002-22.431 8.439-12.797-4.148L6 35.612l6.327-8.439.575-3.004-.575-1.144m32.236 15.019l25.71 14.876h2.157l1.007-7.295-.719 7.724 2.301 7.581-16.535 12.873 3.451 12.73h3.595v-7.867l6.039-5.721 9.49-2.002 5.176-5.722.863-5.078m.863-5.078l-.863 5.078m0 0l19.699 5.078m0 0l8.771-23.315m-8.771 23.315v16.878l2.732 17.307-4.314 9.298L95.004 117l26.026-.715 2.444-5.149-1.006-8.583V88.679l5.709-13.016m19.31-27.177l-12.396 16.735m-6.914 10.442l1.193-2.718 5.721-7.724m-6.914 10.442l19.31 19.024-13.948 19.167H151.8l13.229-21.312-25.738-29.036m0 0l-4.2 1.716m4.2-1.716l6.039-1.287 48.6 7.581 63.41 12.301H271L228.439 67.08l-36.378-21.455-38.679-20.597-15.385-6.151-47.306 2.289h-6.183l-17.83-2.289-11.647-4.72-4.17-1.716m0 0L55.894 3l-8.915 6.437m3.882 3.004l-3.882-3.004m0 0l-2.416 1.224m2.416-1.224l-3.24-2.003m3.24 2.003l1.869-5.292-5.11 3.29M12.902 18.877l7.477-11.443 12.797-3.862h4.314l6.249 3.862M12.902 18.877L6 17.304l3.738 3.433m3.163-1.86L7.438 22.31l4.889.715m3.739-.858l-3.739.858m3.739-.858l1.582-3.29 3.854 2.781-.288-8.01 4.314 5.435-.404-5.561 6.183 3.925-.863-3.29 3.91 1.653m-18.289 6.357c1.035-.458 4.909.063 5.867-.509l4.314-2.575 5.923-1.636 2.185-1.636m-18.289 6.357l-3.163-3.147-.575 4.005m22.027-7.215l-1.294-5.149 4.889 2.861m-3.595 2.289l3.595-2.289m0 0l-.431-5.578 4.745 4.577m-4.314 1.001l3.451-.801m.863-.2l.431-4.577 1.869 2.718m-2.301 1.86l-.863.2m3.163-2.06l-3.163 2.06" stroke="#fff" stroke-width="3"/></svg>