<svg xmlns="http://www.w3.org/2000/svg" width="705" height="364" fill="none" xmlns:v="https://vecta.io/nano"><g filter="url(#A)"><path d="M458.409 277.176l-9.042-35.264s22.929-61.471 30.356-71.824 49.087-58.882 61.359-69.882 57.16-43.03 77.506-53.706L699 8l-58.129.971-72.662 10.677-79.444 24.588-35.523 16.5-31.971 57.912L391.56 145.5l-51.347 14.235-79.767 17.794-54.577 8.736-57.16-27.5L5 209.882l82.996 5.824s50.702 1.618 76.86 8.412l122.071 30.735L376.705 283l81.704-5.824z" fill="#9bb9bb"/></g><g filter="url(#B)"><path d="M388.48 27.345c-2.906-5.173-248.572 97.962-248.572 104.428s99.106-3.879 104.916 0 9.362 21.662 5.811 24.248-40.03 13.579-46.809 14.226-63.918-21.662-63.918-21.662C126.995 148.585 4 210.013 4 210.013l145.915-47.202c3.551 0 48.746 25.541 53.911 26.834s59.399-9.053 59.399-9.053 4.197 21.986 19.369 40.414 52.943 39.443 52.943 39.443l44.549 25.218 42.936 54.639s6.133 14.549 10.007 14.225-.646-32.653 15.818-7.436 2.26-10.669 0-15.195-15.818-5.173-15.818-5.173l-10.007-12.609v-21.015l34.219 7.759 18.4 18.429s3.551 12.609 7.748 12.609 4.52-32.977 18.401-5.173 3.228-14.872 0-18.429-14.204-1.616-14.204-1.616l-54.557-53.022-44.549-37.827c-10.976-10.346-47.455-53.022-47.455-53.022s49.069-12.286 51.974-14.226c0 0 27.44-23.925 30.023-27.804s27.117-54.639 31.959-58.195l32.605-15.842c3.228-1.293 77.8-24.571 80.705-25.218l80.382-10.992c4.52 0 51.652 0 52.297-1.94s-9.361-7.113-22.274-8.406-71.666 4.526-71.666 4.526c-11.945 1.617-43.904 8.729-51.652 10.992s-74.894 23.925-74.894 23.925l-28.409 3.556c-8.07 3.556-50.682 75.007-56.17 80.18s-81.674 22.632-88.13 21.985-20.015-7.113-20.015-7.113-5.166-4.526-5.166-12.285 5.166-34.271 5.166-34.271 103.625-59.165 100.72-64.338z" fill="#32999f"/></g><defs><filter id="A" x="1" y="8" width="702" height="283" filterUnits="userSpaceOnUse" color-interpolation-filters="sRGB"><feFlood flood-opacity="0" result="A"/><feColorMatrix in="SourceAlpha" values="0 0 0 0 0 0 0 0 0 0 0 0 0 0 0 0 0 0 127 0" result="B"/><feOffset dy="4"/><feGaussianBlur stdDeviation="2"/><feComposite in2="B" operator="out"/><feColorMatrix values="0 0 0 0 0 0 0 0 0 0 0 0 0 0 0 0 0 0 0.25 0"/><feBlend in2="A"/><feBlend in="SourceGraphic"/></filter><filter id="B" x="0" y="0" width="705" height="364" filterUnits="userSpaceOnUse" color-interpolation-filters="sRGB"><feFlood flood-opacity="0" result="A"/><feColorMatrix in="SourceAlpha" values="0 0 0 0 0 0 0 0 0 0 0 0 0 0 0 0 0 0 127 0" result="B"/><feOffset dy="4"/><feGaussianBlur stdDeviation="2"/><feComposite in2="B" operator="out"/><feColorMatrix values="0 0 0 0 0 0 0 0 0 0 0 0 0 0 0 0 0 0 0.25 0"/><feBlend in2="A"/><feBlend in="SourceGraphic"/></filter></defs></svg>