<svg width="283" height="97" viewBox="0 0 283 97" fill="none" xmlns="http://www.w3.org/2000/svg">
<path d="M2 20.5212L3.52109 13.9149H9.70686L46.9229 2L53.1086 3.06173L68.2181 15.5665L80.6911 19.5775L106.347 17.454L143.664 31.4924L231.804 36.3292L282 53.0809L247.928 42.8175L276.22 54.2606L244.48 42.8175C254.181 46.2386 273.969 56.8323 272.265 55.7942C270.561 54.756 251.544 46.3959 242.654 44.3511L265.268 55.7942L237.179 44.3511L257.865 55.7942L229.269 42.8175L247.928 54.2606L222.677 42.8175L240.728 54.2606L218.317 42.8175L229.269 50.4855L215.173 42.8175L218.317 46.8285L208.988 42.8175H179.377L139.304 51.4293L133.219 57.3278L120.138 59.4512L134.335 71.4841L122.065 94.8421H114.561L118.313 91.539L114.561 83.399L120.037 88.9436L128.453 74.2677L115.575 63.5324L118.313 49.6597L111.721 83.399L106.347 94.8421H94.6851L99.9582 91.539L96.0034 83.399L102.189 88.9436L106.347 83.399M2 20.5212L9.70686 26.6557L46.9229 25.358L72.2744 34.2057L75.6563 44.4691M2 20.5212L34.8556 17.454L39.5202 19.5775M106.347 83.399L96.6118 76.863L84.4431 66.2905M106.347 83.399L93.7725 71.838L106.931 82.2895M106.347 83.399L106.931 82.2895M112.431 58.5075L104.116 55.7942M104.116 55.7942L103.92 54.1426M104.116 55.7942L112.431 57.5637H106.347M103.305 48.9519L102.189 44.4691L94.6851 40.2222M103.305 48.9519C103.954 50.1788 109.186 52.7663 111.721 53.9066L103.64 51.7832M103.305 48.9519L103.64 51.7832M82.6178 51.7832L93.7725 48.0082L89.6148 44.4691M82.6178 51.7832L82.2122 59.4512L83.6319 65.5856M82.6178 51.7832L78.2573 47.2019M75.6563 44.4691L68.2181 51.7832L67.5083 70.3044M75.6563 44.4691L78.2573 47.2019M67.5083 70.3044L69.7392 71.1926L82.6178 82.5837C82.6178 81.8287 77.3447 75.9276 73.8969 71.838L85.0515 84.1069L76.2647 71.2482L86.3698 83.7022L78.8658 70.6583L87.2825 83.1243L81.2995 69.4786L88.6007 82.2895L83.2262 69.4786L89.7162 81.5832L85.0515 70.6583L90.9838 80.7806L86.7754 71.7201L91.8212 78.7982L90.8317 76.0849L87.536 71.1892L83.6319 65.5856M67.5083 70.3044L70.5505 67.7091V52.609L78.2573 47.2019M83.6319 65.5856L84.4431 66.2905M84.4431 66.2905V54.6145L97.1189 49.7777M106.931 82.2895L94.6851 69.4786L107.725 80.7806M106.931 82.2895L107.725 80.7806M107.725 80.7806C102.77 75.0864 95.8817 66.7181 96.6118 67.4731C97.342 68.2282 104.074 74.394 108.768 78.7982M107.725 80.7806L108.768 78.7982M108.768 78.7982L99.654 66.8833L110.196 76.0849M108.768 78.7982L110.196 76.0849M110.196 76.0849L102.189 66.2905C102.683 66.8899 105.919 69.9127 109.288 73.3485M110.196 76.0849L109.288 73.3485M103.64 51.7832L103.724 52.491M103.724 52.491L111.721 55.7942L103.92 54.1426M103.724 52.491L103.92 54.1426M109.288 73.3485C109.795 73.8656 110.305 74.392 110.809 74.921L109.288 72.8374M109.095 71.6021L103.305 64.6419L109.288 72.8374M109.095 71.6021L111.214 74.1502L108.781 69.396M109.095 71.6021L109.288 72.8374M108.781 69.396L106.347 64.6419L108.172 65.4913M108.781 69.396L108.172 65.4913M108.172 65.4913L112.431 67.4731L107.725 63.0777M107.725 63.0777L105.231 60.7489L107.361 61.4888M107.725 63.0777L107.361 61.4888M107.361 61.4888L113.242 63.5324L105.738 59.4512H106.931M106.931 59.9231V59.4512M106.931 59.4512H112.431L106.55 58.1161M106.347 57.5637H104.116L106.55 58.1161M106.347 57.5637L106.55 58.1161" stroke="white" stroke-width="3"/>
</svg>
