<svg xmlns="http://www.w3.org/2000/svg" width="283" height="97" fill="none" xmlns:v="https://vecta.io/nano"><path d="M2 20.521l1.521-6.606h6.186L46.923 2l6.186 1.062 15.11 12.505 12.473 4.011 25.656-2.123 37.317 14.038 88.14 4.837L282 53.081l-34.072-10.263 28.292 11.443-31.74-11.443c9.701 3.421 29.489 14.015 27.785 12.977s-20.721-9.398-29.611-11.443l22.614 11.443-28.089-11.443 20.686 11.443-28.596-12.977 18.659 11.443-25.251-11.443 18.051 11.443-22.411-11.443 10.952 7.668-14.096-7.668 3.144 4.011-9.329-4.011h-29.611l-40.073 8.612-6.085 5.899-13.081 2.123 14.197 12.033-12.27 23.358h-7.504l3.752-3.303-3.752-8.14 5.476 5.545 8.416-14.676-12.878-10.735 2.738-13.873-6.592 33.739-5.374 11.443H94.685l5.273-3.303-3.955-8.14 6.186 5.545 4.158-5.545M2 20.521l7.707 6.134 37.216-1.298 25.352 8.848 3.382 10.263M2 20.521l32.856-3.067 4.665 2.124m66.827 63.822l-9.735-6.536-12.169-10.573-.811-.705m22.715 17.813L93.773 71.838l13.159 10.452m-.584 1.109l.584-1.109m5.5-23.782l-8.315-2.713m0 0l-.196-1.652m.196 1.652l8.315 1.77h-6.084m-3.042-8.612l-1.116-4.483-7.504-4.247m8.62 8.73c.649 1.227 5.881 3.814 8.416 4.955l-8.081-2.123m-.335-2.831l.335 2.831m-21.022 0l11.155-3.775-4.158-3.539m-6.997 7.314l-.406 7.668 1.42 6.134m-1.014-13.802l-4.361-4.581-2.601-2.733m0 0l-7.438 7.314-.71 18.521.71 1.534 12.879 11.391c0-.755-3.752-7.302-7.2-11.391l11.155 12.269-8.787-12.859L86.37 83.702l-7.504-13.044 8.417 12.466L81.3 69.479l7.301 12.811-5.374-12.811 6.49 12.105-4.665-10.925 5.932 10.122-4.208-9.061 5.046 7.078-.99-2.713-3.296-4.896-3.904-5.604m23.299 16.704L94.685 69.479l13.04 11.302m-.794 1.509l.794-1.509m0 0c-4.955-5.694-11.843-14.062-11.113-13.308s7.462 6.921 12.156 11.325m-1.043 1.982l1.043-1.982m0 0l-9.114-11.915 10.542 9.202m-1.428 2.713l1.428-2.713m0 0l-8.007-9.794c.494.599 3.73 3.622 7.099 7.058m.908 2.737l-.908-2.737m-5.648-21.565l.084.708m0 0l7.997 3.303-7.801-1.652m-.196-1.652l.196 1.652m5.368 19.206l1.521 1.573-1.521-2.084m-.193-1.235l-5.79-6.96 5.983 8.195m-.193-1.235l2.119 2.548-2.433-4.754m.314 2.206l.193 1.235m-.507-3.441l-2.434-4.754 1.825.849m.609 3.905l-.609-3.905m0 0l4.259 1.982-4.706-4.395m0 0l-2.494-2.329 2.13.74m.364 1.589l-.364-1.589m0 0l5.881 2.044-7.504-4.081h1.193m0 .472v-.472m0 0h5.5l-5.881-1.335m-.203-.552h-2.231l2.434.552m-.203-.552l.203.552" stroke="#171a1c" stroke-width="3"/></svg>