<svg xmlns="http://www.w3.org/2000/svg" width="284" height="110" fill="none" xmlns:v="https://vecta.io/nano"><path d="M2.757 29.301s-1.703-5.933 0-9.225S21.182 9.725 24.501 8.816s8.907-5.847 10.61-6.41 6.331-.52 8.209 0 3.82 2.057 3.82 2.057 12.728.238 17.531 2.577 10.13 9.225 10.13 9.225 7.728 5.327 13.448 5.976 9.125-4.677 25.455-5.197 31.524 2.165 36.72 3.811 15.762 4.158 22.748 5.154 65.406 5.89 72.829 6.28l37.506 2.469-106.231 11.347c-6.636 1.299-21.656 10.091-21.656 10.091l-5.196 2.165s1.921 5.457 5.196 8.142 5.065 2.728 5.763 4.071 8.776 30.965 8.776 30.965-4.322 5.933-6.025 6.54-16.461 0-16.461 0 3.275-2.599 6.855-5.197 3.362-2.555 3.362-2.555-1.353-13.339-2.27-14.292-13.579-10.264-13.535-9.744M2.757 29.301c0 3.811 6.811 8.142 10.13 8.142s32.528-1.862 35.891 0 14.146 11.173 17.814 14.681 3.231 2.859 6.898 4.201a23.68 23.68 0 0 0 7.248 1.343M2.757 29.301s23.796-1.949 28.206-3.248 12.356 0 12.356 0m98.765 50.237l12.443-33.174m-12.443 33.174l3.536 19.835s-4.453 11.433-6.156 11.953-14.19 0-16.723 0 5.894-4.591 7.423-6.54-.917-16.37-3.275-21.741-4.978-11.39-6.2-15.071m7.597-23.516s-9.649 17.15-7.597 23.516m0 0L89.383 59.01m0 0c3.799-1.343 7.597-5.413 7.597-5.413m-7.597 5.413l-3.58 1.646s4.235 3.941 3.58 5.717-13.142 8.142-13.142 8.142l4.497-6.02-6.506 3.118 7.204-7.406s-2.227-3.335-1.965-4.461 1.266-2.079 1.266-2.079m5.894-7.319l-5.894 7.319" stroke="#171a1c" stroke-width="3"/></svg>