<svg width="297" height="133" viewBox="0 0 297 133" fill="none" xmlns="http://www.w3.org/2000/svg">
<path d="M38.5645 43.8179L25.7595 51.7973L2 35.7646L13.8427 56.8213L8.58752 59.7766C7.27989 64.5052 4.66462 74.1247 4.66462 74.7749L8.58752 72.4107L35.9739 67.8299L11.2521 77.0653L6.44103 76.3265L10.512 82.1632L35.9739 82.9021L58.401 79.134L67.5052 79.5773L95.8537 80.5378L102.324 83.7148M38.5645 43.8179L8.58752 17.0722L48.4087 36.8729M38.5645 43.8179L48.4087 36.8729M48.4087 36.8729L58.9932 44.7045M48.4087 36.8729L15.5451 5.25086C28.128 12.4422 53.4271 26.8839 53.96 27.1203C54.4929 27.3567 60.7943 29.3368 63.8783 30.2973L73.7966 28.8196L93.1891 4.51203L95.1876 2C95.1876 2 102.959 5.98969 104.662 11.5309C106.364 17.0722 106.364 18.1804 106.364 18.1804L104.958 24.2388M58.9932 74.7749L64.8405 66.7217H67.5052L72.9824 69.0859H83.1228L95.1876 49.7285L103.551 30.2973L104.958 24.2388M104.958 24.2388L164.986 13.3041C178.333 11.5309 205.162 7.98454 205.695 7.98454C206.228 7.98454 229.381 16.7767 237.671 25.2732C245.96 33.7698 259.432 50.689 259.432 50.689C259.432 50.689 264.909 62.8797 270.608 71.1546C276.307 79.4296 295.182 100.043 295.182 100.043L291.333 110.387C291.333 110.387 278.898 108.17 272.607 105.806C266.315 103.442 255.435 92.6546 255.435 92.6546L234.34 72.2629L231.823 71.1546L226.346 75.0704M226.346 75.0704V71.1546M226.346 75.0704L219.906 93.9107V100.043L228.566 115.115L222.867 129.079H198.145L208.434 119.031L207.175 112.603L198.145 103.368L195.594 98.4914M183.342 75.0704L191.558 90.7754M195.594 98.4914V109.131L191.558 129.079H168.909L177.569 110.387L173.646 93.9107M195.594 98.4914L191.558 90.7754M173.646 93.9107L191.558 90.7754M173.646 93.9107L152.033 96.866L132.64 93.9107M132.64 93.9107L146.037 129.079H121.464L118.651 112.603M132.64 93.9107L127.773 92.6546M118.651 112.603L126.201 98.4914L127.773 92.6546M118.651 112.603L115.172 119.031L113.322 131H86.6756L87.6378 121.912C91.7828 114.623 100.206 100.043 100.739 100.043C101.142 100.043 101.823 91.2946 102.324 83.7148M130.938 80.9072L127.773 92.6546M102.737 77.0653C102.629 78.9364 102.486 81.2645 102.324 83.7148" stroke="white" stroke-width="3"/>
</svg>
