<svg xmlns="http://www.w3.org/2000/svg" width="277" height="125" fill="none" xmlns:v="https://vecta.io/nano"><path d="M36.248 41.225l-11.994 7.485L2 33.671l11.092 19.751-4.922 2.772-3.674 14.068 3.674-2.218 25.651-4.297-23.155 8.663-4.506-.693 3.813 5.475 23.849.693 21.006-3.534 8.527.416 26.552.901 6.06 2.98m-59.72-37.423L8.17 16.138 45.468 34.71m-9.221 6.514l9.221-6.514m0 0l9.914 7.346m-9.914-7.346L14.687 5.049l35.981 20.513c.499.222 6.401 2.079 9.29 2.98l9.29-1.386 18.164-22.8L89.283 2s7.279 3.742 8.874 8.94 1.594 6.237 1.594 6.237l-1.317 5.683M55.382 70.262l5.477-7.554h2.496l5.13 2.218h9.498l11.3-18.157 7.834-18.226 1.317-5.683m0 0l56.224-10.257 38.13-4.99c.5 0 22.185 8.247 29.95 16.216s19.041 25.538 19.041 25.538l18.265 38.843L273 103.665s-11.647-2.079-17.54-4.297-16.084-12.336-16.084-12.336l-19.758-19.127-2.357-1.04-5.13 3.673m0 0v-3.673m0 3.673l-6.032 17.672v5.752l8.112 14.137-5.339 13.098h-23.155l9.637-9.425-1.179-6.029-8.458-8.663-2.389-4.574m-11.476-21.969l7.695 14.731m3.781 7.237v9.98l-3.781 18.711h-21.214l8.111-17.533-3.674-15.454m20.558 4.297l-3.781-7.237m-16.777 2.941l16.777-2.941m-16.777 2.941l-20.244 2.772-18.163-2.772m0 0l12.548 32.987h-23.017l-2.634-15.454m13.103-17.533l-4.559-1.178m-8.544 18.711l7.071-13.237 1.473-5.475m-8.544 18.711l-3.259 6.029L106.268 123H81.31l.901-8.524c3.882-6.838 11.772-20.513 12.271-20.513.377 0 1.016-8.206 1.485-15.316m26.801-2.633l-2.964 11.019M96.354 72.41l-.387 6.237" stroke="#fff" stroke-width="3"/></svg>