<svg width="305" height="114" viewBox="0 0 305 114" fill="none" xmlns="http://www.w3.org/2000/svg">
<path d="M48.6604 56.3262L83.9112 72.9351M48.6604 56.3262L32.073 61.5925H10.496L2 56.3262L3.61828 44.5784C10.496 38.7271 24.6289 26.7272 26.1393 25.539L32.073 12.5759L32.7473 22.8383L48.6604 24.3237L66.7312 16.8969L59.7186 25.539H62.2809M48.6604 56.3262C48.6604 55.462 52.796 52.8154 54.8638 51.6001H66.7312L57.0215 44.5784M83.9112 72.9351L98.3409 107.908M83.9112 72.9351L109.211 76.0409M98.3409 107.908L93.2979 111.824H127.147L127.734 107.908M98.3409 107.908L111.908 91.1644M145.487 67.3988L139.008 81.4421M109.211 76.0409V81.4421L111.908 91.1644M109.211 76.0409L116.781 78.2014M111.908 91.1644L116.781 78.2014M120.404 69.9644L116.781 78.2014M194.171 69.9644C194.171 69.9644 191.743 72.9351 188.237 76.0409C184.731 79.1466 160.187 80.632 160.187 80.632L139.008 81.4421M194.171 69.9644L189.586 63.0778M194.171 69.9644L201.588 82.9275L186.888 111.824L215.748 109.934L226.132 81.7122L215.748 51.6001L231.931 42.2829L276.164 29.86L288.301 34.046H298.01L303 29.86L300.168 21.353L284.255 9.60519L273.466 8.11984L263.622 11.6307V16.8969L267.533 21.353L237.595 22.8383L214.129 18.9224C214.129 18.9224 189.586 3.25869 150.073 2.0434C110.56 0.828113 62.2809 25.539 62.2809 25.539M62.2809 25.539L81.4306 28.6447M127.734 107.908L128.257 104.416L135.324 89.427L139.008 81.4421M127.734 107.908H149.129L139.008 81.4421" stroke="white" stroke-width="3"/>
<path d="M94.3177 20.1571C96.4615 19.5341 98.4418 19.359 99.8825 19.5274C100.606 19.612 101.119 19.7748 101.436 19.9485C101.588 20.0322 101.673 20.1061 101.716 20.1538C101.755 20.1973 101.762 20.2201 101.763 20.2236C101.764 20.2283 101.77 20.251 101.761 20.3067C101.75 20.3701 101.718 20.4778 101.634 20.6303C101.459 20.9469 101.114 21.359 100.548 21.8183C99.4222 22.7326 97.6565 23.6462 95.5127 24.2692C93.3689 24.8922 91.3885 25.0673 89.9478 24.8989C89.2242 24.8143 88.7116 24.6515 88.3945 24.4778C88.2419 24.3941 88.1574 24.3202 88.1142 24.2725C88.0764 24.2306 88.0691 24.2083 88.0677 24.2036C88.0667 24.2 88.0599 24.1773 88.0698 24.1196C88.0807 24.0562 88.1124 23.9485 88.1964 23.796C88.371 23.4794 88.7165 23.0672 89.282 22.608C90.4081 21.6936 92.1738 20.7801 94.3177 20.1571Z" stroke="white" stroke-width="3"/>
<path d="M114.324 29.4794C116.466 29.0905 118.403 29.1203 119.78 29.4278C120.472 29.5822 120.949 29.7902 121.235 29.9875C121.372 30.0825 121.444 30.1604 121.478 30.2073C121.495 30.2301 121.503 30.2454 121.506 30.2529C121.509 30.2598 121.51 30.2635 121.51 30.265C121.511 30.2666 121.511 30.2705 121.511 30.2778C121.51 30.286 121.508 30.3027 121.5 30.3294C121.485 30.3854 121.445 30.4841 121.35 30.6217C121.152 30.9068 120.778 31.2692 120.185 31.6569C119.004 32.4288 117.201 33.1377 115.059 33.5265C112.916 33.9154 110.979 33.8856 109.602 33.5782C108.911 33.4238 108.434 33.2155 108.149 33.0183C108.011 32.923 107.939 32.8446 107.904 32.7977C107.888 32.7755 107.881 32.7604 107.877 32.7529C107.874 32.7462 107.873 32.7424 107.873 32.7408C107.873 32.7392 107.872 32.7356 107.873 32.7279C107.873 32.7198 107.874 32.7027 107.882 32.6756C107.898 32.6196 107.938 32.5217 108.034 32.3841C108.232 32.099 108.604 31.7367 109.197 31.349C110.379 30.5771 112.182 29.8683 114.324 29.4794Z" stroke="white" stroke-width="3"/>
<path d="M139.671 43.9045C141.888 43.6398 143.87 43.7902 145.264 44.1915C145.964 44.3931 146.443 44.6374 146.728 44.8605C146.865 44.968 146.936 45.0547 146.971 45.1088C147.002 45.1581 147.005 45.1816 147.005 45.1853C147.006 45.1902 147.008 45.2135 146.99 45.2669C146.968 45.3277 146.92 45.4287 146.812 45.5654C146.588 45.8493 146.18 46.1996 145.547 46.5604C144.287 47.2787 142.395 47.8918 140.179 48.1565C137.962 48.4213 135.98 48.2709 134.586 47.8696C133.886 47.668 133.406 47.4237 133.122 47.2006C132.985 47.0931 132.914 47.0064 132.879 46.9523C132.848 46.9048 132.845 46.8816 132.844 46.8767C132.844 46.8731 132.841 46.8495 132.86 46.7942C132.881 46.7334 132.93 46.6323 133.038 46.4956C133.262 46.2118 133.67 45.8615 134.303 45.5007C135.563 44.7824 137.454 44.1693 139.671 43.9045Z" stroke="white" stroke-width="3"/>
<path d="M102.54 56.0866C104.345 55.6217 105.991 55.5296 107.166 55.7038C107.757 55.7914 108.155 55.9358 108.384 56.0708C108.457 56.1138 108.501 56.1497 108.528 56.174C108.516 56.2082 108.495 56.2609 108.452 56.3337C108.316 56.5627 108.038 56.8812 107.563 57.2434C106.618 57.9637 105.132 58.6782 103.327 59.1431C101.522 59.6079 99.8753 59.7001 98.6998 59.5259C98.1088 59.4383 97.7121 59.2936 97.4828 59.1586C97.4095 59.1154 97.365 59.08 97.3383 59.0556C97.3499 59.0214 97.3718 58.9689 97.4151 58.8957C97.5507 58.6667 97.8282 58.3484 98.3033 57.9863C99.2484 57.2659 100.734 56.5515 102.54 56.0866Z" stroke="white" stroke-width="3"/>
<path d="M85.1475 40.1159C87.2913 39.4929 89.2716 39.3178 90.7124 39.4862C91.436 39.5708 91.9486 39.7337 92.2656 39.9074C92.4183 39.9911 92.5028 40.065 92.546 40.1127C92.5852 40.1561 92.5917 40.179 92.5927 40.1825C92.5941 40.1872 92.5999 40.2099 92.5904 40.2655C92.5795 40.329 92.5478 40.4366 92.4638 40.5891C92.2892 40.9057 91.9437 41.3179 91.3781 41.7772C90.2521 42.6915 88.4863 43.605 86.3425 44.2281C84.1987 44.8511 82.2184 45.0262 80.7776 44.8578C80.054 44.7732 79.5414 44.6103 79.2244 44.4366C79.0717 44.3529 78.9872 44.279 78.944 44.2313C78.9062 44.1894 78.8989 44.1671 78.8976 44.1624C78.8965 44.1589 78.8898 44.1362 78.8996 44.0785C78.9105 44.015 78.9422 43.9073 79.0262 43.7549C79.2008 43.4383 79.5463 43.0261 80.1119 42.5668C81.2379 41.6525 83.0037 40.739 85.1475 40.1159Z" stroke="white" stroke-width="3"/>
<path d="M123.716 11.1476C125.977 10.755 128.022 10.7964 129.478 11.1265C130.209 11.2923 130.717 11.5142 131.024 11.7272C131.173 11.8302 131.252 11.9161 131.292 11.9702C131.327 12.0194 131.331 12.0429 131.332 12.0465C131.332 12.0508 131.336 12.0744 131.32 12.1319C131.301 12.1962 131.255 12.3036 131.15 12.4508C130.932 12.7548 130.529 13.135 129.897 13.5376C128.637 14.3391 126.726 15.0674 124.465 15.46C122.203 15.8527 120.158 15.8113 118.703 15.4812C117.971 15.3154 117.463 15.0934 117.156 14.8804C117.008 14.7774 116.928 14.6916 116.889 14.6374C116.854 14.5889 116.85 14.5654 116.849 14.5611C116.848 14.5574 116.844 14.5341 116.861 14.4758C116.88 14.4115 116.925 14.3039 117.031 14.1569C117.248 13.8528 117.651 13.4726 118.284 13.07C119.543 12.2685 121.455 11.5402 123.716 11.1476Z" stroke="white" stroke-width="3"/>
<path d="M144.715 22.8968C146.722 22.8366 148.479 23.1289 149.683 23.5928C150.288 23.826 150.683 24.0756 150.903 24.2821C151.016 24.3871 151.059 24.4573 151.075 24.4909C151.061 24.5253 151.022 24.5986 150.916 24.7106C150.708 24.93 150.329 25.2018 149.739 25.4709C148.565 26.0062 146.829 26.4033 144.822 26.4636C142.814 26.5238 141.056 26.2316 139.852 25.7676C139.248 25.5346 138.854 25.2857 138.633 25.0793C138.52 24.9733 138.475 24.9028 138.459 24.8695C138.473 24.8352 138.514 24.7629 138.62 24.6507C138.828 24.4314 139.206 24.1585 139.796 23.8895C140.97 23.3542 142.707 22.9571 144.715 22.8968Z" stroke="white" stroke-width="3"/>
<path d="M176.144 43.0693C178.023 43.1146 179.645 43.4777 180.738 43.9702C181.288 44.2177 181.634 44.4672 181.821 44.6624C181.884 44.7286 181.917 44.7781 181.936 44.8098C181.916 44.8404 181.88 44.889 181.814 44.9524C181.618 45.1383 181.26 45.37 180.699 45.5908C179.584 46.0301 177.946 46.3157 176.067 46.2706C174.189 46.2254 172.567 45.8612 171.473 45.3688C170.924 45.1212 170.577 44.8727 170.39 44.6775C170.326 44.6107 170.292 44.5607 170.274 44.5291C170.294 44.4985 170.331 44.4509 170.397 44.3875C170.593 44.2015 170.952 43.969 171.512 43.7481C172.628 43.3089 174.266 43.0241 176.144 43.0693Z" stroke="white" stroke-width="3"/>
<path d="M155.075 8.05321C157.295 8.28753 159.194 8.8746 160.464 9.57552C161.102 9.9276 161.515 10.2722 161.743 10.553C161.852 10.6882 161.902 10.7886 161.924 10.8491C161.944 10.9042 161.942 10.9277 161.941 10.9314C161.941 10.9363 161.938 10.9595 161.908 11.0074C161.874 11.062 161.804 11.1497 161.668 11.259C161.387 11.4861 160.911 11.7369 160.214 11.9481C158.825 12.3685 156.845 12.5461 154.625 12.3118C152.405 12.0775 150.506 11.4904 149.236 10.7895C148.598 10.4374 148.185 10.0928 147.957 9.812C147.847 9.67677 147.797 9.5764 147.775 9.51589C147.756 9.46281 147.758 9.43943 147.758 9.43456C147.759 9.43089 147.761 9.40729 147.792 9.35759C147.826 9.30299 147.896 9.21532 148.032 9.10596C148.313 8.87894 148.789 8.62808 149.486 8.41691C150.874 7.99655 152.854 7.8189 155.075 8.05321Z" stroke="white" stroke-width="3"/>
<path d="M178.112 24.5C180.106 24.8389 181.783 25.4777 182.88 26.1772C183.431 26.5287 183.772 26.8548 183.95 27.105C184.049 27.2439 184.075 27.3266 184.082 27.3612C184.064 27.3917 184.012 27.4613 183.873 27.5595C183.623 27.7369 183.193 27.9319 182.556 28.0815C181.29 28.3791 179.496 28.428 177.502 28.0892C175.508 27.7502 173.83 27.1113 172.733 26.4118C172.182 26.0604 171.842 25.7343 171.664 25.4841C171.565 25.3453 171.538 25.2625 171.531 25.2278C171.549 25.1975 171.601 25.1284 171.741 25.0297C171.992 24.8523 172.421 24.6571 173.057 24.5075C174.324 24.2098 176.118 24.1611 178.112 24.5Z" stroke="white" stroke-width="3"/>
<mask id="path-12-inside-1_244_3816" fill="white">
<ellipse cx="185.54" cy="15.0244" rx="7.17526" ry="2.77949" transform="rotate(18.5688 185.54 15.0244)"/>
</mask>
<path d="M189.498 16.354C189.735 15.6489 190.235 15.4179 190.246 15.413C190.255 15.4091 190.065 15.4845 189.587 15.5063C188.652 15.5489 187.228 15.3591 185.61 14.8154L183.699 20.5031C185.837 21.2213 188.013 21.5842 189.86 21.5001C190.773 21.4585 191.77 21.3009 192.679 20.8978C193.59 20.4936 194.704 19.6974 195.185 18.2647L189.498 16.354ZM185.61 14.8154C183.992 14.2717 182.742 13.5637 182.022 12.9651C181.655 12.6592 181.549 12.4843 181.553 12.4927C181.559 12.5034 181.819 12.9897 181.582 13.6949L175.894 11.7842C175.413 13.2169 175.82 14.5242 176.303 15.3966C176.784 16.2667 177.484 16.9942 178.186 17.5786C179.608 18.7606 181.561 19.7848 183.699 20.5031L185.61 14.8154ZM181.582 13.6949C181.345 14.4 180.844 14.631 180.833 14.6359C180.825 14.6398 181.014 14.5643 181.493 14.5426C182.428 14.5 183.851 14.6898 185.47 15.2335L187.38 9.54583C185.242 8.82758 183.067 8.46473 181.22 8.54879C180.307 8.59035 179.31 8.74802 178.401 9.15109C177.49 9.55524 176.376 10.3514 175.894 11.7842L181.582 13.6949ZM185.47 15.2335C187.088 15.7772 188.337 16.4852 189.057 17.0838C189.425 17.3897 189.531 17.5646 189.526 17.5562C189.52 17.5455 189.261 17.0592 189.498 16.354L195.185 18.2647C195.667 16.8319 195.259 15.5246 194.777 14.6523C194.296 13.7822 193.596 13.0547 192.893 12.4703C191.472 11.2883 189.518 10.2641 187.38 9.54583L185.47 15.2335Z" fill="white" mask="url(#path-12-inside-1_244_3816)"/>
<path d="M208.642 33.7117C210.475 34.2054 211.981 34.9503 212.937 35.696C213.418 36.0709 213.7 36.3993 213.837 36.6374C213.887 36.7244 213.908 36.7849 213.918 36.821C213.891 36.8471 213.843 36.889 213.756 36.9391C213.517 37.076 213.108 37.2191 212.504 37.3018C211.303 37.4663 209.627 37.3539 207.794 36.8602C205.961 36.3664 204.454 35.6214 203.498 34.8756C203.018 34.5008 202.736 34.1716 202.599 33.9335C202.548 33.8455 202.526 33.7854 202.516 33.7494C202.543 33.7233 202.593 33.6822 202.68 33.6318C202.919 33.495 203.327 33.3525 203.931 33.2698C205.132 33.1053 206.809 33.2179 208.642 33.7117Z" stroke="white" stroke-width="3"/>
<mask id="path-15-inside-2_244_3816" fill="white">
<ellipse cx="212.881" cy="24.4179" rx="6.02948" ry="2.54368" transform="rotate(12.5629 212.881 24.4179)"/>
</mask>
<path d="M215.838 25.0769C215.986 24.4129 216.401 24.1102 216.482 24.0587C216.55 24.016 216.463 24.0859 216.114 24.1493C215.43 24.2737 214.311 24.2692 212.98 23.9725L211.675 29.8289C213.594 30.2566 215.542 30.3519 217.188 30.0524C218.005 29.9038 218.899 29.6308 219.694 29.1268C220.503 28.614 221.394 27.7315 221.694 26.3819L215.838 25.0769ZM212.98 23.9725C211.649 23.6759 210.634 23.2049 210.068 22.8019C209.779 22.5966 209.73 22.4963 209.773 22.5635C209.825 22.6446 210.072 23.095 209.924 23.759L204.068 22.4539C203.767 23.8035 204.198 24.9804 204.713 25.7883C205.219 26.5824 205.913 27.2091 206.589 27.6904C207.952 28.6607 209.756 29.4012 211.675 29.8289L212.98 23.9725ZM209.924 23.759C209.776 24.423 209.361 24.7257 209.28 24.7771C209.212 24.8198 209.299 24.7499 209.648 24.6865C210.332 24.5621 211.451 24.5667 212.782 24.8633L214.087 19.007C212.168 18.5793 210.22 18.4839 208.574 18.7834C207.757 18.932 206.863 19.205 206.068 19.7091C205.259 20.2219 204.368 21.1043 204.068 22.4539L209.924 23.759ZM212.782 24.8633C214.113 25.1599 215.128 25.631 215.694 26.034C215.983 26.2392 216.032 26.3396 215.989 26.2723C215.937 26.1912 215.69 25.7409 215.838 25.0769L221.694 26.3819C221.995 25.0323 221.564 23.8554 221.049 23.0475C220.543 22.2535 219.849 21.6268 219.173 21.1454C217.81 20.1752 216.006 19.4346 214.087 19.007L212.782 24.8633Z" fill="white" mask="url(#path-15-inside-2_244_3816)"/>
</svg>
