<svg width="29" height="29" viewBox="0 0 29 29" fill="none" xmlns="http://www.w3.org/2000/svg">
<path d="M1 14.5H8.5M1 14.5C1 21.9558 7.04416 28 14.5 28M1 14.5C1 7.04416 7.04416 1 14.5 1M8.5 14.5H20.5M8.5 14.5C8.5 21.9558 11.1863 28 14.5 28M8.5 14.5C8.5 7.04416 11.1863 1 14.5 1M20.5 14.5H28M20.5 14.5C20.5 7.04416 17.8137 1 14.5 1M20.5 14.5C20.5 21.9558 17.8137 28 14.5 28M28 14.5C28 7.04416 21.9558 1 14.5 1M28 14.5C28 21.9558 21.9558 28 14.5 28" stroke="#00FF64" stroke-width="2" stroke-linecap="round" stroke-linejoin="round"/>
</svg>
