<svg xmlns="http://www.w3.org/2000/svg" width="25" height="25" fill="#2e3e40" xmlns:v="https://vecta.io/nano"><path d="M12.5 0L7.346.075c-1.33.061-2.239.272-3.034.581-.822.319-1.519.747-2.214 1.442S.976 3.49.656 4.312c-.309.795-.52 1.704-.581 3.034L0 12.5l.075 5.154c.061 1.331.272 2.239.581 3.034.319.822.747 1.519 1.442 2.214s1.392 1.122 2.214 1.442c.795.309 1.704.52 3.034.581L12.5 25l5.154-.075c1.331-.061 2.239-.272 3.034-.581.822-.32 1.519-.747 2.214-1.442s1.122-1.392 1.442-2.214c.309-.795.52-1.704.581-3.034L25 12.5l-.075-5.154c-.061-1.33-.272-2.239-.581-3.034-.32-.822-.747-1.519-1.442-2.214S21.51.976 20.688.656c-.795-.309-1.704-.52-3.034-.581L12.5 0zm0 2.252l5.051.073c1.219.056 1.881.259 2.321.43a3.87 3.87 0 0 1 1.437.935c.437.437.708.854.935 1.437.171.44.375 1.102.43 2.321l.073 5.051-.073 5.051c-.056 1.219-.259 1.881-.43 2.321a3.87 3.87 0 0 1-.935 1.437 3.87 3.87 0 0 1-1.437.935c-.44.171-1.102.375-2.321.43l-5.051.073c-3.338 0-3.733-.013-5.051-.073-1.219-.056-1.881-.259-2.321-.43-.583-.227-1-.498-1.437-.935a3.87 3.87 0 0 1-.935-1.437c-.171-.44-.375-1.102-.43-2.321L2.252 12.5l.073-5.051c.056-1.219.259-1.881.43-2.321a3.87 3.87 0 0 1 .935-1.437 3.87 3.87 0 0 1 1.437-.935c.44-.171 1.102-.375 2.321-.43l5.051-.073z"/><path d="M12.5 16.667A4.17 4.17 0 0 1 8.334 12.5 4.17 4.17 0 0 1 12.5 8.333a4.17 4.17 0 0 1 4.167 4.167 4.17 4.17 0 0 1-4.167 4.167zm0-10.586A6.42 6.42 0 0 0 6.081 12.5a6.42 6.42 0 0 0 6.419 6.419 6.42 6.42 0 0 0 6.419-6.419A6.42 6.42 0 0 0 12.5 6.081zm8.173-.254a1.5 1.5 0 1 1-3 0 1.5 1.5 0 1 1 3 0z"/></svg>