<svg xmlns="http://www.w3.org/2000/svg" width="55" height="55" fill="none" xmlns:v="https://vecta.io/nano"><circle cx="27.5" cy="27.5" r="27.5" fill="#00ff64"/><g stroke="#000"><path d="M24.243 29.425l.919-1.109-1.65-2.054"/><path d="M39.331 39.118l5.495-6.542-.953-1.622-.561-1.901-.336-2.572-.392-2.796-1.29-3.075-1.962-1.957-2.691-1.398-1.57-.503-2.972-.391-1.233-.727-2.243-.783h-1.794l-4.598 1.957-5.719.28-2.747.783-1.906 1.845-1.682 2.293.617 1.677 1.514 1.286 1.458 1.733.224-1.733h.785l1.402 1.51.336-1.677h.505l1.29 1.677.28-1.677h1.009l1.009 1.677.28-1.677.953.391 3.252 2.069h1.402l1.794-.783.673.783-.673 1.174-1.794.951h-3.7l-1.234-1.286-.28 1.286h-1.009l-.673.28-1.009-.895v1.901l-.897.503-1.177-1.062-.336 1.789h-.785l-1.009-1.23-.393 1.23-1.682.671v2.013l2.635 1.733h5.326l2.523-.447h2.018l2.018 1.007 2.131 3.131 10.373-.895z" fill="#00ff64"/><path d="M12.925 22l1.1-1.375m12.1 15.813l3.305-.055 6.386-4.418.896-2.264"/><g fill="#00ff64"><path d="M25.224 17.198c-.391.168-.837.898-.837.898-.112.337-.056 1.01.391 1.795s1.228 1.122 1.507 1.234c0 0 2.121.112 2.4 0s.781-.561 1.005-.841.168-1.907 0-2.188-.614-.673-1.005-.898-3.07-.168-3.461 0z"/><path d="M25.411 17.453c-.352.146-.754.778-.754.778-.101.292-.05.875.352 1.556s1.105.972 1.357 1.07c0 0 1.909.097 2.16 0s.703-.486.904-.729.151-1.653 0-1.896-.553-.584-.904-.778-2.763-.146-3.115 0z"/></g><path d="M29.838 19.272l7.678.168c.389.28 1.502 2.243 1.502 2.243l.445.729"/></g></svg>