<svg width="230" height="50" viewBox="0 0 230 50" fill="none" xmlns="http://www.w3.org/2000/svg">
<path d="M25 24.5764C25 17.6306 19.4036 12 12.5 12C5.59644 12 0 17.6306 0 24.5764C0 30.8536 4.57109 36.0565 10.5469 37V28.2118H7.37305V24.5764H10.5469V21.8057C10.5469 18.6537 12.413 16.9127 15.2683 16.9127C16.6359 16.9127 18.0664 17.1583 18.0664 17.1583V20.2533H16.4902C14.9374 20.2533 14.4531 21.2227 14.4531 22.2172V24.5764H17.9199L17.3657 28.2118H14.4531V37C20.429 36.0565 25 30.8536 25 24.5764Z" fill="#2E3E40"/>
<path d="M72.5 12C69.1052 12 68.6795 12.0144 67.3463 12.0752C66.0158 12.136 65.1071 12.3472 64.312 12.6563C63.49 12.9757 62.7929 13.4031 62.098 14.098C61.4031 14.7929 60.9757 15.49 60.6562 16.312C60.3472 17.1071 60.1359 18.0158 60.0752 19.3463C60.0143 20.6795 60 21.1052 60 24.5C60 27.8948 60.0143 28.3205 60.0752 29.6537C60.1359 30.9842 60.3472 31.8929 60.6562 32.688C60.9757 33.51 61.4031 34.2071 62.098 34.902C62.7929 35.5969 63.49 36.0243 64.312 36.3438C65.1071 36.6528 66.0158 36.8641 67.3463 36.9248C68.6795 36.9856 69.1052 37 72.5 37C75.8948 37 76.3205 36.9856 77.6537 36.9248C78.9842 36.8641 79.8929 36.6528 80.688 36.3438C81.51 36.0243 82.2071 35.5969 82.902 34.902C83.5969 34.2071 84.0243 33.51 84.3438 32.688C84.6528 31.8929 84.8641 30.9842 84.9248 29.6537C84.9856 28.3205 85 27.8948 85 24.5C85 21.1052 84.9856 20.6795 84.9248 19.3463C84.8641 18.0158 84.6528 17.1071 84.3438 16.312C84.0243 15.49 83.5969 14.7929 82.902 14.098C82.2071 13.4031 81.51 12.9757 80.688 12.6563C79.8929 12.3472 78.9842 12.136 77.6537 12.0752C76.3205 12.0144 75.8948 12 72.5 12ZM72.5 14.2523C75.8376 14.2523 76.233 14.265 77.5511 14.3251C78.7698 14.3808 79.4317 14.5844 79.8721 14.7555C80.4556 14.9823 80.872 15.2532 81.3094 15.6906C81.7468 16.128 82.0177 16.5444 82.2445 17.1279C82.4157 17.5683 82.6193 18.2302 82.6749 19.4489C82.735 20.767 82.7478 21.1624 82.7478 24.5C82.7478 27.8376 82.735 28.233 82.6749 29.5511C82.6193 30.7698 82.4157 31.4317 82.2445 31.8721C82.0177 32.4556 81.7468 32.872 81.3094 33.3094C80.872 33.7468 80.4556 34.0177 79.8721 34.2445C79.4317 34.4157 78.7698 34.6193 77.5511 34.6749C76.2332 34.735 75.8379 34.7478 72.5 34.7478C69.1621 34.7478 68.7669 34.735 67.4489 34.6749C66.2302 34.6193 65.5683 34.4157 65.1279 34.2445C64.5444 34.0177 64.128 33.7468 63.6905 33.3094C63.2532 32.872 62.9822 32.4556 62.7555 31.8721C62.5843 31.4317 62.3807 30.7698 62.3251 29.5511C62.265 28.233 62.2522 27.8376 62.2522 24.5C62.2522 21.1624 62.265 20.767 62.3251 19.4489C62.3807 18.2302 62.5843 17.5683 62.7555 17.1279C62.9822 16.5444 63.2532 16.128 63.6905 15.6906C64.128 15.2532 64.5444 14.9823 65.1279 14.7555C65.5683 14.5844 66.2302 14.3808 67.4489 14.3251C68.767 14.265 69.1624 14.2523 72.5 14.2523Z" fill="#2E3E40"/>
<path d="M72.5002 28.6666C70.199 28.6666 68.3335 26.8012 68.3335 24.5C68.3335 22.1988 70.199 20.3333 72.5002 20.3333C74.8014 20.3333 76.6669 22.1988 76.6669 24.5C76.6669 26.8012 74.8014 28.6666 72.5002 28.6666ZM72.5002 18.0811C68.9551 18.0811 66.0813 20.9549 66.0813 24.5C66.0813 28.0451 68.9551 30.9189 72.5002 30.9189C76.0453 30.9189 78.9191 28.0451 78.9191 24.5C78.9191 20.9549 76.0453 18.0811 72.5002 18.0811Z" fill="#2E3E40"/>
<path d="M80.6729 17.8271C80.6729 18.6556 80.0013 19.3271 79.1728 19.3271C78.3444 19.3271 77.6729 18.6556 77.6729 17.8271C77.6729 16.9987 78.3444 16.3271 79.1728 16.3271C80.0013 16.3271 80.6729 16.9987 80.6729 17.8271Z" fill="#2E3E40"/>
<path d="M144.478 17.9669C144.19 16.799 143.343 15.8794 142.268 15.5672C140.318 15 132.5 15 132.5 15C132.5 15 124.682 15 122.732 15.5672C121.657 15.8794 120.81 16.799 120.522 17.9669C120 20.0836 120 24.5002 120 24.5002C120 24.5002 120 28.9166 120.522 31.0331C120.81 32.201 121.657 33.1209 122.732 33.433C124.682 34 132.5 34 132.5 34C132.5 34 140.318 34 142.268 33.433C143.343 33.1209 144.19 32.201 144.478 31.0331C145 28.9166 145 24.5002 145 24.5002C145 24.5002 145 20.0836 144.478 17.9669ZM130 28.5716V20.4286L136.495 24.5002L130 28.5716Z" fill="#2E3E40"/>
<path d="M194.878 22.5858L204.185 12H201.98L193.899 21.1915L187.444 12H180L189.76 25.8992L180 37H182.206L190.739 27.2935L197.556 37H205L194.878 22.5858H194.878ZM191.858 26.0216L190.869 24.6376L183 13.6246H186.388L192.738 22.5124L193.727 23.8965L201.981 35.4493H198.593L191.858 26.0222V26.0216Z" fill="#2E3E40"/>
</svg>
