<svg width="25" height="19" viewBox="0 0 25 19" fill="none" xmlns="http://www.w3.org/2000/svg">
<path d="M24.4777 2.96689C24.1903 1.79901 23.3432 0.879386 22.2675 0.567243C20.3177 -1.78135e-07 12.5 0 12.5 0C12.5 0 4.68228 -1.78135e-07 2.73248 0.567243C1.65699 0.879386 0.809767 1.79901 0.522316 2.96689C0 5.08361 0 9.50016 0 9.50016C0 9.50016 0 13.9166 0.522316 16.0331C0.809767 17.201 1.65699 18.1209 2.73248 18.433C4.68228 19 12.5 19 12.5 19C12.5 19 20.3177 19 22.2675 18.433C23.3432 18.1209 24.1903 17.201 24.4777 16.0331C25 13.9166 25 9.50016 25 9.50016C25 9.50016 25 5.08361 24.4777 2.96689ZM9.99987 13.5716V5.42862L16.495 9.50016L9.99987 13.5716Z" fill="#2E3E40"/>
</svg>
