<svg xmlns="http://www.w3.org/2000/svg" width="453" height="358" fill="none" xmlns:v="https://vecta.io/nano"><g filter="url(#A)"><path fill-rule="evenodd" d="M384.991 260.881H257.994 71.499a4 4 0 0 1-4-4V144.474a4 4 0 0 1 4-4h77.93c2.293 0 3.44 0 4.248-.62s1.118-1.779 1.74-4.097c11.638-43.429 53.15-75.554 102.577-75.554s90.94 32.125 102.578 75.554c.621 2.318.932 3.477 1.74 4.097s1.954.62 4.247.62h18.432c35.069 0 63.499 26.954 63.499 60.203s-28.43 60.204-63.499 60.204z" fill="#f3f2f2"/></g><g filter="url(#B)"><path fill-rule="evenodd" d="M100.076 312.927C47.015 312.927 4 270.551 4 218.277s43.015-94.651 96.076-94.651c45.226 0 83.154 30.787 93.368 72.248.814 3.303 1.221 4.954 2.274 5.598s2.76.241 6.174-.565c4.323-1.02 8.834-1.56 13.474-1.56 31.837 0 57.646 25.426 57.646 56.791s-25.809 56.79-57.646 56.79c-17.873 0-33.846-8.013-44.42-20.592-2.242-2.668-3.364-4.002-4.587-4.118s-2.529.947-5.141 3.072c-16.612 13.517-37.915 21.637-61.142 21.637z" fill="#dad9d9"/></g><defs><filter id="A" x="63.499" y="60.203" width="388.991" height="208.677" filterUnits="userSpaceOnUse" color-interpolation-filters="sRGB"><feFlood flood-opacity="0" result="A"/><feColorMatrix in="SourceAlpha" values="0 0 0 0 0 0 0 0 0 0 0 0 0 0 0 0 0 0 127 0" result="B"/><feOffset dy="4"/><feGaussianBlur stdDeviation="2"/><feComposite in2="B" operator="out"/><feColorMatrix values="0 0 0 0 0 0 0 0 0 0 0 0 0 0 0 0 0 0 0.25 0"/><feBlend in2="A"/><feBlend in="SourceGraphic"/></filter><filter id="B" x="0" y="123.626" width="277.012" height="197.302" filterUnits="userSpaceOnUse" color-interpolation-filters="sRGB"><feFlood flood-opacity="0" result="A"/><feColorMatrix in="SourceAlpha" values="0 0 0 0 0 0 0 0 0 0 0 0 0 0 0 0 0 0 127 0" result="B"/><feOffset dy="4"/><feGaussianBlur stdDeviation="2"/><feComposite in2="B" operator="out"/><feColorMatrix values="0 0 0 0 0 0 0 0 0 0 0 0 0 0 0 0 0 0 0.25 0"/><feBlend in2="A"/><feBlend in="SourceGraphic"/></filter></defs></svg>