<svg xmlns="http://www.w3.org/2000/svg" width="349" height="278" fill="none" xmlns:v="https://vecta.io/nano"><g filter="url(#A)"><path fill-rule="evenodd" d="M53.25 202.583h97.25 141.875a4 4 0 0 0 4-4v-85.5a4 4 0 0 0-4-4h-57.589c-2.29 0-3.435 0-4.239-.609s-1.131-1.779-1.786-4.117C219.467 71.173 187.95 46.75 150.5 46.75s-68.967 24.423-78.261 57.607c-.655 2.338-.982 3.507-1.786 4.117s-1.949.609-4.239.609H53.25c-26.855 0-48.625 20.931-48.625 46.75s21.77 46.75 48.625 46.75z" fill="#f3f2f2"/></g><g filter="url(#B)"><path fill-rule="evenodd" d="M271.428 242.999c40.633 0 73.572-32.907 73.572-73.499S312.061 96 271.428 96c-34.044 0-62.688 23.102-71.081 54.47-.884 3.302-1.326 4.954-2.331 5.58s-2.76.28-6.269-.412c-2.783-.55-5.66-.838-8.604-.838-24.38 0-44.143 19.745-44.143 44.1s19.763 44.1 44.143 44.1c13.06 0 24.795-5.666 32.877-14.671 2.383-2.655 3.575-3.983 4.756-4.086s2.521.951 5.203 3.058c12.512 9.833 28.295 15.698 45.449 15.698z" fill="#dad9d9"/></g><defs><filter id="A" x=".625" y="46.75" width="299.75" height="163.833" filterUnits="userSpaceOnUse" color-interpolation-filters="sRGB"><feFlood flood-opacity="0" result="A"/><feColorMatrix in="SourceAlpha" values="0 0 0 0 0 0 0 0 0 0 0 0 0 0 0 0 0 0 127 0" result="B"/><feOffset dy="4"/><feGaussianBlur stdDeviation="2"/><feComposite in2="B" operator="out"/><feColorMatrix values="0 0 0 0 0 0 0 0 0 0 0 0 0 0 0 0 0 0 0.25 0"/><feBlend in2="A"/><feBlend in="SourceGraphic"/></filter><filter id="B" x="135" y="96" width="214" height="155" filterUnits="userSpaceOnUse" color-interpolation-filters="sRGB"><feFlood flood-opacity="0" result="A"/><feColorMatrix in="SourceAlpha" values="0 0 0 0 0 0 0 0 0 0 0 0 0 0 0 0 0 0 127 0" result="B"/><feOffset dy="4"/><feGaussianBlur stdDeviation="2"/><feComposite in2="B" operator="out"/><feColorMatrix values="0 0 0 0 0 0 0 0 0 0 0 0 0 0 0 0 0 0 0.25 0"/><feBlend in2="A"/><feBlend in="SourceGraphic"/></filter></defs></svg>