<svg xmlns="http://www.w3.org/2000/svg" width="1440" height="1487" fill="none" xmlns:v="https://vecta.io/nano"><style><![CDATA[.B{color-interpolation-filters:sRGB}.C{flood-opacity:0}.D{fill:#8cc0ce}.E{fill:#537152}]]></style><g filter="url(#A)"><circle cx="723.5" cy="739.5" r="739.5" transform="rotate(180 723.5 739.5)" fill="#164267"/></g><g filter="url(#B)" class="D"><path d="M144.667 744.007l-35-60.61V566.84l-30.334-13.987L63 529.542v74.596h30.333v65.272l28 74.597h23.334z"/><path d="M217 744.007L245 924.5l105 167 77 165.5 188.5 77 555-112 51-37.5-2-27.75-2-27.75-18.17-61.5 37.34-87.5-28-120.5-39.67-52-60.67-17-23.33-46.493-21-20.981-21-53.616-21-46.623-30.333-32.635L1064 534.204l81.67 18.649 91-62.94 44.33-81.59L889 23.686S842.333 2.705 753.667.374 602 7.368 602 7.368l14 51.285 91 13.987 67.667 41.961 11.666 34.967-11.666 37.298L742 161.223l-49-20.981-53.667-11.655-32.666 11.655L497 221.832l-7-34.967h-37.333l56-37.298 14-51.285H581l11.667-25.642h-70L602 7.368 490 63.315V114.6l-53.667 46.623-42-20.981-25.666 9.325L336 214.839l32.667 25.642 18.666 37.298-84 146.862-46.666 109.563L231 529.542l14-95.577 25.667-100.238h-23.334l-49 90.914v104.901L217 622.787l-18.667 18.65L217 669.41v74.597z"/><path d="M1208.67 618.125L1162 632.112l-67.67 4.662 14 53.616 60.67 25.643L1199.33 751l9.34-132.875z"/></g><g filter="url(#C)" class="E"><path d="M338.362 744l-11.67-20.981h-42.013L245 690.383l2.334-107.235 53.683-13.987 58.352 20.98c1.867 0 11.67-21.757 16.338-32.636l-23.34-41.962 23.34-46.623-7.002-60.611 70.022-81.592 11.67-67.604 72.356-18.65 58.351-46.624h37.345l42.013-20.98h53.683l-9.336 32.636-58.351 34.968-21.007 32.637 51.349-6.994 79.358-25.643 42.013-4.662 21.007-23.312 11.67 27.974 14.004 51.286 18.673 53.618 7.002 44.292 18.673-9.325V280.093l37.344-27.974 53.684 20.981v-60.611l-65.354 11.656-44.347-58.28-25.675-20.981-39.678 20.981-7.003-55.949 39.679-20.98-23.34-30.305 23.34-23.312L849.521 19s135.375 2.331 275.419 97.91S1321 305.736 1321 305.736l-11.67 95.579-35.01 27.974h-49.02l-25.67-58.279-44.35-16.319-11.67 34.968 42.01 27.974 14.01 51.287-56.02 46.623-37.34 11.656-102.7 13.987-23.342 60.611-35.011 65.274v30.305l23.34 11.656L952.219 744v30L994 794.5l37 37h28l27.5 46.5 38.44-28 30.34 11v52.5l-21 70.5 9.33 39H1181l34-63v53.5l-29.38 45-60.68 24-93.94 63-62.443-9-16.338 50h51.351l102.7-50 56.73-45 10.95 35.5-49.01 44.5v65l-90.44 52.5-215.322 68.5-200.729-11L466 1276l-54-89.5-36.293-104L313.5 997 263 878l21.679 18.5 16.338-18.5v-46.5L272.5 811v-37l65.862-30z"/><path d="M1134.28 667.071h-9.34l9.34 16.318 39.67 20.981 11.67-6.994-11.67-18.649-39.67-11.656z"/></g><g filter="url(#D)" class="E"><path d="M1182 858.5l6-26.5 20 26.5h-26z"/></g><defs><filter id="A" x="-20" y="0" width="1487" height="1487" filterUnits="userSpaceOnUse" class="B"><feFlood result="A" class="C"/><feColorMatrix in="SourceAlpha" values="0 0 0 0 0 0 0 0 0 0 0 0 0 0 0 0 0 0 127 0" result="B"/><feOffset dy="4"/><feGaussianBlur stdDeviation="2"/><feComposite in2="B" operator="out"/><feColorMatrix values="0 0 0 0 0 0 0 0 0 0 0 0 0 0 0 0 0 0 0.25 0"/><feBlend in2="A"/><feBlend in="SourceGraphic"/></filter><filter id="B" x="59" y="0" width="1226" height="1342" filterUnits="userSpaceOnUse" class="B"><feFlood result="A" class="C"/><feColorMatrix in="SourceAlpha" values="0 0 0 0 0 0 0 0 0 0 0 0 0 0 0 0 0 0 127 0" result="B"/><feOffset dy="4"/><feGaussianBlur stdDeviation="2"/><feComposite in2="B" operator="out"/><feColorMatrix values="0 0 0 0 0 0 0 0 0 0 0 0 0 0 0 0 0 0 0.25 0"/><feBlend in2="A"/><feBlend in="SourceGraphic" result="D"/><feColorMatrix in="SourceAlpha" values="0 0 0 0 0 0 0 0 0 0 0 0 0 0 0 0 0 0 127 0" result="B"/><feOffset dy="4"/><feGaussianBlur stdDeviation="2"/><feComposite in2="B" operator="arithmetic" k2="-1" k3="1"/><feColorMatrix values="0 0 0 0 0 0 0 0 0 0 0 0 0 0 0 0 0 0 0.25 0"/><feBlend in2="D"/></filter><filter id="C" x="241" y="19" width="1084" height="1346.5" filterUnits="userSpaceOnUse" class="B"><feFlood result="A" class="C"/><feColorMatrix in="SourceAlpha" values="0 0 0 0 0 0 0 0 0 0 0 0 0 0 0 0 0 0 127 0" result="B"/><feOffset dy="4"/><feGaussianBlur stdDeviation="2"/><feComposite in2="B" operator="out"/><feColorMatrix values="0 0 0 0 0 0 0 0 0 0 0 0 0 0 0 0 0 0 0.25 0"/><feBlend in2="A" result="C"/><feColorMatrix in="SourceAlpha" values="0 0 0 0 0 0 0 0 0 0 0 0 0 0 0 0 0 0 127 0" result="B"/><feOffset dy="4"/><feGaussianBlur stdDeviation="2"/><feComposite in2="B" operator="out"/><feColorMatrix values="0 0 0 0 0 0 0 0 0 0 0 0 0 0 0 0 0 0 0.25 0"/><feBlend in2="C"/><feBlend in="SourceGraphic"/></filter><filter id="D" x="1178" y="832" width="34" height="34.5" filterUnits="userSpaceOnUse" class="B"><feFlood result="A" class="C"/><feColorMatrix in="SourceAlpha" values="0 0 0 0 0 0 0 0 0 0 0 0 0 0 0 0 0 0 127 0" result="B"/><feOffset dy="4"/><feGaussianBlur stdDeviation="2"/><feComposite in2="B" operator="out"/><feColorMatrix values="0 0 0 0 0 0 0 0 0 0 0 0 0 0 0 0 0 0 0.25 0"/><feBlend in2="A"/><feBlend in="SourceGraphic"/></filter></defs></svg>