<svg width="632" height="440" viewBox="0 0 632 440" fill="none" xmlns="http://www.w3.org/2000/svg">
<g filter="url(#filter0_i_115_229)">
<path fill-rule="evenodd" clip-rule="evenodd" d="M0 439.41C37.4278 392.957 77.2543 329.237 110.949 271.133C147.327 208.404 183.706 145.674 220.084 82.945C231.028 64.063 242.119 44.9952 256.721 29.4048C271.323 13.8144 289.992 1.79215 310.277 0.185616C332.739 -1.59438 354.773 9.61836 371.984 25.63C389.191 41.6376 402.332 62.1963 415.27 82.5072C463.076 157.556 501.467 230.098 547.767 315.286C575.783 366.831 599.212 402.923 632 439.014L0 439.41Z" fill="#84B89D"/>
<path fill-rule="evenodd" clip-rule="evenodd" d="M182.251 148.385C178.812 153.688 190.197 138.635 195.18 135.096C198.506 132.733 202.276 130.758 206.238 130.877C220.375 131.298 224.112 155.025 237.4 160.332C247.058 164.193 257.523 156.472 263.46 147.259C266.742 142.169 269.783 136.066 275.221 134.243C280.628 132.428 286.362 135.649 290.807 139.489C295.253 143.324 299.365 148.013 304.768 149.857C314.092 153.045 323.844 146.76 331.188 139.695C334.598 136.408 338.274 132.68 342.806 132.572C352.179 132.346 355.551 146.17 362.888 152.575C363.819 153.387 364.889 154.109 366.08 154.187C367.18 154.258 368.246 153.775 369.204 153.181C383.42 144.384 393.397 120.888 412.056 119.235C421.338 118.414 428.206 124.204 435.509 129.524C444.352 135.962 445.993 137.69 454.28 144.966C446.92 130.362 435.502 114.071 426.114 98.6217C413.096 77.2004 407.339 67.723 386.724 38.5812C370.912 16.232 344.736 1.64049 318.215 0.164014C252.525 -4.2984 224.502 83.2342 182.251 148.385Z" fill="#FFFFFE"/>
<path fill-rule="evenodd" clip-rule="evenodd" d="M181.628 149.518C181.56 149.518 181.745 149.179 182.252 148.398C196.077 127.074 208.378 103.359 220.977 81.2415C231.691 62.8513 242.62 44.3786 256.895 29.1987C271.555 13.6139 290.294 1.59483 310.644 0C310.644 0 288.444 4.27219 218.705 138.771C215.313 134.355 211.503 131.016 206.276 130.859C206.163 130.855 206.046 130.855 205.934 130.855C202.09 130.855 198.435 132.785 195.201 135.086C190.947 138.11 182.027 149.518 181.628 149.518Z" fill="#DCECE0"/>
</g>
<defs>
<filter id="filter0_i_115_229" x="0" y="0" width="632" height="443.41" filterUnits="userSpaceOnUse" color-interpolation-filters="sRGB">
<feFlood flood-opacity="0" result="BackgroundImageFix"/>
<feBlend mode="normal" in="SourceGraphic" in2="BackgroundImageFix" result="shape"/>
<feColorMatrix in="SourceAlpha" type="matrix" values="0 0 0 0 0 0 0 0 0 0 0 0 0 0 0 0 0 0 127 0" result="hardAlpha"/>
<feOffset dy="4"/>
<feGaussianBlur stdDeviation="2"/>
<feComposite in2="hardAlpha" operator="arithmetic" k2="-1" k3="1"/>
<feColorMatrix type="matrix" values="0 0 0 0 0 0 0 0 0 0 0 0 0 0 0 0 0 0 0.25 0"/>
<feBlend mode="normal" in2="shape" result="effect1_innerShadow_115_229"/>
</filter>
</defs>
</svg>
