<svg xmlns="http://www.w3.org/2000/svg" width="797" height="440" fill="none" xmlns:v="https://vecta.io/nano"><style><![CDATA[.B{fill-rule:evenodd}.C{color-interpolation-filters:sRGB}]]></style><g filter="url(#A)" class="B"><path d="M0 439.41c37.428-46.453 77.254-110.173 110.949-168.277L220.084 82.945c10.944-18.882 22.035-37.95 36.637-53.54S289.992 1.792 310.277.186c22.462-1.78 44.496 9.433 61.707 25.444s30.348 36.566 43.286 56.877c47.806 75.049 86.197 147.591 132.497 232.779 28.016 51.545 51.445 87.637 84.233 123.728L0 439.41z" fill="#84b89d"/><path d="M182.251 148.385c-3.439 5.303 7.946-9.75 12.929-13.289 3.327-2.363 7.097-4.338 11.058-4.219 14.138.421 17.874 24.148 31.163 29.455 9.657 3.861 20.123-3.86 26.059-13.073 3.282-5.09 6.323-11.193 11.761-13.016 5.407-1.815 11.141 1.406 15.587 5.246s8.557 8.524 13.961 10.368c9.323 3.188 19.075-3.097 26.42-10.162 3.409-3.287 7.085-7.015 11.617-7.123 9.373-.226 12.745 13.598 20.082 20.003.931.812 2.001 1.534 3.192 1.612 1.1.071 2.166-.412 3.124-1.006 14.216-8.797 24.193-32.293 42.852-33.946 9.282-.821 16.15 4.969 23.453 10.289 8.843 6.438 10.484 8.166 18.771 15.442-7.359-14.604-18.778-30.895-28.166-46.344-13.018-21.421-18.775-30.899-39.389-60.04C370.912 16.232 344.736 1.64 318.215.164c-65.689-4.462-93.713 83.07-135.964 148.221z" fill="#fffffe"/><path d="M181.628 149.518c-.068 0 .117-.339.624-1.12 13.825-21.324 26.126-45.039 38.725-67.156 10.714-18.39 21.643-36.863 35.918-52.043 14.66-15.585 33.4-27.604 53.749-29.199 0 0-22.2 4.272-91.939 138.771-3.392-4.416-7.202-7.755-12.429-7.912-.113-.004-.229-.004-.342-.004-3.844 0-7.499 1.929-10.733 4.231-4.254 3.024-13.174 14.432-13.573 14.432z" fill="#dcece0"/></g><g filter="url(#B)" class="B"><path d="M339 439.41c27.123-33.664 55.985-79.841 80.403-121.948l79.088-136.377c7.932-13.683 15.969-27.501 26.551-38.799s24.111-20.011 38.81-21.175c16.278-1.29 32.246 6.836 44.719 18.439s21.992 26.499 31.368 41.218c34.645 54.387 62.466 106.957 96.019 168.691 20.303 37.354 37.281 63.509 61.042 89.664l-458 .287z" fill="#84b89d"/><path d="M471.075 228.508c-2.493 3.844 5.758-7.065 9.369-9.629 2.411-1.713 5.143-3.145 8.013-3.058 10.246.305 12.953 17.499 22.583 21.346 6.999 2.797 14.583-2.798 18.885-9.475 2.379-3.688 4.583-8.111 8.523-9.432 3.919-1.315 8.074 1.019 11.296 3.802s6.201 6.177 10.117 7.513c6.757 2.311 13.823-2.244 19.146-7.364 2.471-2.382 5.135-5.084 8.419-5.161 6.792-.165 9.236 9.853 14.553 14.495.675.589 1.45 1.112 2.313 1.169.797.05 1.57-.299 2.264-.73 10.302-6.375 17.533-23.402 31.054-24.6 6.727-.595 11.704 3.601 16.997 7.457 6.408 4.665 7.597 5.918 13.603 11.19-5.334-10.583-13.609-22.389-20.412-33.585-9.434-15.524-13.606-22.392-28.545-43.51-11.459-16.196-30.428-26.771-49.648-27.841-47.604-3.233-67.912 60.2-98.53 107.413z" fill="#fffffe"/><path d="M470.623 229.33c-.049 0 .085-.246.452-.812 10.019-15.453 18.933-32.639 28.063-48.667 7.765-13.327 15.685-26.714 26.03-37.715 10.623-11.294 24.204-20.004 38.951-21.159 0 0-16.088 3.096-66.627 100.565-2.458-3.201-5.219-5.62-9.007-5.734-.082-.003-.166-.003-.248-.003-2.785 0-5.434 1.398-7.778 3.066-3.083 2.192-9.547 10.459-9.836 10.459z" fill="#dcece0"/></g><defs><filter id="A" x="0" y="0" width="632" height="443.41" filterUnits="userSpaceOnUse" class="C"><feFlood flood-opacity="0"/><feBlend in="SourceGraphic" result="B"/><feColorMatrix in="SourceAlpha" values="0 0 0 0 0 0 0 0 0 0 0 0 0 0 0 0 0 0 127 0" result="C"/><feOffset dy="4"/><feGaussianBlur stdDeviation="2"/><feComposite in2="C" operator="arithmetic" k2="-1" k3="1"/><feColorMatrix values="0 0 0 0 0 0 0 0 0 0 0 0 0 0 0 0 0 0 0.25 0"/><feBlend in2="B"/></filter><filter id="B" x="339" y="120.977" width="458" height="322.434" filterUnits="userSpaceOnUse" class="C"><feFlood flood-opacity="0"/><feBlend in="SourceGraphic" result="B"/><feColorMatrix in="SourceAlpha" values="0 0 0 0 0 0 0 0 0 0 0 0 0 0 0 0 0 0 127 0" result="C"/><feOffset dy="4"/><feGaussianBlur stdDeviation="2"/><feComposite in2="C" operator="arithmetic" k2="-1" k3="1"/><feColorMatrix values="0 0 0 0 0 0 0 0 0 0 0 0 0 0 0 0 0 0 0.25 0"/><feBlend in2="B"/></filter></defs></svg>