<svg width="797" height="440" viewBox="0 0 797 440" fill="none" xmlns="http://www.w3.org/2000/svg">
<g filter="url(#filter0_i_594_134)">
<path fill-rule="evenodd" clip-rule="evenodd" d="M0 439.41C37.4278 392.957 77.2543 329.237 110.949 271.133C147.327 208.404 183.706 145.674 220.084 82.945C231.028 64.063 242.119 44.9952 256.721 29.4048C271.323 13.8144 289.992 1.79215 310.277 0.185616C332.739 -1.59438 354.773 9.61836 371.984 25.63C389.192 41.6376 402.332 62.1963 415.27 82.5072C463.076 157.556 501.467 230.098 547.767 315.286C575.783 366.831 599.212 402.923 632 439.014L0 439.41Z" fill="#84B89D"/>
<path fill-rule="evenodd" clip-rule="evenodd" d="M182.251 148.385C178.812 153.688 190.197 138.635 195.18 135.096C198.507 132.733 202.277 130.758 206.238 130.877C220.376 131.298 224.112 155.025 237.401 160.332C247.058 164.193 257.524 156.472 263.46 147.259C266.742 142.169 269.783 136.066 275.221 134.243C280.628 132.428 286.362 135.649 290.808 139.489C295.253 143.324 299.365 148.013 304.769 149.857C314.092 153.045 323.844 146.76 331.189 139.695C334.598 136.408 338.274 132.68 342.806 132.572C352.179 132.346 355.551 146.17 362.888 152.575C363.819 153.387 364.889 154.109 366.08 154.187C367.18 154.258 368.246 153.775 369.204 153.181C383.42 144.384 393.397 120.888 412.056 119.235C421.338 118.414 428.206 124.204 435.509 129.524C444.352 135.962 445.993 137.69 454.28 144.966C446.921 130.362 435.502 114.071 426.114 98.6217C413.096 77.2004 407.339 67.723 386.725 38.5812C370.912 16.232 344.736 1.64049 318.215 0.164014C252.526 -4.2984 224.502 83.2342 182.251 148.385Z" fill="#FFFFFE"/>
<path fill-rule="evenodd" clip-rule="evenodd" d="M181.628 149.518C181.56 149.518 181.745 149.179 182.252 148.398C196.077 127.074 208.378 103.359 220.977 81.2415C231.691 62.8513 242.62 44.3786 256.895 29.1987C271.555 13.6139 290.295 1.59483 310.644 0C310.644 0 288.444 4.27219 218.705 138.771C215.313 134.355 211.503 131.016 206.276 130.859C206.163 130.855 206.047 130.855 205.934 130.855C202.09 130.855 198.435 132.784 195.201 135.086C190.947 138.11 182.027 149.518 181.628 149.518Z" fill="#DCECE0"/>
</g>
<g filter="url(#filter1_i_594_134)">
<path fill-rule="evenodd" clip-rule="evenodd" d="M339 439.41C366.123 405.746 394.985 359.569 419.403 317.462C445.766 272.003 472.129 226.544 498.491 181.085C506.423 167.402 514.46 153.584 525.042 142.286C535.624 130.988 549.153 122.275 563.852 121.111C580.13 119.821 596.098 127.947 608.571 139.55C621.041 151.151 630.563 166.049 639.939 180.768C674.584 235.155 702.405 287.725 735.958 349.459C756.261 386.813 773.239 412.968 797 439.123L339 439.41Z" fill="#84B89D"/>
<path fill-rule="evenodd" clip-rule="evenodd" d="M471.075 228.508C468.582 232.352 476.833 221.443 480.444 218.879C482.855 217.166 485.587 215.734 488.457 215.821C498.703 216.126 501.41 233.32 511.04 237.167C518.039 239.964 525.623 234.369 529.925 227.692C532.304 224.004 534.508 219.581 538.448 218.26C542.367 216.945 546.522 219.279 549.744 222.062C552.965 224.841 555.945 228.239 559.861 229.575C566.618 231.886 573.684 227.331 579.007 222.211C581.478 219.829 584.142 217.127 587.426 217.05C594.218 216.885 596.662 226.903 601.979 231.545C602.654 232.134 603.429 232.657 604.292 232.714C605.089 232.764 605.862 232.415 606.556 231.984C616.858 225.609 624.089 208.582 637.61 207.384C644.337 206.789 649.314 210.985 654.607 214.841C661.015 219.506 662.204 220.759 668.21 226.031C662.876 215.448 654.601 203.642 647.798 192.446C638.364 176.922 634.192 170.054 619.253 148.936C607.794 132.74 588.825 122.165 569.605 121.095C522.001 117.862 501.693 181.295 471.075 228.508Z" fill="#FFFFFE"/>
<path fill-rule="evenodd" clip-rule="evenodd" d="M470.623 229.33C470.574 229.33 470.708 229.084 471.075 228.518C481.094 213.065 490.008 195.879 499.138 179.851C506.903 166.524 514.823 153.137 525.168 142.136C535.791 130.842 549.372 122.132 564.119 120.977C564.119 120.977 548.031 124.073 497.492 221.542C495.034 218.341 492.273 215.922 488.485 215.808C488.403 215.805 488.319 215.805 488.237 215.805C485.452 215.805 482.803 217.203 480.459 218.871C477.376 221.063 470.912 229.33 470.623 229.33Z" fill="#DCECE0"/>
</g>
<defs>
<filter id="filter0_i_594_134" x="0" y="0" width="632" height="443.41" filterUnits="userSpaceOnUse" color-interpolation-filters="sRGB">
<feFlood flood-opacity="0" result="BackgroundImageFix"/>
<feBlend mode="normal" in="SourceGraphic" in2="BackgroundImageFix" result="shape"/>
<feColorMatrix in="SourceAlpha" type="matrix" values="0 0 0 0 0 0 0 0 0 0 0 0 0 0 0 0 0 0 127 0" result="hardAlpha"/>
<feOffset dy="4"/>
<feGaussianBlur stdDeviation="2"/>
<feComposite in2="hardAlpha" operator="arithmetic" k2="-1" k3="1"/>
<feColorMatrix type="matrix" values="0 0 0 0 0 0 0 0 0 0 0 0 0 0 0 0 0 0 0.25 0"/>
<feBlend mode="normal" in2="shape" result="effect1_innerShadow_594_134"/>
</filter>
<filter id="filter1_i_594_134" x="339" y="120.977" width="458" height="322.434" filterUnits="userSpaceOnUse" color-interpolation-filters="sRGB">
<feFlood flood-opacity="0" result="BackgroundImageFix"/>
<feBlend mode="normal" in="SourceGraphic" in2="BackgroundImageFix" result="shape"/>
<feColorMatrix in="SourceAlpha" type="matrix" values="0 0 0 0 0 0 0 0 0 0 0 0 0 0 0 0 0 0 127 0" result="hardAlpha"/>
<feOffset dy="4"/>
<feGaussianBlur stdDeviation="2"/>
<feComposite in2="hardAlpha" operator="arithmetic" k2="-1" k3="1"/>
<feColorMatrix type="matrix" values="0 0 0 0 0 0 0 0 0 0 0 0 0 0 0 0 0 0 0.25 0"/>
<feBlend mode="normal" in2="shape" result="effect1_innerShadow_594_134"/>
</filter>
</defs>
</svg>
