<svg width="458" height="320" viewBox="0 0 458 320" fill="none" xmlns="http://www.w3.org/2000/svg">
<g filter="url(#filter0_i_115_230)">
<path fill-rule="evenodd" clip-rule="evenodd" d="M0 319.41C27.1233 285.746 55.9849 239.569 80.403 197.462C106.766 152.003 133.129 106.544 159.491 61.0854C167.423 47.402 175.46 33.5839 186.042 22.2857C196.624 10.9876 210.153 2.27531 224.852 1.11108C241.13 -0.178856 257.098 7.94683 269.571 19.5502C282.041 31.1506 291.563 46.0492 300.939 60.7682C335.584 115.155 363.405 167.725 396.958 229.459C417.261 266.813 434.239 292.968 458 319.123L0 319.41Z" fill="#84B89D"/>
<path fill-rule="evenodd" clip-rule="evenodd" d="M132.075 108.508C129.582 112.352 137.833 101.443 141.444 98.8787C143.855 97.1661 146.587 95.7345 149.457 95.8211C159.703 96.126 162.41 113.32 172.04 117.167C179.039 119.964 186.623 114.369 190.925 107.692C193.304 104.004 195.508 99.581 199.448 98.26C203.367 96.9449 207.522 99.2791 210.744 102.062C213.965 104.841 216.945 108.239 220.861 109.575C227.618 111.886 234.684 107.331 240.007 102.211C242.478 99.8291 245.142 97.1273 248.426 97.0495C255.218 96.8852 257.662 106.903 262.979 111.545C263.654 112.134 264.429 112.657 265.292 112.714C266.089 112.764 266.862 112.415 267.556 111.984C277.858 105.609 285.089 88.5824 298.61 87.3839C305.337 86.7891 310.314 90.9853 315.607 94.8408C322.015 99.5063 323.204 100.759 329.21 106.031C323.876 95.4475 315.601 83.6419 308.798 72.4461C299.364 56.9224 295.192 50.0543 280.253 28.9357C268.794 12.7396 249.825 2.1654 230.605 1.09542C183.001 -2.13842 162.693 61.295 132.075 108.508Z" fill="#FFFFFE"/>
<path fill-rule="evenodd" clip-rule="evenodd" d="M131.623 109.33C131.574 109.33 131.708 109.084 132.075 108.518C142.094 93.0654 151.008 75.8788 160.138 59.851C167.903 46.5239 175.823 33.137 186.168 22.1364C196.791 10.8424 210.372 2.13231 225.119 0.976562C225.119 0.976562 209.031 4.07255 158.492 101.542C156.034 98.3411 153.273 95.9218 149.485 95.808C149.403 95.805 149.319 95.805 149.237 95.805C146.452 95.805 143.803 97.2033 141.459 98.8711C138.376 101.063 131.912 109.33 131.623 109.33Z" fill="#DCECE0"/>
</g>
<defs>
<filter id="filter0_i_115_230" x="0" y="0.976562" width="458" height="322.434" filterUnits="userSpaceOnUse" color-interpolation-filters="sRGB">
<feFlood flood-opacity="0" result="BackgroundImageFix"/>
<feBlend mode="normal" in="SourceGraphic" in2="BackgroundImageFix" result="shape"/>
<feColorMatrix in="SourceAlpha" type="matrix" values="0 0 0 0 0 0 0 0 0 0 0 0 0 0 0 0 0 0 127 0" result="hardAlpha"/>
<feOffset dy="4"/>
<feGaussianBlur stdDeviation="2"/>
<feComposite in2="hardAlpha" operator="arithmetic" k2="-1" k3="1"/>
<feColorMatrix type="matrix" values="0 0 0 0 0 0 0 0 0 0 0 0 0 0 0 0 0 0 0.25 0"/>
<feBlend mode="normal" in2="shape" result="effect1_innerShadow_115_230"/>
</filter>
</defs>
</svg>
