<svg xmlns="http://www.w3.org/2000/svg" width="476" height="949" fill="none" xmlns:v="https://vecta.io/nano"><style><![CDATA[.B{fill-rule:evenodd}.C{fill:#726242}.D{color-interpolation-filters:sRGB}.E{flood-opacity:0}]]></style><g filter="url(#A)" class="B"><path d="M267.483 659.452c42.663.942 87.153-3.411 123.7-25.444 36.561-22.06 62.851-65.648 53.575-107.368-9.29-41.706-62.633-70.546-98.309-47.122 39.898-19.386 75.165-48.254 102.068-83.562 16.224-21.269 29.859-49.018 20.338-74.039-4.782-12.51-14.766-22.333-25.541-30.273-41.479-30.56-99.167-37.49-146.68-17.627 37.473 10.26 80.682-6.193 101.877-38.813 21.182-32.62 18.717-78.841-5.83-109.006-20.609-25.321-53.002-37.94-84.864-44.966-38.291-8.458-87.534-5.212-104.48 30.218-2.233 4.68-3.732 10.164-1.866 14.994 3.12 8.063 13.636 10.137 22.218 9.195 32.406-3.601 57.034-32.088 69.144-62.402 5.749-14.434 9.399-30.969 3.337-45.267C288.515 9.894 267.497.999 247.922.112 199.224-2.071 150.185 27.93 116.335 63.06c-35.812 37.163-62.334 82.784-81.949 130.534-19.629 47.749-23.552 104.08-.34 150.192 23.225 46.099 77.291 77.778 127.446 65.786-39.094 3.192-77.331 16.412-110.051 38.104C25.136 465.125.495 493.338 5.548 524.539c2.82 17.408 14.493 32.006 26.903 44.516 56.122 56.577 137.132 87.464 216.615 82.58" fill="#4eaf4e"/></g><g filter="url(#B)" class="B C"><path d="M251.669 340.441c15.101 95.139 17.12 193.805 22.759 289.938 5.45 92.728 16.809 194.146.651 285.675-9.082 51.513-36.328 12.572-31.665-21.207l.637-4.645c.759-5.448 7.753-32.334 18.693-23.209l1.843 1.553-21.675 46.718c-11.712-89.731.732-186.327 2.915-276.74 2.358-98.108-3.837-196.147-.882-294.119.136-4.549 5.341-12.735 6.724-3.964z"/></g><g filter="url(#C)" class="B C"><path d="M253.994 463.463c23.744-44.148 55.48-83.734 79.129-128.125 10.651-20.003 17.625 19.678 12.279 30.072-22.007 42.754-48.885 91.245-82.86 125.58-10.922 11.03-11.506-22.033-8.548-27.527z"/></g><g filter="url(#D)" class="B C"><path d="M253.921 589.421c-20.759-34.771-38.149-71.282-57.25-106.97-3.114-5.832-.347-34.895 6.831-24.847 23.151 32.526 39.284 68.462 58.185 103.576 3.448 6.434 4.464 15.551 1.965 22.587-1.257 3.518-5.721 12.376-9.731 5.654z"/></g><path d="M249.541 391.729c-10.073-16.692-19.022-33.921-28.09-51.232-3.106-5.912-3.622-13.488-1.732-19.951.899-3.052 5.248-11.041 8.474-5.004 9.874 18.452 19.656 36.78 28.499 55.769 2.234 4.798 1.956 12.416.027 17.228-1.137 2.805-4.376 7.824-7.178 3.19z" class="B C"/><defs><filter id="A" x=".885" y="0" width="475.115" height="667.57" filterUnits="userSpaceOnUse" class="D"><feFlood result="A" class="E"/><feColorMatrix in="SourceAlpha" values="0 0 0 0 0 0 0 0 0 0 0 0 0 0 0 0 0 0 127 0" result="B"/><feOffset dy="4"/><feGaussianBlur stdDeviation="2"/><feComposite in2="B" operator="out"/><feColorMatrix values="0 0 0 0 0 0 0 0 0 0 0 0 0 0 0 0 0 0 0.25 0"/><feBlend in2="A"/><feBlend in="SourceGraphic"/></filter><filter id="B" x="233.959" y="336.555" width="53.454" height="612.445" filterUnits="userSpaceOnUse" class="D"><feFlood result="A" class="E"/><feColorMatrix in="SourceAlpha" values="0 0 0 0 0 0 0 0 0 0 0 0 0 0 0 0 0 0 127 0" result="B"/><feOffset dy="4"/><feGaussianBlur stdDeviation="2"/><feComposite in2="B" operator="out"/><feColorMatrix values="0 0 0 0 0 0 0 0 0 0 0 0 0 0 0 0 0 0 0.25 0"/><feBlend in2="A"/><feBlend in="SourceGraphic"/></filter><filter id="C" x="248.465" y="329.785" width="102.777" height="171.442" filterUnits="userSpaceOnUse" class="D"><feFlood result="A" class="E"/><feColorMatrix in="SourceAlpha" values="0 0 0 0 0 0 0 0 0 0 0 0 0 0 0 0 0 0 127 0" result="B"/><feOffset dy="4"/><feGaussianBlur stdDeviation="2"/><feComposite in2="B" operator="out"/><feColorMatrix values="0 0 0 0 0 0 0 0 0 0 0 0 0 0 0 0 0 0 0.25 0"/><feBlend in2="A"/><feBlend in="SourceGraphic"/></filter><filter id="D" x="191.406" y="455.51" width="77.632" height="144.363" filterUnits="userSpaceOnUse" class="D"><feFlood result="A" class="E"/><feColorMatrix in="SourceAlpha" values="0 0 0 0 0 0 0 0 0 0 0 0 0 0 0 0 0 0 127 0" result="B"/><feOffset dy="4"/><feGaussianBlur stdDeviation="2"/><feComposite in2="B" operator="out"/><feColorMatrix values="0 0 0 0 0 0 0 0 0 0 0 0 0 0 0 0 0 0 0.25 0"/><feBlend in2="A"/><feBlend in="SourceGraphic"/></filter></defs></svg>