<svg width="1424" height="1185" viewBox="0 0 1424 1185" fill="none" xmlns="http://www.w3.org/2000/svg">
<g filter="url(#filter0_d_992_398)">
<path d="M273 1141L373.5 996.5L514.5 755L566 666L577.5 698L605 666L624 698L632 652.5L656.5 698L667 674.5L685 698L697.5 666L717.5 698V659L734 698L754 666L795 729L876.5 870L939 985L978 1054.5L1017.5 1111L1044 1142L273 1141Z" fill="#726242"/>
</g>
<g filter="url(#filter1_d_992_398)">
<path d="M434.501 890.5C434.501 890.5 405.501 984.5 434.501 937.5C463.501 890.5 467.003 879.5 470.001 902.5C473 925.5 543.501 774.5 543.501 774.5C543.501 774.5 565.003 790 547.001 835C529 880 557.003 908 562.501 867C568 826 573.262 823.948 586.001 835C598.741 846.052 568.542 758.242 586.001 748.5C603.461 738.758 626.166 910.093 621.001 956C615.836 1001.91 633.003 955 641.001 972C649 989 676.507 988.486 658.001 945.5C639.496 902.514 618.389 793.035 641.001 819.5C641.001 819.5 674.003 831.5 675.001 859.5C676 887.5 663.503 901 670.001 910C676.5 919 737.658 1005.11 707.001 881C676.345 756.888 711.503 822 707.001 835C702.5 848 755.003 885.5 745.501 902.5C736 919.5 778.003 926 772.501 956C767 986 800.503 948.5 811.501 978C822.5 1007.5 828.001 979 811.501 945.5C795.001 912 742.503 838.5 753.001 829C763.5 819.5 747.501 764.5 760.001 774.5C772.501 784.5 797.503 936.5 806.001 898C814.5 859.5 820 905 824.001 867C828.003 829 806.001 774.5 806.001 774.5C806.001 774.5 879.503 936.5 881.001 914C882.5 891.5 873.503 908 897.501 922.5C921.5 937 903 910 900.001 910C897.003 910 795.001 728.5 795.001 728.5L754.001 666.5L734.501 698L717.501 659V698L697.501 666.5L685.001 698L666.501 673.5L656.001 698L632.501 652L624.001 698L604.501 665.5L578.001 698L566.001 665.5L434.501 890.5Z" fill="#D16226"/>
</g>
<path d="M626.434 544.038C626.434 544.038 613.381 533.455 599.045 522.24C584.709 511.025 583.639 507.234 579.665 499.744C575.69 492.254 575.194 487.128 575.899 485.376C575.899 485.376 578.561 481.347 581.265 480.753C583.97 480.16 588.395 482.396 589.768 483.198C591.142 483.999 590.447 483.414 594.493 486.969C598.54 490.524 611.843 505.109 613.026 510.195C614.209 515.281 626.434 544.038 626.434 544.038Z" fill="#D16225"/>
<path d="M626.434 544.038C626.434 544.038 613.381 533.455 599.045 522.24C584.709 511.025 583.639 507.234 579.665 499.744C575.69 492.254 575.194 487.128 575.899 485.376C575.899 485.376 578.561 481.347 581.265 480.753C583.97 480.16 588.395 482.396 589.768 483.198C591.142 483.999 590.447 483.414 594.493 486.969C598.54 490.524 611.843 505.109 613.026 510.195C614.209 515.281 626.434 544.038 626.434 544.038Z" fill="#D16225"/>
<path d="M626.434 544.038C626.434 544.038 613.381 533.455 599.045 522.24C584.709 511.025 583.639 507.234 579.665 499.744C575.69 492.254 575.194 487.128 575.899 485.376C575.899 485.376 578.561 481.347 581.265 480.753C583.97 480.16 588.395 482.396 589.768 483.198C591.142 483.999 590.447 483.414 594.493 486.969C598.54 490.524 611.843 505.109 613.026 510.195C614.209 515.281 626.434 544.038 626.434 544.038Z" fill="#D16225"/>
<path d="M720.37 491.038C720.37 491.038 733.423 480.455 747.759 469.24C762.095 458.025 763.164 454.234 767.139 446.744C771.114 439.254 771.61 434.128 770.905 432.376C770.905 432.376 768.243 428.347 765.538 427.753C762.834 427.16 758.408 429.396 757.035 430.198C755.662 430.999 756.357 430.414 752.31 433.969C748.263 437.524 734.961 452.109 733.778 457.195C732.595 462.281 720.37 491.038 720.37 491.038Z" fill="#D16225"/>
<path d="M720.37 491.038C720.37 491.038 733.423 480.455 747.759 469.24C762.095 458.025 763.164 454.234 767.139 446.744C771.114 439.254 771.61 434.128 770.905 432.376C770.905 432.376 768.243 428.347 765.538 427.753C762.834 427.16 758.408 429.396 757.035 430.198C755.662 430.999 756.357 430.414 752.31 433.969C748.263 437.524 734.961 452.109 733.778 457.195C732.595 462.281 720.37 491.038 720.37 491.038Z" fill="#D16225"/>
<path d="M720.37 491.038C720.37 491.038 733.423 480.455 747.759 469.24C762.095 458.025 763.164 454.234 767.139 446.744C771.114 439.254 771.61 434.128 770.905 432.376C770.905 432.376 768.243 428.347 765.538 427.753C762.834 427.16 758.408 429.396 757.035 430.198C755.662 430.999 756.357 430.414 752.31 433.969C748.263 437.524 734.961 452.109 733.778 457.195C732.595 462.281 720.37 491.038 720.37 491.038Z" fill="#D16225"/>
<path d="M661.894 482C661.894 482 657.076 455.289 651.356 426.453C645.636 397.618 648.324 391.851 651.356 378.495C654.388 365.14 659.184 358.344 661.894 356.944C661.894 356.944 669.399 354.82 673.334 356.944C677.269 359.069 680.327 366.471 681.162 368.9C681.998 371.328 681.764 369.879 682.969 378.495C684.173 387.112 685.076 418.983 681.162 426.453C677.248 433.924 661.894 482 661.894 482Z" fill="#D16225"/>
<path d="M661.894 482C661.894 482 657.076 455.289 651.356 426.453C645.636 397.618 648.324 391.851 651.356 378.495C654.388 365.14 659.184 358.344 661.894 356.944C661.894 356.944 669.399 354.82 673.334 356.944C677.269 359.069 680.327 366.471 681.162 368.9C681.998 371.328 681.764 369.879 682.969 378.495C684.173 387.112 685.076 418.983 681.162 426.453C677.248 433.924 661.894 482 661.894 482Z" fill="#D16225"/>
<path d="M661.894 482C661.894 482 657.076 455.289 651.356 426.453C645.636 397.618 648.324 391.851 651.356 378.495C654.388 365.14 659.184 358.344 661.894 356.944C661.894 356.944 669.399 354.82 673.334 356.944C677.269 359.069 680.327 366.471 681.162 368.9C681.998 371.328 681.764 369.879 682.969 378.495C684.173 387.112 685.076 418.983 681.162 426.453C677.248 433.924 661.894 482 661.894 482Z" fill="#D16225"/>
<path d="M542.957 589.481C439.568 556.884 388.417 570.52 375.765 581.412L363.608 594.421C363.608 594.421 360.153 601.532 365.822 608.751C371.491 615.97 381.526 615.431 393 604.552C404.473 593.673 400.174 588.772 420.434 585.642C440.694 582.512 542.957 589.481 542.957 589.481Z" fill="#D16225"/>
<path d="M542.957 589.481C439.568 556.884 388.417 570.52 375.765 581.412L363.608 594.421C363.608 594.421 360.153 601.532 365.822 608.751C371.491 615.97 381.526 615.431 393 604.552C404.473 593.673 400.174 588.772 420.434 585.642C440.694 582.512 542.957 589.481 542.957 589.481Z" fill="#D16225"/>
<path d="M542.957 589.481C439.568 556.884 388.417 570.52 375.765 581.412L363.608 594.421C363.608 594.421 360.153 601.532 365.822 608.751C371.491 615.97 381.526 615.431 393 604.552C404.473 593.673 400.174 588.772 420.434 585.642C440.694 582.512 542.957 589.481 542.957 589.481Z" fill="#D16225"/>
<path d="M537.609 524.512C494.122 487.969 466.629 484.294 458.318 487.024L449.822 490.877C449.822 490.877 446.722 493.624 448.015 498.257C449.308 502.889 454.273 504.644 462.011 501.684C469.749 498.724 468.653 495.488 479.086 498.043C489.519 500.598 537.609 524.512 537.609 524.512Z" fill="#D16225"/>
<path d="M537.609 524.512C494.122 487.969 466.629 484.294 458.318 487.024L449.822 490.877C449.822 490.877 446.722 493.624 448.015 498.257C449.308 502.889 454.273 504.644 462.011 501.684C469.749 498.724 468.653 495.488 479.086 498.043C489.519 500.598 537.609 524.512 537.609 524.512Z" fill="#D16225"/>
<path d="M537.609 524.512C494.122 487.969 466.629 484.294 458.318 487.024L449.822 490.877C449.822 490.877 446.722 493.624 448.015 498.257C449.308 502.889 454.273 504.644 462.011 501.684C469.749 498.724 468.653 495.488 479.086 498.043C489.519 500.598 537.609 524.512 537.609 524.512Z" fill="#D16225"/>
<path d="M684.37 582.038C684.37 582.038 697.423 571.455 711.759 560.24C726.095 549.025 727.164 545.234 731.139 537.744C735.114 530.254 735.61 525.128 734.905 523.376C734.905 523.376 732.243 519.347 729.538 518.753C726.834 518.16 722.408 520.396 721.035 521.198C719.662 521.999 720.357 521.414 716.31 524.969C712.263 528.524 698.961 543.109 697.778 548.195C696.595 553.281 684.37 582.038 684.37 582.038Z" fill="#D16225"/>
<path d="M684.37 582.038C684.37 582.038 697.423 571.455 711.759 560.24C726.095 549.025 727.164 545.234 731.139 537.744C735.114 530.254 735.61 525.128 734.905 523.376C734.905 523.376 732.243 519.347 729.538 518.753C726.834 518.16 722.408 520.396 721.035 521.198C719.662 521.999 720.357 521.414 716.31 524.969C712.263 528.524 698.961 543.109 697.778 548.195C696.595 553.281 684.37 582.038 684.37 582.038Z" fill="#D16225"/>
<path d="M684.37 582.038C684.37 582.038 697.423 571.455 711.759 560.24C726.095 549.025 727.164 545.234 731.139 537.744C735.114 530.254 735.61 525.128 734.905 523.376C734.905 523.376 732.243 519.347 729.538 518.753C726.834 518.16 722.408 520.396 721.035 521.198C719.662 521.999 720.357 521.414 716.31 524.969C712.263 528.524 698.961 543.109 697.778 548.195C696.595 553.281 684.37 582.038 684.37 582.038Z" fill="#D16225"/>
<path d="M516.95 645.196C516.95 645.196 507.879 649.307 497.978 653.589C488.077 657.87 486.895 659.884 483.493 663.582C480.092 667.281 479.039 670.146 479.18 671.256C479.18 671.256 480.103 673.965 481.564 674.711C483.026 675.457 485.899 674.838 486.806 674.584C487.714 674.33 487.228 674.562 490.081 673.13C492.934 671.698 502.748 665.33 504.189 662.591C505.63 659.852 516.95 645.196 516.95 645.196Z" fill="#D16225"/>
<path d="M516.95 645.196C516.95 645.196 507.879 649.307 497.978 653.589C488.077 657.87 486.895 659.884 483.493 663.582C480.092 667.281 479.039 670.146 479.18 671.256C479.18 671.256 480.103 673.965 481.564 674.711C483.026 675.457 485.899 674.838 486.806 674.584C487.714 674.33 487.228 674.562 490.081 673.13C492.934 671.698 502.748 665.33 504.189 662.591C505.63 659.852 516.95 645.196 516.95 645.196Z" fill="#D16225"/>
<path d="M516.95 645.196C516.95 645.196 507.879 649.307 497.978 653.589C488.077 657.87 486.895 659.884 483.493 663.582C480.092 667.281 479.039 670.146 479.18 671.256C479.18 671.256 480.103 673.965 481.564 674.711C483.026 675.457 485.899 674.838 486.806 674.584C487.714 674.33 487.228 674.562 490.081 673.13C492.934 671.698 502.748 665.33 504.189 662.591C505.63 659.852 516.95 645.196 516.95 645.196Z" fill="#D16225"/>
<path d="M625.972 633.234C625.972 633.234 621.576 624.297 616.985 614.536C612.394 604.775 610.344 603.657 606.539 600.374C602.735 597.09 599.839 596.128 598.734 596.305C598.734 596.305 596.055 597.312 595.355 598.797C594.656 600.281 595.365 603.133 595.648 604.032C595.93 604.931 595.683 604.452 597.204 607.259C598.725 610.066 605.4 619.674 608.183 621.028C610.966 622.382 625.972 633.234 625.972 633.234Z" fill="#D16225"/>
<path d="M625.972 633.234C625.972 633.234 621.576 624.297 616.985 614.536C612.394 604.775 610.344 603.657 606.539 600.374C602.735 597.09 599.839 596.128 598.734 596.305C598.734 596.305 596.055 597.312 595.355 598.797C594.656 600.281 595.365 603.133 595.648 604.032C595.93 604.931 595.683 604.452 597.204 607.259C598.725 610.066 605.4 619.674 608.183 621.028C610.966 622.382 625.972 633.234 625.972 633.234Z" fill="#D16225"/>
<path d="M625.972 633.234C625.972 633.234 621.576 624.297 616.985 614.536C612.394 604.775 610.344 603.657 606.539 600.374C602.735 597.09 599.839 596.128 598.734 596.305C598.734 596.305 596.055 597.312 595.355 598.797C594.656 600.281 595.365 603.133 595.648 604.032C595.93 604.931 595.683 604.452 597.204 607.259C598.725 610.066 605.4 619.674 608.183 621.028C610.966 622.382 625.972 633.234 625.972 633.234Z" fill="#D16225"/>
<path d="M742 627.739C850.339 631.547 893.998 661.484 902.285 675.977L909.399 692.299C909.399 692.299 910.28 700.155 902.526 705.067C894.771 709.978 885.492 706.119 878.311 692.032C871.13 677.945 876.819 674.761 858.768 665.044C840.718 655.327 742 627.739 742 627.739Z" fill="#D16225"/>
<path d="M742 627.739C850.339 631.547 893.998 661.484 902.285 675.977L909.399 692.299C909.399 692.299 910.28 700.155 902.526 705.067C894.771 709.978 885.492 706.119 878.311 692.032C871.13 677.945 876.819 674.761 858.768 665.044C840.718 655.327 742 627.739 742 627.739Z" fill="#D16225"/>
<path d="M742 627.739C850.339 631.547 893.998 661.484 902.285 675.977L909.399 692.299C909.399 692.299 910.28 700.155 902.526 705.067C894.771 709.978 885.492 706.119 878.311 692.032C871.13 677.945 876.819 674.761 858.768 665.044C840.718 655.327 742 627.739 742 627.739Z" fill="#D16225"/>
<path d="M773.195 562.512C816.681 525.969 844.175 522.294 852.486 525.024L860.982 528.877C860.982 528.877 864.082 531.624 862.789 536.257C861.496 540.889 856.531 542.644 848.793 539.684C841.055 536.724 842.151 533.488 831.718 536.043C821.284 538.598 773.195 562.512 773.195 562.512Z" fill="#D16225"/>
<path d="M773.195 562.512C816.681 525.969 844.175 522.294 852.486 525.024L860.982 528.877C860.982 528.877 864.082 531.624 862.789 536.257C861.496 540.889 856.531 542.644 848.793 539.684C841.055 536.724 842.151 533.488 831.718 536.043C821.284 538.598 773.195 562.512 773.195 562.512Z" fill="#D16225"/>
<path d="M773.195 562.512C816.681 525.969 844.175 522.294 852.486 525.024L860.982 528.877C860.982 528.877 864.082 531.624 862.789 536.257C861.496 540.889 856.531 542.644 848.793 539.684C841.055 536.724 842.151 533.488 831.718 536.043C821.284 538.598 773.195 562.512 773.195 562.512Z" fill="#D16225"/>
<g filter="url(#filter2_d_992_398)">
<path d="M112.406 1003.79L176.225 1058.69L155.846 1106.27L144.045 1155.7L85.689 1176.26L26.6262 1154.85L8.90403 1082.45L50.1964 1012.62L112.406 1003.79Z" fill="#211C13"/>
</g>
<g filter="url(#filter3_i_992_398)">
<path d="M141.456 1062.79L144.096 1035.14L145.654 1031.89L176.32 1059.35L165.268 1084.66L141.456 1062.79Z" fill="#D16225"/>
<path d="M74.7353 1026.81L95.3832 1026.41C94.9018 1038.43 93.755 1062.59 93.0192 1063.1C92.2834 1063.61 79.4278 1052.74 73.092 1047.25L74.7353 1026.81Z" fill="#D16225"/>
<path d="M130.293 1137.1L147.408 1133.15L149.883 1132.8L144.491 1155.28L133.456 1159.37L130.293 1137.1Z" fill="#D16225"/>
<path d="M70.4612 1149.63C66.5732 1148.33 58.5423 1146.07 57.523 1147.43L61.3338 1156.49L70.4612 1149.63Z" fill="#D16225"/>
<path d="M18.9663 1085.74C24.6967 1082.23 35.9456 1075.15 35.0973 1074.86L26.7668 1058.88L16.7167 1069.9L18.9663 1085.74Z" fill="#D16225"/>
<path d="M80.318 1115.91L80.403 1098.73L62.7986 1095.68L55.0772 1112.43L80.318 1115.91Z" fill="#D16225"/>
<path d="M106.069 1101.65L123.193 1087.1L128.345 1098.49L131.802 1108.6L120.761 1119.77L106.069 1101.65Z" fill="#D16225"/>
<path d="M115.41 1007.4L102.542 1005.69L113.222 1002.66L115.41 1007.4Z" fill="#D16225"/>
<path d="M51.0381 1037.75L46.5975 1020.71L46.4569 1019.72L35.9792 1034.84L51.0381 1037.75Z" fill="#D16225"/>
<path d="M30.0852 1149.81L19.7383 1125.29L26.8983 1155.82L45.4195 1161.78L30.0852 1149.81Z" fill="#D16225"/>
</g>
<g filter="url(#filter4_d_992_398)">
<path d="M226.258 203.294L309.861 193.409L331.131 240.6L359.564 282.722L335.24 339.611L279.53 368.644L214.21 332.736L190.695 255.095L226.258 203.294Z" fill="#211C13"/>
</g>
<g filter="url(#filter5_i_992_398)">
<path d="M289.367 221.794L270.787 201.154L269.446 197.807L310.413 193.789L321.58 219.043L289.367 221.794Z" fill="#D16225"/>
<path d="M217.744 246.615L231.407 231.129C239.937 239.613 256.964 256.802 256.841 257.688C256.718 258.574 240.019 260.695 231.685 261.644L217.744 246.615Z" fill="#D16225"/>
<path d="M336.557 280.27L345.225 264.994L346.64 262.933L359.554 282.109L355.106 293.005L336.557 280.27Z" fill="#D16225"/>
<path d="M305.33 332.824C301.743 334.809 294.647 339.196 294.957 340.865L304.204 344.181L305.33 332.824Z" fill="#D16225"/>
<path d="M223.437 327.547C224.729 320.954 227.117 307.876 226.334 308.309L208.923 303.634L210.246 318.492L223.437 327.547Z" fill="#D16225"/>
<path d="M287.155 302.758L274.555 291.075L260.399 301.978L267.517 318.994L287.155 302.758Z" fill="#D16225"/>
<path d="M294.063 274.144L294.924 251.688L306.798 255.594L316.586 259.888L317.343 275.57L294.063 274.144Z" fill="#D16225"/>
<path d="M230.951 203.524L220.991 211.848L225.98 201.931L230.951 203.524Z" fill="#D16225"/>
<path d="M209.777 271.47L194.218 263.214L193.394 262.648L197.448 280.594L209.777 271.47Z" fill="#D16225"/>
<path d="M278.156 362.687L253.096 353.728L280.426 369.098L297.339 359.481L278.156 362.687Z" fill="#D16225"/>
</g>
<g filter="url(#filter6_d_992_398)">
<path d="M1093.46 49.0163L1072.98 46.5649L1070.63 34.1049L1066.28 22.4403L1075.34 10.2914L1090.27 6.57966L1103.76 18.8847L1104.9 38.7249L1093.46 49.0163Z" fill="#211C13"/>
</g>
<g filter="url(#filter7_i_992_398)">
<path d="M1079.49 40.9839L1082.73 46.9669L1082.86 47.8409L1072.87 46.4433L1071.66 39.7876L1079.49 40.9839Z" fill="#D16225"/>
<path d="M1097.97 39.19L1093.83 42.0923C1092.29 39.5819 1089.22 34.51 1089.3 34.3061C1089.38 34.1022 1093.48 34.5569 1095.52 34.8098L1097.97 39.19Z" fill="#D16225"/>
<path d="M1071.62 24.3469L1068.67 27.4865L1068.22 27.8959L1066.24 22.5873L1067.93 20.2483L1071.62 24.3469Z" fill="#D16225"/>
<path d="M1082.07 13.6272C1083.04 13.3606 1084.98 12.7236 1085 12.3085L1082.99 10.9874L1082.07 13.6272Z" fill="#D16225"/>
<path d="M1101.27 19.5904C1100.58 21.0862 1099.26 24.0632 1099.47 24.005L1103.35 26.119L1103.89 22.505L1101.27 19.5904Z" fill="#D16225"/>
<path d="M1084.67 21.8313L1087 25.3375L1091 23.5549L1090.28 19.0936L1084.67 21.8313Z" fill="#D16225"/>
<path d="M1081.38 28.2481L1079.89 33.546L1077.28 31.9334L1075.2 30.3482L1075.92 26.5704L1081.38 28.2481Z" fill="#D16225"/>
<path d="M1092.35 48.6921L1095.2 47.2823L1093.44 49.3572L1092.35 48.6921Z" fill="#D16225"/>
<path d="M1101.3 33.7291L1104.53 36.5894L1104.69 36.7715L1104.76 32.265L1101.3 33.7291Z" fill="#D16225"/>
<path d="M1090.26 8.07754L1095.71 11.6514L1090.09 6.42051L1085.51 7.73844L1090.26 8.07754Z" fill="#D16225"/>
</g>
<g filter="url(#filter8_d_992_398)">
<path d="M332.62 388.006L323.93 386.966L322.931 381.677L321.085 376.727L324.931 371.571L331.27 369.996L336.995 375.218L337.478 383.638L332.62 388.006Z" fill="#211C13"/>
</g>
<g filter="url(#filter9_i_992_398)">
<path d="M326.693 384.597L328.067 387.136L328.121 387.507L323.883 386.914L323.37 384.089L326.693 384.597Z" fill="#D16225"/>
<path d="M334.537 383.835L332.779 385.067C332.123 384.002 330.822 381.849 330.856 381.763C330.89 381.676 332.629 381.869 333.495 381.976L334.537 383.835Z" fill="#D16225"/>
<path d="M323.35 377.536L322.102 378.868L321.908 379.042L321.071 376.789L321.786 375.796L323.35 377.536Z" fill="#D16225"/>
<path d="M327.788 372.986C328.199 372.873 329.023 372.603 329.033 372.427L328.179 371.866L327.788 372.986Z" fill="#D16225"/>
<path d="M335.936 375.517C335.645 376.152 335.084 377.416 335.174 377.391L336.819 378.288L337.048 376.754L335.936 375.517Z" fill="#D16225"/>
<path d="M328.892 376.468L329.88 377.956L331.577 377.2L331.272 375.306L328.892 376.468Z" fill="#D16225"/>
<path d="M327.496 379.192L326.861 381.44L325.756 380.756L324.872 380.083L325.178 378.48L327.496 379.192Z" fill="#D16225"/>
<path d="M332.151 387.868L333.361 387.27L332.615 388.151L332.151 387.868Z" fill="#D16225"/>
<path d="M335.949 381.518L337.32 382.732L337.389 382.809L337.417 380.896L335.949 381.518Z" fill="#D16225"/>
<path d="M331.263 370.631L333.577 372.148L331.19 369.928L329.246 370.487L331.263 370.631Z" fill="#D16225"/>
</g>
<g filter="url(#filter10_d_992_398)">
<path d="M1287.03 593.751L1273.45 522.755L1229.31 517.574L1187.46 505.216L1147.2 539.87L1137.87 592.997L1184.19 637.159L1253.84 636.286L1287.03 593.751Z" fill="#211C13"/>
</g>
<g filter="url(#filter11_i_992_398)">
<path d="M1255.53 546.886L1277.24 556.746L1280.33 556.977L1273 522.401L1249.43 519.805L1255.53 546.886Z" fill="#D16225"/>
<path d="M1253.77 611.948L1262.91 596.75C1253.75 591.966 1235.27 582.483 1234.58 582.813C1233.88 583.143 1236.47 597.362 1237.86 604.431L1253.77 611.948Z" fill="#D16225"/>
<path d="M1195.43 523.413L1205.69 512.358L1207.01 510.666L1187.97 505.065L1180.2 511.529L1195.43 523.413Z" fill="#D16225"/>
<path d="M1160.51 562.594C1159.81 566.045 1158.06 572.99 1156.61 573.169L1151.5 566.459L1160.51 562.594Z" fill="#D16225"/>
<path d="M1186.05 628.262C1191.11 625.496 1201.2 620.152 1201.05 620.904L1209.38 633.945L1196.88 636.712L1186.05 628.262Z" fill="#D16225"/>
<path d="M1189.83 569.68L1202.66 576.966L1197.4 591.379L1181.63 589.962L1189.83 569.68Z" fill="#D16225"/>
<path d="M1211.46 556.609L1229.62 550.085L1223.34 541.378L1217.29 534.478L1204.26 537.923L1211.46 556.609Z" fill="#D16225"/>
<path d="M1285.62 589.969L1281.39 600.279L1288.22 593.625L1285.62 589.969Z" fill="#D16225"/>
<path d="M1235.49 624.91L1246.28 635.507L1246.96 636.035L1231.22 637.367L1235.49 624.91Z" fill="#D16225"/>
<path d="M1143.1 592.577L1156.93 610.768L1137.27 592.38L1140.76 576.044L1143.1 592.577Z" fill="#D16225"/>
</g>
<g filter="url(#filter12_d_992_398)">
<path d="M1097.48 561.132L1101.09 569.103L1106.43 568.459L1111.71 568.725L1115.47 563.502L1115.05 556.984L1108.35 553.101L1100.17 555.183L1097.48 561.132Z" fill="#211C13"/>
</g>
<g filter="url(#filter13_i_992_398)">
<path d="M1102.52 565.754L1099.68 565.21L1099.31 565.27L1101.15 569.132L1104 568.768L1102.52 565.754Z" fill="#D16225"/>
<path d="M1100.87 558.046L1100.23 560.094C1101.44 560.397 1103.89 560.988 1103.96 560.93C1104.03 560.871 1103.32 559.271 1102.96 558.478L1100.87 558.046Z" fill="#D16225"/>
<path d="M1110.26 566.809L1109.36 568.402L1109.26 568.639L1111.66 568.757L1112.39 567.775L1110.26 566.809Z" fill="#D16225"/>
<path d="M1113.25 561.205C1113.24 560.779 1113.25 559.912 1113.41 559.85L1114.2 560.495L1113.25 561.205Z" fill="#D16225"/>
<path d="M1108.38 554.201C1107.86 554.671 1106.83 555.586 1106.83 555.494L1105.47 554.196L1106.87 553.515L1108.38 554.201Z" fill="#D16225"/>
<path d="M1109.6 561.204L1107.88 560.711L1108.09 558.865L1109.99 558.584L1109.6 561.204Z" fill="#D16225"/>
<path d="M1107.43 563.357L1105.47 564.641L1106.46 565.488L1107.37 566.128L1108.8 565.352L1107.43 563.357Z" fill="#D16225"/>
<path d="M1097.75 561.538L1097.95 560.204L1097.34 561.181L1097.75 561.538Z" fill="#D16225"/>
<path d="M1102.66 556.001L1101.09 555.06L1100.99 555.017L1102.81 554.413L1102.66 556.001Z" fill="#D16225"/>
<path d="M1114.45 557.182L1112.31 555.433L1115.14 557.039L1115.2 559.061L1114.45 557.182Z" fill="#D16225"/>
</g>
<g filter="url(#filter14_d_992_398)">
<path d="M1065.62 134.664L1053.68 72.1856L1014.83 67.6264L978.004 56.7511L942.571 87.2471L934.362 134L975.126 172.865L1036.42 172.096L1065.62 134.664Z" fill="#211C13"/>
</g>
<g filter="url(#filter15_i_992_398)">
<path d="M1037.9 93.4215L1057.01 102.099L1059.73 102.302L1053.28 71.8737L1032.54 69.5891L1037.9 93.4215Z" fill="#D16225"/>
<path d="M1036.36 150.677L1044.4 137.303C1036.34 133.093 1020.08 124.747 1019.47 125.038C1018.85 125.329 1021.14 137.842 1022.35 144.062L1036.36 150.677Z" fill="#D16225"/>
<path d="M985.017 72.7645L994.045 63.0363L995.207 61.547L978.447 56.6176L971.613 62.3065L985.017 72.7645Z" fill="#D16225"/>
<path d="M954.281 107.245C953.669 110.282 952.127 116.394 950.854 116.551L946.357 110.646L954.281 107.245Z" fill="#D16225"/>
<path d="M976.759 165.034C981.214 162.6 990.09 157.897 989.957 158.559L997.296 170.035L986.291 172.471L976.759 165.034Z" fill="#D16225"/>
<path d="M980.085 113.48L991.374 119.893L986.749 132.576L972.867 131.329L980.085 113.48Z" fill="#D16225"/>
<path d="M999.122 101.978L1015.1 96.2367L1009.58 88.5741L1004.25 82.5022L992.785 85.5333L999.122 101.978Z" fill="#D16225"/>
<path d="M1064.39 131.335L1060.66 140.409L1066.67 134.553L1064.39 131.335Z" fill="#D16225"/>
<path d="M1020.27 162.085L1029.77 171.41L1030.36 171.875L1016.51 173.047L1020.27 162.085Z" fill="#D16225"/>
<path d="M938.966 133.631L951.136 149.639L933.83 133.457L936.901 119.081L938.966 133.631Z" fill="#D16225"/>
</g>
<g filter="url(#filter16_d_992_398)">
<path d="M900.871 94.371L903.602 100.394L907.639 99.9072L911.626 100.108L914.464 96.1616L914.153 91.2363L909.085 88.3029L902.909 89.8756L900.871 94.371Z" fill="#211C13"/>
</g>
<g filter="url(#filter17_i_992_398)">
<path d="M904.679 97.8627L902.536 97.4518L902.256 97.4975L903.65 100.415L905.802 100.14L904.679 97.8627Z" fill="#D16225"/>
<path d="M903.438 92.0385L902.952 93.5863C903.869 93.8152 905.716 94.2619 905.771 94.2176C905.825 94.1734 905.29 92.9644 905.015 92.3654L903.438 92.0385Z" fill="#D16225"/>
<path d="M910.527 98.6603L909.852 99.8637L909.771 100.043L911.585 100.132L912.137 99.3903L910.527 98.6603Z" fill="#D16225"/>
<path d="M912.793 94.4259C912.78 94.104 912.787 93.4487 912.912 93.4018L913.51 93.8888L912.793 94.4259Z" fill="#D16225"/>
<path d="M909.111 89.1338C908.72 89.4885 907.938 90.1803 907.935 90.11L906.914 89.1293L907.966 88.6147L909.111 89.1338Z" fill="#D16225"/>
<path d="M910.033 94.4251L908.735 94.0524L908.893 92.6577L910.327 92.4451L910.033 94.4251Z" fill="#D16225"/>
<path d="M908.389 96.0519L906.914 97.022L907.659 97.6617L908.346 98.1454L909.431 97.5593L908.389 96.0519Z" fill="#D16225"/>
<path d="M901.077 94.677L901.232 93.6691L900.768 94.4074L901.077 94.677Z" fill="#D16225"/>
<path d="M904.786 90.4932L903.599 89.7824L903.527 89.7499L904.898 89.2936L904.786 90.4932Z" fill="#D16225"/>
<path d="M913.697 91.3856L912.076 90.0646L914.22 91.2779L914.26 92.8057L913.697 91.3856Z" fill="#D16225"/>
</g>
<g filter="url(#filter18_d_992_398)">
<path d="M1419.26 1116.66L1407.31 1054.19L1368.47 1049.63L1331.64 1038.75L1296.2 1069.25L1288 1116L1328.76 1154.86L1390.05 1154.1L1419.26 1116.66Z" fill="#211C13"/>
</g>
<g filter="url(#filter19_i_992_398)">
<path d="M1391.54 1075.42L1410.64 1084.1L1413.36 1084.3L1406.91 1053.87L1386.17 1051.59L1391.54 1075.42Z" fill="#D16225"/>
<path d="M1389.99 1132.68L1398.03 1119.3C1389.97 1115.09 1373.71 1106.75 1373.1 1107.04C1372.49 1107.33 1374.77 1119.84 1375.99 1126.06L1389.99 1132.68Z" fill="#D16225"/>
<path d="M1338.65 1054.76L1347.68 1045.04L1348.84 1043.55L1332.08 1038.62L1325.25 1044.31L1338.65 1054.76Z" fill="#D16225"/>
<path d="M1307.92 1089.25C1307.3 1092.28 1305.76 1098.39 1304.49 1098.55L1299.99 1092.65L1307.92 1089.25Z" fill="#D16225"/>
<path d="M1330.39 1147.03C1334.85 1144.6 1343.72 1139.9 1343.59 1140.56L1350.93 1152.04L1339.92 1154.47L1330.39 1147.03Z" fill="#D16225"/>
<path d="M1333.72 1095.48L1345.01 1101.89L1340.38 1114.58L1326.5 1113.33L1333.72 1095.48Z" fill="#D16225"/>
<path d="M1352.76 1083.98L1368.74 1078.24L1363.21 1070.57L1357.89 1064.5L1346.42 1067.53L1352.76 1083.98Z" fill="#D16225"/>
<path d="M1418.02 1113.34L1414.3 1122.41L1420.3 1116.55L1418.02 1113.34Z" fill="#D16225"/>
<path d="M1373.9 1144.08L1383.4 1153.41L1384 1153.87L1370.14 1155.05L1373.9 1144.08Z" fill="#D16225"/>
<path d="M1292.6 1115.63L1304.77 1131.64L1287.46 1115.46L1290.53 1101.08L1292.6 1115.63Z" fill="#D16225"/>
</g>
<defs>
<filter id="filter0_d_992_398" x="269" y="652.5" width="779" height="497.5" filterUnits="userSpaceOnUse" color-interpolation-filters="sRGB">
<feFlood flood-opacity="0" result="BackgroundImageFix"/>
<feColorMatrix in="SourceAlpha" type="matrix" values="0 0 0 0 0 0 0 0 0 0 0 0 0 0 0 0 0 0 127 0" result="hardAlpha"/>
<feOffset dy="4"/>
<feGaussianBlur stdDeviation="2"/>
<feComposite in2="hardAlpha" operator="out"/>
<feColorMatrix type="matrix" values="0 0 0 0 0 0 0 0 0 0 0 0 0 0 0 0 0 0 0.25 0"/>
<feBlend mode="normal" in2="BackgroundImageFix" result="effect1_dropShadow_992_398"/>
<feBlend mode="normal" in="SourceGraphic" in2="effect1_dropShadow_992_398" result="shape"/>
</filter>
<filter id="filter1_d_992_398" x="417.612" y="652" width="496.02" height="346.326" filterUnits="userSpaceOnUse" color-interpolation-filters="sRGB">
<feFlood flood-opacity="0" result="BackgroundImageFix"/>
<feColorMatrix in="SourceAlpha" type="matrix" values="0 0 0 0 0 0 0 0 0 0 0 0 0 0 0 0 0 0 127 0" result="hardAlpha"/>
<feOffset dy="4"/>
<feGaussianBlur stdDeviation="2"/>
<feComposite in2="hardAlpha" operator="out"/>
<feColorMatrix type="matrix" values="0 0 0 0 0 0 0 0 0 0 0 0 0 0 0 0 0 0 0.25 0"/>
<feBlend mode="normal" in2="BackgroundImageFix" result="effect1_dropShadow_992_398"/>
<feBlend mode="normal" in="SourceGraphic" in2="effect1_dropShadow_992_398" result="shape"/>
</filter>
<filter id="filter2_d_992_398" x="4.90381" y="1003.79" width="175.321" height="180.469" filterUnits="userSpaceOnUse" color-interpolation-filters="sRGB">
<feFlood flood-opacity="0" result="BackgroundImageFix"/>
<feColorMatrix in="SourceAlpha" type="matrix" values="0 0 0 0 0 0 0 0 0 0 0 0 0 0 0 0 0 0 127 0" result="hardAlpha"/>
<feOffset dy="4"/>
<feGaussianBlur stdDeviation="2"/>
<feComposite in2="hardAlpha" operator="out"/>
<feColorMatrix type="matrix" values="0 0 0 0 0 0 0 0 0 0 0 0 0 0 0 0 0 0 0.25 0"/>
<feBlend mode="normal" in2="BackgroundImageFix" result="effect1_dropShadow_992_398"/>
<feBlend mode="normal" in="SourceGraphic" in2="effect1_dropShadow_992_398" result="shape"/>
</filter>
<filter id="filter3_i_992_398" x="16.7168" y="1002.66" width="159.603" height="163.113" filterUnits="userSpaceOnUse" color-interpolation-filters="sRGB">
<feFlood flood-opacity="0" result="BackgroundImageFix"/>
<feBlend mode="normal" in="SourceGraphic" in2="BackgroundImageFix" result="shape"/>
<feColorMatrix in="SourceAlpha" type="matrix" values="0 0 0 0 0 0 0 0 0 0 0 0 0 0 0 0 0 0 127 0" result="hardAlpha"/>
<feOffset dy="4"/>
<feGaussianBlur stdDeviation="2"/>
<feComposite in2="hardAlpha" operator="arithmetic" k2="-1" k3="1"/>
<feColorMatrix type="matrix" values="0 0 0 0 0 0 0 0 0 0 0 0 0 0 0 0 0 0 0.25 0"/>
<feBlend mode="normal" in2="shape" result="effect1_innerShadow_992_398"/>
</filter>
<filter id="filter4_d_992_398" x="186.695" y="193.409" width="176.868" height="183.235" filterUnits="userSpaceOnUse" color-interpolation-filters="sRGB">
<feFlood flood-opacity="0" result="BackgroundImageFix"/>
<feColorMatrix in="SourceAlpha" type="matrix" values="0 0 0 0 0 0 0 0 0 0 0 0 0 0 0 0 0 0 127 0" result="hardAlpha"/>
<feOffset dy="4"/>
<feGaussianBlur stdDeviation="2"/>
<feComposite in2="hardAlpha" operator="out"/>
<feColorMatrix type="matrix" values="0 0 0 0 0 0 0 0 0 0 0 0 0 0 0 0 0 0 0.25 0"/>
<feBlend mode="normal" in2="BackgroundImageFix" result="effect1_dropShadow_992_398"/>
<feBlend mode="normal" in="SourceGraphic" in2="effect1_dropShadow_992_398" result="shape"/>
</filter>
<filter id="filter5_i_992_398" x="193.394" y="193.789" width="166.16" height="179.309" filterUnits="userSpaceOnUse" color-interpolation-filters="sRGB">
<feFlood flood-opacity="0" result="BackgroundImageFix"/>
<feBlend mode="normal" in="SourceGraphic" in2="BackgroundImageFix" result="shape"/>
<feColorMatrix in="SourceAlpha" type="matrix" values="0 0 0 0 0 0 0 0 0 0 0 0 0 0 0 0 0 0 127 0" result="hardAlpha"/>
<feOffset dy="4"/>
<feGaussianBlur stdDeviation="2"/>
<feComposite in2="hardAlpha" operator="arithmetic" k2="-1" k3="1"/>
<feColorMatrix type="matrix" values="0 0 0 0 0 0 0 0 0 0 0 0 0 0 0 0 0 0 0.25 0"/>
<feBlend mode="normal" in2="shape" result="effect1_innerShadow_992_398"/>
</filter>
<filter id="filter6_d_992_398" x="1062.28" y="6.57959" width="46.625" height="50.4368" filterUnits="userSpaceOnUse" color-interpolation-filters="sRGB">
<feFlood flood-opacity="0" result="BackgroundImageFix"/>
<feColorMatrix in="SourceAlpha" type="matrix" values="0 0 0 0 0 0 0 0 0 0 0 0 0 0 0 0 0 0 127 0" result="hardAlpha"/>
<feOffset dy="4"/>
<feGaussianBlur stdDeviation="2"/>
<feComposite in2="hardAlpha" operator="out"/>
<feColorMatrix type="matrix" values="0 0 0 0 0 0 0 0 0 0 0 0 0 0 0 0 0 0 0.25 0"/>
<feBlend mode="normal" in2="BackgroundImageFix" result="effect1_dropShadow_992_398"/>
<feBlend mode="normal" in="SourceGraphic" in2="effect1_dropShadow_992_398" result="shape"/>
</filter>
<filter id="filter7_i_992_398" x="1066.24" y="6.42041" width="38.5151" height="46.9368" filterUnits="userSpaceOnUse" color-interpolation-filters="sRGB">
<feFlood flood-opacity="0" result="BackgroundImageFix"/>
<feBlend mode="normal" in="SourceGraphic" in2="BackgroundImageFix" result="shape"/>
<feColorMatrix in="SourceAlpha" type="matrix" values="0 0 0 0 0 0 0 0 0 0 0 0 0 0 0 0 0 0 127 0" result="hardAlpha"/>
<feOffset dy="4"/>
<feGaussianBlur stdDeviation="2"/>
<feComposite in2="hardAlpha" operator="arithmetic" k2="-1" k3="1"/>
<feColorMatrix type="matrix" values="0 0 0 0 0 0 0 0 0 0 0 0 0 0 0 0 0 0 0.25 0"/>
<feBlend mode="normal" in2="shape" result="effect1_innerShadow_992_398"/>
</filter>
<filter id="filter8_d_992_398" x="317.085" y="369.996" width="24.3926" height="26.0103" filterUnits="userSpaceOnUse" color-interpolation-filters="sRGB">
<feFlood flood-opacity="0" result="BackgroundImageFix"/>
<feColorMatrix in="SourceAlpha" type="matrix" values="0 0 0 0 0 0 0 0 0 0 0 0 0 0 0 0 0 0 127 0" result="hardAlpha"/>
<feOffset dy="4"/>
<feGaussianBlur stdDeviation="2"/>
<feComposite in2="hardAlpha" operator="out"/>
<feColorMatrix type="matrix" values="0 0 0 0 0 0 0 0 0 0 0 0 0 0 0 0 0 0 0.25 0"/>
<feBlend mode="normal" in2="BackgroundImageFix" result="effect1_dropShadow_992_398"/>
<feBlend mode="normal" in="SourceGraphic" in2="effect1_dropShadow_992_398" result="shape"/>
</filter>
<filter id="filter9_i_992_398" x="321.071" y="369.928" width="16.3457" height="22.2224" filterUnits="userSpaceOnUse" color-interpolation-filters="sRGB">
<feFlood flood-opacity="0" result="BackgroundImageFix"/>
<feBlend mode="normal" in="SourceGraphic" in2="BackgroundImageFix" result="shape"/>
<feColorMatrix in="SourceAlpha" type="matrix" values="0 0 0 0 0 0 0 0 0 0 0 0 0 0 0 0 0 0 127 0" result="hardAlpha"/>
<feOffset dy="4"/>
<feGaussianBlur stdDeviation="2"/>
<feComposite in2="hardAlpha" operator="arithmetic" k2="-1" k3="1"/>
<feColorMatrix type="matrix" values="0 0 0 0 0 0 0 0 0 0 0 0 0 0 0 0 0 0 0.25 0"/>
<feBlend mode="normal" in2="shape" result="effect1_innerShadow_992_398"/>
</filter>
<filter id="filter10_d_992_398" x="1133.87" y="505.216" width="157.157" height="139.943" filterUnits="userSpaceOnUse" color-interpolation-filters="sRGB">
<feFlood flood-opacity="0" result="BackgroundImageFix"/>
<feColorMatrix in="SourceAlpha" type="matrix" values="0 0 0 0 0 0 0 0 0 0 0 0 0 0 0 0 0 0 127 0" result="hardAlpha"/>
<feOffset dy="4"/>
<feGaussianBlur stdDeviation="2"/>
<feComposite in2="hardAlpha" operator="out"/>
<feColorMatrix type="matrix" values="0 0 0 0 0 0 0 0 0 0 0 0 0 0 0 0 0 0 0.25 0"/>
<feBlend mode="normal" in2="BackgroundImageFix" result="effect1_dropShadow_992_398"/>
<feBlend mode="normal" in="SourceGraphic" in2="effect1_dropShadow_992_398" result="shape"/>
</filter>
<filter id="filter11_i_992_398" x="1137.27" y="505.065" width="150.948" height="136.302" filterUnits="userSpaceOnUse" color-interpolation-filters="sRGB">
<feFlood flood-opacity="0" result="BackgroundImageFix"/>
<feBlend mode="normal" in="SourceGraphic" in2="BackgroundImageFix" result="shape"/>
<feColorMatrix in="SourceAlpha" type="matrix" values="0 0 0 0 0 0 0 0 0 0 0 0 0 0 0 0 0 0 127 0" result="hardAlpha"/>
<feOffset dy="4"/>
<feGaussianBlur stdDeviation="2"/>
<feComposite in2="hardAlpha" operator="arithmetic" k2="-1" k3="1"/>
<feColorMatrix type="matrix" values="0 0 0 0 0 0 0 0 0 0 0 0 0 0 0 0 0 0 0.25 0"/>
<feBlend mode="normal" in2="shape" result="effect1_innerShadow_992_398"/>
</filter>
<filter id="filter12_d_992_398" x="1093.48" y="553.101" width="25.9897" height="24.002" filterUnits="userSpaceOnUse" color-interpolation-filters="sRGB">
<feFlood flood-opacity="0" result="BackgroundImageFix"/>
<feColorMatrix in="SourceAlpha" type="matrix" values="0 0 0 0 0 0 0 0 0 0 0 0 0 0 0 0 0 0 127 0" result="hardAlpha"/>
<feOffset dy="4"/>
<feGaussianBlur stdDeviation="2"/>
<feComposite in2="hardAlpha" operator="out"/>
<feColorMatrix type="matrix" values="0 0 0 0 0 0 0 0 0 0 0 0 0 0 0 0 0 0 0.25 0"/>
<feBlend mode="normal" in2="BackgroundImageFix" result="effect1_dropShadow_992_398"/>
<feBlend mode="normal" in="SourceGraphic" in2="effect1_dropShadow_992_398" result="shape"/>
</filter>
<filter id="filter13_i_992_398" x="1097.34" y="553.514" width="17.8564" height="19.6177" filterUnits="userSpaceOnUse" color-interpolation-filters="sRGB">
<feFlood flood-opacity="0" result="BackgroundImageFix"/>
<feBlend mode="normal" in="SourceGraphic" in2="BackgroundImageFix" result="shape"/>
<feColorMatrix in="SourceAlpha" type="matrix" values="0 0 0 0 0 0 0 0 0 0 0 0 0 0 0 0 0 0 127 0" result="hardAlpha"/>
<feOffset dy="4"/>
<feGaussianBlur stdDeviation="2"/>
<feComposite in2="hardAlpha" operator="arithmetic" k2="-1" k3="1"/>
<feColorMatrix type="matrix" values="0 0 0 0 0 0 0 0 0 0 0 0 0 0 0 0 0 0 0.25 0"/>
<feBlend mode="normal" in2="shape" result="effect1_innerShadow_992_398"/>
</filter>
<filter id="filter14_d_992_398" x="930.362" y="56.7512" width="139.262" height="124.114" filterUnits="userSpaceOnUse" color-interpolation-filters="sRGB">
<feFlood flood-opacity="0" result="BackgroundImageFix"/>
<feColorMatrix in="SourceAlpha" type="matrix" values="0 0 0 0 0 0 0 0 0 0 0 0 0 0 0 0 0 0 127 0" result="hardAlpha"/>
<feOffset dy="4"/>
<feGaussianBlur stdDeviation="2"/>
<feComposite in2="hardAlpha" operator="out"/>
<feColorMatrix type="matrix" values="0 0 0 0 0 0 0 0 0 0 0 0 0 0 0 0 0 0 0.25 0"/>
<feBlend mode="normal" in2="BackgroundImageFix" result="effect1_dropShadow_992_398"/>
<feBlend mode="normal" in="SourceGraphic" in2="effect1_dropShadow_992_398" result="shape"/>
</filter>
<filter id="filter15_i_992_398" x="933.831" y="56.6177" width="132.838" height="120.429" filterUnits="userSpaceOnUse" color-interpolation-filters="sRGB">
<feFlood flood-opacity="0" result="BackgroundImageFix"/>
<feBlend mode="normal" in="SourceGraphic" in2="BackgroundImageFix" result="shape"/>
<feColorMatrix in="SourceAlpha" type="matrix" values="0 0 0 0 0 0 0 0 0 0 0 0 0 0 0 0 0 0 127 0" result="hardAlpha"/>
<feOffset dy="4"/>
<feGaussianBlur stdDeviation="2"/>
<feComposite in2="hardAlpha" operator="arithmetic" k2="-1" k3="1"/>
<feColorMatrix type="matrix" values="0 0 0 0 0 0 0 0 0 0 0 0 0 0 0 0 0 0 0.25 0"/>
<feBlend mode="normal" in2="shape" result="effect1_innerShadow_992_398"/>
</filter>
<filter id="filter16_d_992_398" x="896.871" y="88.3027" width="21.5928" height="20.0913" filterUnits="userSpaceOnUse" color-interpolation-filters="sRGB">
<feFlood flood-opacity="0" result="BackgroundImageFix"/>
<feColorMatrix in="SourceAlpha" type="matrix" values="0 0 0 0 0 0 0 0 0 0 0 0 0 0 0 0 0 0 127 0" result="hardAlpha"/>
<feOffset dy="4"/>
<feGaussianBlur stdDeviation="2"/>
<feComposite in2="hardAlpha" operator="out"/>
<feColorMatrix type="matrix" values="0 0 0 0 0 0 0 0 0 0 0 0 0 0 0 0 0 0 0.25 0"/>
<feBlend mode="normal" in2="BackgroundImageFix" result="effect1_dropShadow_992_398"/>
<feBlend mode="normal" in="SourceGraphic" in2="effect1_dropShadow_992_398" result="shape"/>
</filter>
<filter id="filter17_i_992_398" x="900.768" y="88.6147" width="13.4922" height="15.8005" filterUnits="userSpaceOnUse" color-interpolation-filters="sRGB">
<feFlood flood-opacity="0" result="BackgroundImageFix"/>
<feBlend mode="normal" in="SourceGraphic" in2="BackgroundImageFix" result="shape"/>
<feColorMatrix in="SourceAlpha" type="matrix" values="0 0 0 0 0 0 0 0 0 0 0 0 0 0 0 0 0 0 127 0" result="hardAlpha"/>
<feOffset dy="4"/>
<feGaussianBlur stdDeviation="2"/>
<feComposite in2="hardAlpha" operator="arithmetic" k2="-1" k3="1"/>
<feColorMatrix type="matrix" values="0 0 0 0 0 0 0 0 0 0 0 0 0 0 0 0 0 0 0.25 0"/>
<feBlend mode="normal" in2="shape" result="effect1_innerShadow_992_398"/>
</filter>
<filter id="filter18_d_992_398" x="1284" y="1038.75" width="139.262" height="124.114" filterUnits="userSpaceOnUse" color-interpolation-filters="sRGB">
<feFlood flood-opacity="0" result="BackgroundImageFix"/>
<feColorMatrix in="SourceAlpha" type="matrix" values="0 0 0 0 0 0 0 0 0 0 0 0 0 0 0 0 0 0 127 0" result="hardAlpha"/>
<feOffset dy="4"/>
<feGaussianBlur stdDeviation="2"/>
<feComposite in2="hardAlpha" operator="out"/>
<feColorMatrix type="matrix" values="0 0 0 0 0 0 0 0 0 0 0 0 0 0 0 0 0 0 0.25 0"/>
<feBlend mode="normal" in2="BackgroundImageFix" result="effect1_dropShadow_992_398"/>
<feBlend mode="normal" in="SourceGraphic" in2="effect1_dropShadow_992_398" result="shape"/>
</filter>
<filter id="filter19_i_992_398" x="1287.46" y="1038.62" width="132.838" height="120.429" filterUnits="userSpaceOnUse" color-interpolation-filters="sRGB">
<feFlood flood-opacity="0" result="BackgroundImageFix"/>
<feBlend mode="normal" in="SourceGraphic" in2="BackgroundImageFix" result="shape"/>
<feColorMatrix in="SourceAlpha" type="matrix" values="0 0 0 0 0 0 0 0 0 0 0 0 0 0 0 0 0 0 127 0" result="hardAlpha"/>
<feOffset dy="4"/>
<feGaussianBlur stdDeviation="2"/>
<feComposite in2="hardAlpha" operator="arithmetic" k2="-1" k3="1"/>
<feColorMatrix type="matrix" values="0 0 0 0 0 0 0 0 0 0 0 0 0 0 0 0 0 0 0.25 0"/>
<feBlend mode="normal" in2="shape" result="effect1_innerShadow_992_398"/>
</filter>
</defs>
</svg>
