<svg xmlns="http://www.w3.org/2000/svg" width="1424" height="1185" fill="none" xmlns:v="https://vecta.io/nano"><style><![CDATA[.B{fill:#d16225}.C{color-interpolation-filters:sRGB}.D{flood-opacity:0}.E{fill:#211c13}]]></style><g filter="url(#A)"><path d="M273 1141l100.5-144.5 141-241.5 51.5-89 11.5 32 27.5-32 19 32 8-45.5 24.5 45.5 10.5-23.5 18 23.5 12.5-32 20 32v-39l16.5 39 20-32 41 63 81.5 141L939 985l39 69.5 39.5 56.5 26.5 31-771-1z" fill="#726242"/></g><g filter="url(#B)"><path d="M434.501 890.5s-29 94 0 47 32.502-58 35.5-35 73.5-128 73.5-128 21.502 15.5 3.5 60.5 10.002 73 15.5 32 10.761-43.052 23.5-32-17.459-76.758 0-86.5 40.165 161.593 35 207.5 12.002-1 20 16 35.506 16.486 17-26.5-39.612-152.465-17-126c0 0 33.002 12 34 40s-11.498 41.5-5 50.5 67.657 95.11 37-29 4.502-59 0-46 48.002 50.5 38.5 67.5 32.502 23.5 27 53.5 28.002-7.5 39 22 16.5 1 0-32.5-68.998-107-58.5-116.5-5.5-64.5 7-54.5 37.502 162 46 123.5 13.999 7 18-31-18-92.5-18-92.5 73.502 162 75 139.5-7.498-6 16.5 8.5 5.499-12.5 2.5-12.5-105-181.5-105-181.5l-41-62-19.5 31.5-17-39v39l-20-31.5-12.5 31.5-18.5-24.5-10.5 24.5-23.5-46-8.5 46-19.5-32.5-26.5 32.5-12-32.5-131.5 225z" fill="#d16226"/></g><g class="B"><use href="#U"/><use href="#U"/><use href="#U"/><use href="#V"/><use href="#V"/><use href="#V"/><use href="#W"/><use href="#W"/><use href="#W"/><use href="#X"/><use href="#X"/><use href="#X"/><use href="#Y"/><use href="#Y"/><use href="#Y"/><use href="#V" x="-36" y="91"/><use href="#V" x="-36" y="91"/><use href="#V" x="-36" y="91"/><use href="#Z"/><use href="#Z"/><use href="#Z"/><use href="#a"/><use href="#a"/><use href="#a"/><use href="#b"/><use href="#b"/><use href="#b"/><use href="#c"/><use href="#c"/><use href="#c"/></g><g filter="url(#C)" class="E"><path d="M112.406 1003.79l63.819 54.9-20.379 47.58-11.801 49.43-58.356 20.56-59.063-21.41-17.722-72.4 41.292-69.83 62.21-8.83z"/></g><g filter="url(#D)" class="B"><path d="M141.456 1062.79l2.64-27.65 1.558-3.25 30.666 27.46-11.052 25.31-23.812-21.87z"/><path d="M74.735 1026.81l20.648-.4c-.481 12.02-1.628 36.18-2.364 36.69s-13.591-10.36-19.927-15.85l1.643-20.44z"/><path d="M130.293 1137.1l17.115-3.95 2.475-.35-5.392 22.48-11.035 4.09-3.163-22.27z"/><path d="M70.461 1149.63c-3.888-1.3-11.919-3.56-12.938-2.2l3.811 9.06 9.127-6.86z"/><path d="M18.966 1085.74c5.73-3.51 16.979-10.59 16.131-10.88l-8.33-15.98-10.05 11.02 2.25 15.84z"/><path d="M80.318 1115.91l.085-17.18-17.604-3.05-7.721 16.75 25.241 3.48z"/><path d="M106.069 1101.65l17.124-14.55 5.152 11.39 3.457 10.11-11.041 11.17-14.692-18.12z"/><path d="M115.41 1007.4l-12.868-1.71 10.68-3.03 2.188 4.74z"/><path d="M51.038 1037.75l-4.441-17.04-.141-.99-10.478 15.12 15.059 2.91z"/><path d="M30.085 1149.81l-10.347-24.52 7.16 30.53 18.521 5.96-15.334-11.97z"/></g><g filter="url(#E)" class="E"><path d="M226.258 203.294l83.603-9.885 21.27 47.191 28.433 42.122-24.324 56.889-55.71 29.033-65.32-35.908-23.515-77.641 35.563-51.801z"/></g><g filter="url(#F)" class="B"><path d="M289.367 221.794l-18.58-20.64-1.341-3.347 40.967-4.018 11.167 25.254-32.213 2.751z"/><path d="M217.744 246.615l13.663-15.486c8.53 8.484 25.557 25.673 25.434 26.559s-16.822 3.007-25.156 3.956l-13.941-15.029z"/><path d="M336.557 280.27l8.668-15.276 1.415-2.061 12.914 19.176-4.448 10.896-18.549-12.735z"/><path d="M305.33 332.824c-3.587 1.985-10.683 6.372-10.373 8.041l9.247 3.316 1.126-11.357z"/><path d="M223.437 327.547c1.292-6.593 3.68-19.671 2.897-19.238l-17.411-4.675 1.323 14.858 13.191 9.055z"/><path d="M287.155 302.758l-12.6-11.683-14.156 10.903 7.118 17.016 19.638-16.236z"/><path d="M294.063 274.144l.861-22.456 11.874 3.906 9.788 4.294.757 15.682-23.28-1.426z"/><path d="M230.951 203.524l-9.96 8.324 4.989-9.917 4.971 1.593z"/><path d="M209.777 271.47l-15.559-8.256-.824-.566 4.054 17.946 12.329-9.124z"/><path d="M278.156 362.687l-25.06-8.959 27.33 15.37 16.913-9.617-19.183 3.206z"/></g><g filter="url(#G)" class="E"><path d="M1093.46 49.016l-20.48-2.451-2.35-12.46-4.35-11.665 9.06-12.149 14.93-3.712 13.49 12.305 1.14 19.84-11.44 10.291z"/></g><g filter="url(#H)" class="B"><path d="M1079.49 40.984l3.24 5.983.13.874-9.99-1.398-1.21-6.656 7.83 1.196z"/><path d="M1097.97 39.19l-4.14 2.902-4.53-7.786c.08-.204 4.18.251 6.22.504l2.45 4.38z"/><path d="M1071.62 24.347l-2.95 3.14-.45.409-1.98-5.309 1.69-2.339 3.69 4.099z"/><path d="M1082.07 13.627c.97-.267 2.91-.904 2.93-1.319l-2.01-1.321-.92 2.64z"/><path d="M1101.27 19.59l-1.8 4.415 3.88 2.114.54-3.614-2.62-2.915z"/><path d="M1084.67 21.831l2.33 3.506 4-1.783-.72-4.461-5.61 2.738z"/><path d="M1081.38 28.248l-1.49 5.298-2.61-1.613-2.08-1.585.72-3.778 5.46 1.678z"/><path d="M1092.35 48.692l2.85-1.41-1.76 2.075-1.09-.665z"/><path d="M1101.3 33.729l3.23 2.86.16.182.07-4.507-3.46 1.464z"/><path d="M1090.26 8.078l5.45 3.574-5.62-5.231-4.58 1.318 4.75.339z"/></g><g filter="url(#I)" class="E"><path d="M332.62 388.006l-8.69-1.04-.999-5.289-1.846-4.95 3.846-5.156 6.339-1.575 5.725 5.222.483 8.42-4.858 4.368z"/></g><g filter="url(#J)" class="B"><path d="M326.693 384.597l1.374 2.539.054.371-4.238-.593-.513-2.825 3.323.508z"/><path d="M334.537 383.835l-1.758 1.232-1.923-3.304c.034-.087 1.773.106 2.639.213l1.042 1.859z"/><path d="M323.35 377.536l-1.248 1.332-.194.174-.837-2.253.715-.993 1.564 1.74z"/><path d="M327.788 372.986c.411-.113 1.235-.383 1.245-.559l-.854-.561-.391 1.12z"/><path d="M335.936 375.517l-.762 1.874 1.645.897.229-1.534-1.112-1.237z"/><path d="M328.892 376.468l.988 1.488 1.697-.756-.305-1.894-2.38 1.162z"/><path d="M327.496 379.192l-.635 2.248-1.105-.684-.884-.673.306-1.603 2.318.712z"/><path d="M332.151 387.868l1.21-.598-.746.881-.464-.283z"/><path d="M335.949 381.518l1.371 1.214.069.077.028-1.913-1.468.622z"/><path d="M331.263 370.631l2.314 1.517-2.387-2.22-1.944.559 2.017.144z"/></g><g filter="url(#K)" class="E"><path d="M1287.03 593.751l-13.58-70.996-44.14-5.181-41.85-12.358-40.26 34.654-9.33 53.127 46.32 44.162 69.65-.873 33.19-42.535z"/></g><g filter="url(#L)" class="B"><path d="M1255.53 546.886l21.71 9.86 3.09.231-7.33-34.576-23.57-2.596 6.1 27.081z"/><path d="M1253.77 611.948l9.14-15.198c-9.16-4.784-27.64-14.267-28.33-13.937-.7.33 1.89 14.549 3.28 21.618l15.91 7.517z"/><path d="M1195.43 523.413l10.26-11.055 1.32-1.692-19.04-5.601-7.77 6.464 15.23 11.884z"/><path d="M1160.51 562.594c-.7 3.451-2.45 10.396-3.9 10.575l-5.11-6.71 9.01-3.865z"/><path d="M1186.05 628.262c5.06-2.766 15.15-8.11 15-7.358l8.33 13.041-12.5 2.767-10.83-8.45z"/><path d="M1189.83 569.68l12.83 7.286-5.26 14.413-15.77-1.417 8.2-20.282z"/><path d="M1211.46 556.609l18.16-6.524-6.28-8.707-6.05-6.9-13.03 3.445 7.2 18.686z"/><path d="M1285.62 589.969l-4.23 10.31 6.83-6.654-2.6-3.656z"/><path d="M1235.49 624.91l10.79 10.597.68.528-15.74 1.332 4.27-12.457z"/><path d="M1143.1 592.577l13.83 18.191-19.66-18.388 3.49-16.336 2.34 16.533z"/></g><g filter="url(#M)" class="E"><path d="M1097.48 561.132l3.61 7.971 5.34-.644 5.28.266 3.76-5.223-.42-6.518-6.7-3.883-8.18 2.082-2.69 5.949z"/></g><g filter="url(#N)" class="B"><path d="M1102.52 565.754l-2.84-.544-.37.06 1.84 3.862 2.85-.364-1.48-3.014z"/><path d="M1100.87 558.046l-.64 2.048 3.73.836c.07-.059-.64-1.659-1-2.452l-2.09-.432z"/><path d="M1110.26 566.809l-.9 1.593-.1.237 2.4.118.73-.982-2.13-.966z"/><path d="M1113.25 561.205c-.01-.426 0-1.293.16-1.355l.79.645-.95.71z"/><path d="M1108.38 554.201l-1.55 1.293-1.36-1.298 1.4-.681 1.51.686z"/><path d="M1109.6 561.204l-1.72-.493.21-1.846 1.9-.281-.39 2.62z"/><path d="M1107.43 563.357l-1.96 1.284.99.847.91.64 1.43-.776-1.37-1.995z"/><path d="M1097.75 561.538l.2-1.334-.61.977.41.357z"/><path d="M1102.66 556.001l-1.57-.941-.1-.043 1.82-.604-.15 1.588z"/><path d="M1114.45 557.182l-2.14-1.749 2.83 1.606.06 2.022-.75-1.879z"/></g><g filter="url(#O)" class="E"><path d="M1065.62 134.664l-11.94-62.478-38.85-4.559-36.826-10.875-35.433 30.496L934.362 134l40.764 38.865 61.294-.769 29.2-37.432z"/></g><g filter="url(#P)" class="B"><path d="M1037.9 93.422l19.11 8.678 2.72.203-6.45-30.428-20.74-2.285 5.36 23.832z"/><path d="M1036.36 150.677l8.04-13.374c-8.06-4.21-24.32-12.556-24.93-12.265-.62.291 1.67 12.804 2.88 19.024l14.01 6.615z"/><path d="M985.017 72.765l9.028-9.728 1.162-1.489-16.76-4.929-6.834 5.689 13.404 10.458z"/><path d="M954.281 107.245c-.612 3.037-2.154 9.149-3.427 9.306l-4.497-5.905 7.924-3.401z"/><path d="M976.759 165.034c4.455-2.434 13.331-7.137 13.198-6.475l7.339 11.476-11.005 2.436-9.532-7.437z"/><path d="M980.085 113.48l11.289 6.413-4.625 12.683-13.882-1.247 7.218-17.849z"/><path d="M999.122 101.978l15.978-5.741-5.52-7.663-5.33-6.072-11.465 3.031 6.337 16.445z"/><path d="M1064.39 131.335l-3.73 9.074 6.01-5.856-2.28-3.218z"/><path d="M1020.27 162.085l9.5 9.325.59.465-13.85 1.172 3.76-10.962z"/><path d="M938.966 133.631l12.17 16.008-17.306-16.182 3.071-14.376 2.065 14.55z"/></g><g filter="url(#Q)" class="E"><path d="M900.871 94.371l2.731 6.023 4.037-.487 3.987.201 2.838-3.946-.311-4.925-5.068-2.933-6.176 1.573-2.038 4.495z"/></g><g filter="url(#R)" class="B"><path d="M904.679 97.863l-2.143-.411-.28.046 1.394 2.918 2.152-.275-1.123-2.277z"/><path d="M903.438 92.039l-.486 1.548 2.819.631c.054-.044-.481-1.253-.756-1.852l-1.577-.327z"/><path d="M910.527 98.66l-.675 1.203-.081.179 1.814.089.552-.742-1.61-.73z"/><path d="M912.793 94.426c-.013-.322-.006-.977.119-1.024l.598.487-.717.537z"/><path d="M909.111 89.134l-1.176.976-1.021-.981 1.052-.515 1.145.519z"/><path d="M910.033 94.425l-1.298-.373.158-1.395 1.434-.213-.294 1.98z"/><path d="M908.389 96.052l-1.475.97.745.64.687.484 1.085-.586-1.042-1.507z"/><path d="M901.077 94.677l.155-1.008-.464.738.309.27z"/><path d="M904.786 90.493l-1.187-.711-.072-.032 1.371-.456-.112 1.2z"/><path d="M913.697 91.386l-1.621-1.321 2.144 1.213.04 1.528-.563-1.42z"/></g><g filter="url(#S)" class="E"><path d="M1419.26 1116.66l-11.95-62.47-38.84-4.56-36.83-10.88-35.44 30.5-8.2 46.75 40.76 38.86 61.29-.76 29.21-37.44z"/></g><g filter="url(#T)" class="B"><path d="M1391.54 1075.42l19.1 8.68 2.72.2-6.45-30.43-20.74-2.28 5.37 23.83z"/><path d="M1389.99 1132.68l8.04-13.38c-8.06-4.21-24.32-12.55-24.93-12.26s1.67 12.8 2.89 19.02l14 6.62z"/><path d="M1338.65 1054.76l9.03-9.72 1.16-1.49-16.76-4.93-6.83 5.69 13.4 10.45z"/><path d="M1307.92 1089.25c-.62 3.03-2.16 9.14-3.43 9.3l-4.5-5.9 7.93-3.4z"/><path d="M1330.39 1147.03c4.46-2.43 13.33-7.13 13.2-6.47l7.34 11.48-11.01 2.43-9.53-7.44z"/><path d="M1333.72 1095.48l11.29 6.41-4.63 12.69-13.88-1.25 7.22-17.85z"/><path d="M1352.76 1083.98l15.98-5.74-5.53-7.67-5.32-6.07-11.47 3.03 6.34 16.45z"/><path d="M1418.02 1113.34l-3.72 9.07 6-5.86-2.28-3.21z"/><path d="M1373.9 1144.08l9.5 9.33.6.46-13.86 1.18 3.76-10.97z"/><path d="M1292.6 1115.63l12.17 16.01-17.31-16.18 3.07-14.38 2.07 14.55z"/></g><defs><filter id="A" x="269" y="652.5" width="779" height="497.5" filterUnits="userSpaceOnUse" class="C"><feFlood result="A" class="D"/><feColorMatrix in="SourceAlpha" values="0 0 0 0 0 0 0 0 0 0 0 0 0 0 0 0 0 0 127 0" result="B"/><feOffset dy="4"/><feGaussianBlur stdDeviation="2"/><feComposite in2="B" operator="out"/><feColorMatrix values="0 0 0 0 0 0 0 0 0 0 0 0 0 0 0 0 0 0 0.25 0"/><feBlend in2="A"/><feBlend in="SourceGraphic"/></filter><filter id="B" x="417.612" y="652" width="496.02" height="346.326" filterUnits="userSpaceOnUse" class="C"><feFlood result="A" class="D"/><feColorMatrix in="SourceAlpha" values="0 0 0 0 0 0 0 0 0 0 0 0 0 0 0 0 0 0 127 0" result="B"/><feOffset dy="4"/><feGaussianBlur stdDeviation="2"/><feComposite in2="B" operator="out"/><feColorMatrix values="0 0 0 0 0 0 0 0 0 0 0 0 0 0 0 0 0 0 0.25 0"/><feBlend in2="A"/><feBlend in="SourceGraphic"/></filter><filter id="C" x="4.904" y="1003.79" width="175.321" height="180.469" filterUnits="userSpaceOnUse" class="C"><feFlood result="A" class="D"/><feColorMatrix in="SourceAlpha" values="0 0 0 0 0 0 0 0 0 0 0 0 0 0 0 0 0 0 127 0" result="B"/><feOffset dy="4"/><feGaussianBlur stdDeviation="2"/><feComposite in2="B" operator="out"/><feColorMatrix values="0 0 0 0 0 0 0 0 0 0 0 0 0 0 0 0 0 0 0.25 0"/><feBlend in2="A"/><feBlend in="SourceGraphic"/></filter><filter id="D" x="16.717" y="1002.66" width="159.603" height="163.113" filterUnits="userSpaceOnUse" class="C"><feFlood class="D"/><feBlend in="SourceGraphic" result="B"/><feColorMatrix in="SourceAlpha" values="0 0 0 0 0 0 0 0 0 0 0 0 0 0 0 0 0 0 127 0" result="C"/><feOffset dy="4"/><feGaussianBlur stdDeviation="2"/><feComposite in2="C" operator="arithmetic" k2="-1" k3="1"/><feColorMatrix values="0 0 0 0 0 0 0 0 0 0 0 0 0 0 0 0 0 0 0.25 0"/><feBlend in2="B"/></filter><filter id="E" x="186.695" y="193.409" width="176.868" height="183.235" filterUnits="userSpaceOnUse" class="C"><feFlood result="A" class="D"/><feColorMatrix in="SourceAlpha" values="0 0 0 0 0 0 0 0 0 0 0 0 0 0 0 0 0 0 127 0" result="B"/><feOffset dy="4"/><feGaussianBlur stdDeviation="2"/><feComposite in2="B" operator="out"/><feColorMatrix values="0 0 0 0 0 0 0 0 0 0 0 0 0 0 0 0 0 0 0.25 0"/><feBlend in2="A"/><feBlend in="SourceGraphic"/></filter><filter id="F" x="193.394" y="193.789" width="166.16" height="179.309" filterUnits="userSpaceOnUse" class="C"><feFlood class="D"/><feBlend in="SourceGraphic" result="B"/><feColorMatrix in="SourceAlpha" values="0 0 0 0 0 0 0 0 0 0 0 0 0 0 0 0 0 0 127 0" result="C"/><feOffset dy="4"/><feGaussianBlur stdDeviation="2"/><feComposite in2="C" operator="arithmetic" k2="-1" k3="1"/><feColorMatrix values="0 0 0 0 0 0 0 0 0 0 0 0 0 0 0 0 0 0 0.25 0"/><feBlend in2="B"/></filter><filter id="G" x="1062.28" y="6.58" width="46.625" height="50.437" filterUnits="userSpaceOnUse" class="C"><feFlood result="A" class="D"/><feColorMatrix in="SourceAlpha" values="0 0 0 0 0 0 0 0 0 0 0 0 0 0 0 0 0 0 127 0" result="B"/><feOffset dy="4"/><feGaussianBlur stdDeviation="2"/><feComposite in2="B" operator="out"/><feColorMatrix values="0 0 0 0 0 0 0 0 0 0 0 0 0 0 0 0 0 0 0.25 0"/><feBlend in2="A"/><feBlend in="SourceGraphic"/></filter><filter id="H" x="1066.24" y="6.42" width="38.515" height="46.937" filterUnits="userSpaceOnUse" class="C"><feFlood class="D"/><feBlend in="SourceGraphic" result="B"/><feColorMatrix in="SourceAlpha" values="0 0 0 0 0 0 0 0 0 0 0 0 0 0 0 0 0 0 127 0" result="C"/><feOffset dy="4"/><feGaussianBlur stdDeviation="2"/><feComposite in2="C" operator="arithmetic" k2="-1" k3="1"/><feColorMatrix values="0 0 0 0 0 0 0 0 0 0 0 0 0 0 0 0 0 0 0.25 0"/><feBlend in2="B"/></filter><filter id="I" x="317.085" y="369.996" width="24.393" height="26.01" filterUnits="userSpaceOnUse" class="C"><feFlood result="A" class="D"/><feColorMatrix in="SourceAlpha" values="0 0 0 0 0 0 0 0 0 0 0 0 0 0 0 0 0 0 127 0" result="B"/><feOffset dy="4"/><feGaussianBlur stdDeviation="2"/><feComposite in2="B" operator="out"/><feColorMatrix values="0 0 0 0 0 0 0 0 0 0 0 0 0 0 0 0 0 0 0.25 0"/><feBlend in2="A"/><feBlend in="SourceGraphic"/></filter><filter id="J" x="321.071" y="369.928" width="16.346" height="22.222" filterUnits="userSpaceOnUse" class="C"><feFlood class="D"/><feBlend in="SourceGraphic" result="B"/><feColorMatrix in="SourceAlpha" values="0 0 0 0 0 0 0 0 0 0 0 0 0 0 0 0 0 0 127 0" result="C"/><feOffset dy="4"/><feGaussianBlur stdDeviation="2"/><feComposite in2="C" operator="arithmetic" k2="-1" k3="1"/><feColorMatrix values="0 0 0 0 0 0 0 0 0 0 0 0 0 0 0 0 0 0 0.25 0"/><feBlend in2="B"/></filter><filter id="K" x="1133.87" y="505.216" width="157.157" height="139.943" filterUnits="userSpaceOnUse" class="C"><feFlood result="A" class="D"/><feColorMatrix in="SourceAlpha" values="0 0 0 0 0 0 0 0 0 0 0 0 0 0 0 0 0 0 127 0" result="B"/><feOffset dy="4"/><feGaussianBlur stdDeviation="2"/><feComposite in2="B" operator="out"/><feColorMatrix values="0 0 0 0 0 0 0 0 0 0 0 0 0 0 0 0 0 0 0.25 0"/><feBlend in2="A"/><feBlend in="SourceGraphic"/></filter><filter id="L" x="1137.27" y="505.065" width="150.948" height="136.302" filterUnits="userSpaceOnUse" class="C"><feFlood class="D"/><feBlend in="SourceGraphic" result="B"/><feColorMatrix in="SourceAlpha" values="0 0 0 0 0 0 0 0 0 0 0 0 0 0 0 0 0 0 127 0" result="C"/><feOffset dy="4"/><feGaussianBlur stdDeviation="2"/><feComposite in2="C" operator="arithmetic" k2="-1" k3="1"/><feColorMatrix values="0 0 0 0 0 0 0 0 0 0 0 0 0 0 0 0 0 0 0.25 0"/><feBlend in2="B"/></filter><filter id="M" x="1093.48" y="553.101" width="25.99" height="24.002" filterUnits="userSpaceOnUse" class="C"><feFlood result="A" class="D"/><feColorMatrix in="SourceAlpha" values="0 0 0 0 0 0 0 0 0 0 0 0 0 0 0 0 0 0 127 0" result="B"/><feOffset dy="4"/><feGaussianBlur stdDeviation="2"/><feComposite in2="B" operator="out"/><feColorMatrix values="0 0 0 0 0 0 0 0 0 0 0 0 0 0 0 0 0 0 0.25 0"/><feBlend in2="A"/><feBlend in="SourceGraphic"/></filter><filter id="N" x="1097.34" y="553.514" width="17.856" height="19.618" filterUnits="userSpaceOnUse" class="C"><feFlood class="D"/><feBlend in="SourceGraphic" result="B"/><feColorMatrix in="SourceAlpha" values="0 0 0 0 0 0 0 0 0 0 0 0 0 0 0 0 0 0 127 0" result="C"/><feOffset dy="4"/><feGaussianBlur stdDeviation="2"/><feComposite in2="C" operator="arithmetic" k2="-1" k3="1"/><feColorMatrix values="0 0 0 0 0 0 0 0 0 0 0 0 0 0 0 0 0 0 0.25 0"/><feBlend in2="B"/></filter><filter id="O" x="930.362" y="56.751" width="139.262" height="124.114" filterUnits="userSpaceOnUse" class="C"><feFlood result="A" class="D"/><feColorMatrix in="SourceAlpha" values="0 0 0 0 0 0 0 0 0 0 0 0 0 0 0 0 0 0 127 0" result="B"/><feOffset dy="4"/><feGaussianBlur stdDeviation="2"/><feComposite in2="B" operator="out"/><feColorMatrix values="0 0 0 0 0 0 0 0 0 0 0 0 0 0 0 0 0 0 0.25 0"/><feBlend in2="A"/><feBlend in="SourceGraphic"/></filter><filter id="P" x="933.831" y="56.618" width="132.838" height="120.429" filterUnits="userSpaceOnUse" class="C"><feFlood class="D"/><feBlend in="SourceGraphic" result="B"/><feColorMatrix in="SourceAlpha" values="0 0 0 0 0 0 0 0 0 0 0 0 0 0 0 0 0 0 127 0" result="C"/><feOffset dy="4"/><feGaussianBlur stdDeviation="2"/><feComposite in2="C" operator="arithmetic" k2="-1" k3="1"/><feColorMatrix values="0 0 0 0 0 0 0 0 0 0 0 0 0 0 0 0 0 0 0.25 0"/><feBlend in2="B"/></filter><filter id="Q" x="896.871" y="88.303" width="21.593" height="20.091" filterUnits="userSpaceOnUse" class="C"><feFlood result="A" class="D"/><feColorMatrix in="SourceAlpha" values="0 0 0 0 0 0 0 0 0 0 0 0 0 0 0 0 0 0 127 0" result="B"/><feOffset dy="4"/><feGaussianBlur stdDeviation="2"/><feComposite in2="B" operator="out"/><feColorMatrix values="0 0 0 0 0 0 0 0 0 0 0 0 0 0 0 0 0 0 0.25 0"/><feBlend in2="A"/><feBlend in="SourceGraphic"/></filter><filter id="R" x="900.768" y="88.615" width="13.492" height="15.801" filterUnits="userSpaceOnUse" class="C"><feFlood class="D"/><feBlend in="SourceGraphic" result="B"/><feColorMatrix in="SourceAlpha" values="0 0 0 0 0 0 0 0 0 0 0 0 0 0 0 0 0 0 127 0" result="C"/><feOffset dy="4"/><feGaussianBlur stdDeviation="2"/><feComposite in2="C" operator="arithmetic" k2="-1" k3="1"/><feColorMatrix values="0 0 0 0 0 0 0 0 0 0 0 0 0 0 0 0 0 0 0.25 0"/><feBlend in2="B"/></filter><filter id="S" x="1284" y="1038.75" width="139.262" height="124.114" filterUnits="userSpaceOnUse" class="C"><feFlood result="A" class="D"/><feColorMatrix in="SourceAlpha" values="0 0 0 0 0 0 0 0 0 0 0 0 0 0 0 0 0 0 127 0" result="B"/><feOffset dy="4"/><feGaussianBlur stdDeviation="2"/><feComposite in2="B" operator="out"/><feColorMatrix values="0 0 0 0 0 0 0 0 0 0 0 0 0 0 0 0 0 0 0.25 0"/><feBlend in2="A"/><feBlend in="SourceGraphic"/></filter><filter id="T" x="1287.46" y="1038.62" width="132.838" height="120.429" filterUnits="userSpaceOnUse" class="C"><feFlood class="D"/><feBlend in="SourceGraphic" result="B"/><feColorMatrix in="SourceAlpha" values="0 0 0 0 0 0 0 0 0 0 0 0 0 0 0 0 0 0 127 0" result="C"/><feOffset dy="4"/><feGaussianBlur stdDeviation="2"/><feComposite in2="C" operator="arithmetic" k2="-1" k3="1"/><feColorMatrix values="0 0 0 0 0 0 0 0 0 0 0 0 0 0 0 0 0 0 0.25 0"/><feBlend in2="B"/></filter><path id="U" d="M626.434 544.038l-27.389-21.798c-14.336-11.215-15.406-15.006-19.38-22.496s-4.471-12.616-3.766-14.368c0 0 2.662-4.029 5.366-4.623s7.13 1.643 8.503 2.445.679.216 4.725 3.771 17.35 18.14 18.533 23.226 13.408 33.843 13.408 33.843z"/><path id="V" d="M720.37 491.038l27.389-21.798c14.336-11.215 15.405-15.006 19.38-22.496s4.471-12.616 3.766-14.368c0 0-2.662-4.029-5.367-4.623s-7.13 1.643-8.503 2.445-.678.216-4.725 3.771-17.349 18.14-18.532 23.226-13.408 33.843-13.408 33.843z"/><path id="W" d="M661.894 482l-10.538-55.547c-5.72-28.835-3.032-34.602 0-47.958s7.828-20.151 10.538-21.551c0 0 7.505-2.124 11.44 0s6.993 9.527 7.828 11.956.602.979 1.807 9.595 2.107 40.488-1.807 47.958S661.894 482 661.894 482z"/><path id="X" d="M542.957 589.481c-103.389-32.597-154.54-18.961-167.192-8.069l-12.157 13.009s-3.455 7.111 2.214 14.33 15.704 6.68 27.178-4.199 7.174-15.78 27.434-18.91 122.523 3.839 122.523 3.839z"/><path id="Y" d="M537.609 524.512c-43.487-36.543-70.98-40.218-79.291-37.488l-8.496 3.853s-3.1 2.747-1.807 7.38 6.258 6.387 13.996 3.427 6.642-6.196 17.075-3.641 58.523 26.469 58.523 26.469z"/><path id="Z" d="M516.95 645.196l-18.972 8.393c-9.901 4.281-11.083 6.295-14.485 9.993s-4.454 6.564-4.313 7.674c0 0 .923 2.709 2.384 3.455s4.335.127 5.242-.127.422-.022 3.275-1.454 12.667-7.8 14.108-10.539 12.761-17.395 12.761-17.395z"/><path id="a" d="M625.972 633.234l-8.987-18.698c-4.591-9.761-6.641-10.879-10.446-14.162s-6.7-4.246-7.805-4.069c0 0-2.679 1.007-3.379 2.492s.01 4.336.293 5.235.035.42 1.556 3.227 8.196 12.415 10.979 13.769 17.789 12.206 17.789 12.206z"/><path id="b" d="M742 627.739c108.339 3.808 151.998 33.745 160.285 48.238l7.114 16.322s.881 7.856-6.873 12.768-17.034 1.052-24.215-13.035-1.492-17.271-19.543-26.988S742 627.739 742 627.739z"/><path id="c" d="M773.195 562.512c43.486-36.543 70.98-40.218 79.291-37.488l8.496 3.853s3.1 2.747 1.807 7.38-6.258 6.387-13.996 3.427-6.642-6.196-17.075-3.641-58.523 26.469-58.523 26.469z"/></defs></svg>